<?xml version="1.0" encoding="utf-8"?>
<!-- Generator: Adobe Illustrator 24.0.1, SVG Export Plug-In . SVG Version: 6.00 Build 0)  -->
<svg version="1.1" id="Camada_1" xmlns="http://www.w3.org/2000/svg" xmlns:xlink="http://www.w3.org/1999/xlink" x="0px" y="0px"
	 viewBox="0 0 3839 1080" style="enable-background:new 0 0 3839 1080;" xml:space="preserve">
<style type="text/css">
	.st0{fill:#4AD9ED;}
	.st1{opacity:0.36;}
	.st2{fill:#FFEBEE;}
	.st3{opacity:0.63;}
	.st4{opacity:0.44;}
	.st5{opacity:0.22;}
	.st6{opacity:0.49;}
	.st7{opacity:0.63;fill:url(banner-city.svg);enable-background:new    ;}
	.st8{fill:#031A50;}
	.st9{fill:url(banner-city.svg);}
</style>
<rect x="0.1" class="st0" width="3839.9" height="1080"/>
<g id="sky">
	<g>
		<g>
			<g class="st1">
				<path class="st2" d="M1526.3,163.1c-3.4,0.7-6.7,0.9-10,0.8c-0.1,1.8-0.2,3.5-0.5,5.2h41.4c-3.8-4.9-7.1-10.3-9.8-16.1
					C1541.5,158,1534.3,161.5,1526.3,163.1z"/>
			</g>
			<g class="st3">
				<path class="st2" d="M1562.6,104.2c36.3,2,68.1,28,76,64.9h33.8c-3.9-23.3,10.1-45.6,32.2-52.6c-0.1-4.5-0.6-9.1-1.5-13.7
					c-8.6-44.7-51.9-74-96.6-65.3c-26.2,5.1-47.1,22-58.1,44.1C1555.1,87.4,1560.1,95.2,1562.6,104.2z"/>
			</g>
			<g class="st3">
				<path class="st2" d="M1547.4,153.1c2.7,5.8,6,11.1,9.8,16.1h81.5c-8-37-39.7-62.9-76-64.9c0.3,1.2,0.6,2.5,0.9,3.7
					C1566.9,125.4,1560.2,142.4,1547.4,153.1z"/>
			</g>
			<g class="st4">
				<path class="st2" d="M1540.7,106c1.3-8.6,4-16.8,7.8-24.4c-10.6-9.3-25.2-13.8-40.1-10.9c-21.8,4.2-37.1,22.8-38.1,44
					c11.6,0.3,22.4,4.8,30.7,12.3C1511.7,116.8,1525.3,109.3,1540.7,106z"/>
			</g>
			<g class="st4">
				<path class="st2" d="M1515.5,152.8c0.7,3.7,1,7.4,0.8,11.1c3.3,0.1,6.6-0.2,10-0.8c8.1-1.6,15.2-5.1,21.1-10
					c-2.7-5.9-4.8-12.3-6.1-19c-1.8-9.6-2-19-0.6-28.2c-15.5,3.3-29,10.8-39.7,21.1C1508.2,133.6,1513.5,142.5,1515.5,152.8z"/>
			</g>
			<g class="st4">
				<path class="st2" d="M1542.4,105.6c6.8-1.3,13.6-1.8,20.2-1.4c-2.5-9-7.5-16.8-14.2-22.6c-3.8,7.6-6.4,15.8-7.8,24.4
					C1541.3,105.8,1541.9,105.7,1542.4,105.6z"/>
			</g>
			<g class="st4">
				<path class="st2" d="M1541.3,134.1c1.3,6.7,3.4,13,6.1,19c12.8-10.6,19.5-27.7,16.1-45.1c-0.2-1.3-0.5-2.5-0.9-3.7
					c-6.6-0.4-13.4,0.1-20.2,1.4c-0.6,0.1-1.1,0.2-1.7,0.4C1539.3,115.1,1539.4,124.5,1541.3,134.1z"/>
			</g>
			<g class="st4">
				<path class="st2" d="M1687.3,169.1h78c0.9-5.4,0.9-11-0.2-16.7c-4.9-25.5-29.6-42.2-55.1-37.3c-1.8,0.3-3.6,0.8-5.3,1.3
					C1705.2,136,1698.8,154.4,1687.3,169.1z"/>
			</g>
			<g class="st4">
				<path class="st2" d="M1672.5,169.1h14.8c11.4-14.7,17.9-33.2,17.4-52.6C1682.6,123.5,1668.6,145.8,1672.5,169.1z"/>
			</g>
			<g class="st5">
				<path class="st2" d="M1484.1,150.2c-6.4-6.4-11.1-14.8-12.9-24.4c-0.7-3.7-1-7.4-0.8-11.1c-3.3-0.1-6.6,0.2-10,0.8
					c-25,4.8-41.5,28.6-37.5,53.6h54.6C1478.9,162.5,1481.1,156.1,1484.1,150.2z"/>
			</g>
			<g class="st5">
				<path class="st2" d="M1516.3,163.9c-12.3-0.3-23.8-5.4-32.2-13.7c-3,6-5.2,12.4-6.6,19h38.3
					C1516,167.4,1516.2,165.7,1516.3,163.9z"/>
			</g>
			<g class="st5">
				<path class="st2" d="M1471.1,125.8c1.9,9.6,6.5,17.9,12.9,24.4c4.3-8.6,10-16.5,16.9-23.1c-8.3-7.5-19.1-12.1-30.7-12.3
					C1470.2,118.3,1470.4,122.1,1471.1,125.8z"/>
			</g>
			<g class="st5">
				<path class="st2" d="M1515.5,152.8c-2-10.3-7.2-19.2-14.4-25.8c-7,6.7-12.7,14.5-16.9,23.1c8.4,8.4,19.9,13.5,32.2,13.7
					C1516.4,160.3,1516.2,156.5,1515.5,152.8z"/>
			</g>
		</g>
		<g>
			<g class="st1">
				<path class="st2" d="M298.3,170.8h25.5h10.7c5.6-21,24.7-36.5,47.4-36.6c-3.1-44.9-40.5-80.4-86.2-80.4
					c-37.5,0-69.5,23.9-81.4,57.4c0.6,0,1.2,0,1.8,0C254.5,111.2,287.1,136.2,298.3,170.8z"/>
			</g>
			<g class="st3">
				<path class="st2" d="M158.3,170.8h56.6c-3.6-9.5-5.6-19.8-5.6-30.5c0-10.2,1.8-20,5-29.1c-15,0.3-29,4.4-41.2,11.4
					c0.9,3.7,1.4,7.6,1.4,11.6C174.6,148.7,168.3,161.8,158.3,170.8z"/>
			</g>
			<g class="st3">
				<path class="st2" d="M214.9,170.8h83.5c-11.3-34.6-43.8-59.6-82.2-59.6c-0.6,0-1.2,0-1.8,0c-3.2,9.1-5,18.9-5,29.1
					C209.3,151.1,211.3,161.3,214.9,170.8z"/>
			</g>
			<g class="st4">
				<path class="st2" d="M173.2,122.6c-5.2-21.6-24.7-37.7-47.9-37.7C98.1,84.9,76,107,76,134.2c0,14.5,6.3,27.6,16.3,36.6H134
					C140.6,150.3,154.8,133.2,173.2,122.6z"/>
			</g>
			<g class="st4">
				<path class="st2" d="M134,170.8h24.3c10-9,16.3-22.1,16.3-36.6c0-4-0.5-7.9-1.4-11.6C154.8,133.2,140.6,150.3,134,170.8z"/>
			</g>
			<g class="st5">
				<path class="st2" d="M376.6,170.8h53.2c-5.6-21.1-24.8-36.6-47.6-36.6c-0.1,0-0.1,0-0.2,0c0.1,2,0.2,4,0.2,6.1
					C382.2,151.1,380.2,161.3,376.6,170.8z"/>
			</g>
			<g class="st5">
				<path class="st2" d="M334.5,170.8h42.1c3.6-9.5,5.6-19.8,5.6-30.5c0-2-0.1-4.1-0.2-6.1C359.2,134.3,340.1,149.8,334.5,170.8z"/>
			</g>
		</g>
		<g class="st6">
			<path class="st2" d="M730.9,213.3h79.3c-10.3-12-12.7-29.6-4.7-44.2c10.4-18.8,34-25.7,52.9-15.4c4,2.2,7.4,5,10.3,8.2
				c21-19.3,52.8-24.1,79.1-9.6c4.7,0.6,9.3,2.1,13.7,4.5c8.7,4.8,14.9,12.5,18,21.2c9.8-3.1,20.8-2.3,30.5,3
				c12.3,6.8,19.5,19.2,20.1,32.3h29c3,0,5.4,2.4,5.4,5.4s-2.4,5.4-5.4,5.4H730.9c-3,0-5.4-2.4-5.4-5.4S727.9,213.3,730.9,213.3z"/>
		</g>
		<g>
			<g class="st1">
				<path class="st2" d="M3446.3,163.1c-3.4,0.7-6.7,0.9-10,0.8c-0.1,1.8-0.2,3.5-0.5,5.2h41.4c-3.8-4.9-7.1-10.3-9.8-16.1
					C3461.5,158,3454.3,161.5,3446.3,163.1z"/>
			</g>
			<g class="st3">
				<path class="st2" d="M3482.6,104.2c36.3,2,68.1,28,76,64.9h33.8c-3.9-23.3,10.1-45.6,32.2-52.6c-0.1-4.5-0.6-9.1-1.5-13.7
					c-8.6-44.7-51.9-74-96.6-65.3c-26.2,5.1-47.1,22-58.1,44.1C3475.1,87.4,3480.1,95.2,3482.6,104.2z"/>
			</g>
			<g class="st3">
				<path class="st2" d="M3467.4,153.1c2.7,5.8,6,11.1,9.8,16.1h81.5c-8-37-39.7-62.9-76-64.9c0.3,1.2,0.6,2.5,0.9,3.7
					C3486.9,125.4,3480.2,142.4,3467.4,153.1z"/>
			</g>
			<g class="st4">
				<path class="st2" d="M3460.7,106c1.3-8.6,4-16.8,7.8-24.4c-10.6-9.3-25.2-13.8-40.1-10.9c-21.8,4.2-37.1,22.8-38.1,44
					c11.6,0.3,22.4,4.8,30.7,12.3C3431.7,116.8,3445.3,109.3,3460.7,106z"/>
			</g>
			<g class="st4">
				<path class="st2" d="M3435.5,152.8c0.7,3.7,1,7.4,0.8,11.1c3.3,0.1,6.6-0.2,10-0.8c8.1-1.6,15.2-5.1,21.1-10
					c-2.7-5.9-4.8-12.3-6.1-19c-1.8-9.6-2-19-0.6-28.2c-15.5,3.3-29,10.8-39.7,21.1C3428.2,133.6,3433.5,142.5,3435.5,152.8z"/>
			</g>
			<g class="st4">
				<path class="st2" d="M3462.4,105.6c6.8-1.3,13.6-1.8,20.2-1.4c-2.5-9-7.5-16.8-14.2-22.6c-3.8,7.6-6.4,15.8-7.8,24.4
					C3461.3,105.8,3461.9,105.7,3462.4,105.6z"/>
			</g>
			<g class="st4">
				<path class="st2" d="M3461.3,134.1c1.3,6.7,3.4,13,6.1,19c12.8-10.6,19.5-27.7,16.1-45.1c-0.2-1.3-0.5-2.5-0.9-3.7
					c-6.6-0.4-13.4,0.1-20.2,1.4c-0.6,0.1-1.1,0.2-1.7,0.4C3459.3,115.1,3459.4,124.5,3461.3,134.1z"/>
			</g>
			<g class="st4">
				<path class="st2" d="M3607.3,169.1h78c0.9-5.4,0.9-11-0.2-16.7c-4.9-25.5-29.6-42.2-55.1-37.3c-1.8,0.3-3.6,0.8-5.3,1.3
					C3625.2,136,3618.8,154.4,3607.3,169.1z"/>
			</g>
			<g class="st4">
				<path class="st2" d="M3592.5,169.1h14.8c11.4-14.7,17.9-33.2,17.4-52.6C3602.6,123.5,3588.6,145.8,3592.5,169.1z"/>
			</g>
			<g class="st5">
				<path class="st2" d="M3404.1,150.2c-6.4-6.4-11.1-14.8-12.9-24.4c-0.7-3.7-1-7.4-0.8-11.1c-3.3-0.1-6.6,0.2-10,0.8
					c-25,4.8-41.5,28.6-37.5,53.6h54.6C3398.9,162.5,3401.1,156.1,3404.1,150.2z"/>
			</g>
			<g class="st5">
				<path class="st2" d="M3436.3,163.9c-12.3-0.3-23.8-5.4-32.2-13.7c-3,6-5.2,12.4-6.6,19h38.3
					C3436,167.4,3436.2,165.7,3436.3,163.9z"/>
			</g>
			<g class="st5">
				<path class="st2" d="M3391.1,125.8c1.9,9.6,6.5,17.9,12.9,24.4c4.3-8.6,10-16.5,16.9-23.1c-8.3-7.5-19.1-12.1-30.7-12.3
					C3390.2,118.3,3390.4,122.1,3391.1,125.8z"/>
			</g>
			<g class="st5">
				<path class="st2" d="M3435.5,152.8c-2-10.3-7.2-19.2-14.4-25.8c-7,6.7-12.7,14.5-16.9,23.1c8.4,8.4,19.9,13.5,32.2,13.7
					C3436.4,160.3,3436.2,156.5,3435.5,152.8z"/>
			</g>
		</g>
		<g>
			<g class="st1">
				<path class="st2" d="M2218.3,170.8h25.5h10.7c5.6-21,24.7-36.5,47.4-36.6c-3.1-44.9-40.5-80.4-86.2-80.4
					c-37.5,0-69.5,23.9-81.4,57.4c0.6,0,1.2,0,1.8,0C2174.5,111.2,2207.1,136.2,2218.3,170.8z"/>
			</g>
			<g class="st3">
				<path class="st2" d="M2078.3,170.8h56.6c-3.6-9.5-5.6-19.8-5.6-30.5c0-10.2,1.8-20,5-29.1c-15,0.3-29,4.4-41.2,11.4
					c0.9,3.7,1.4,7.6,1.4,11.6C2094.6,148.7,2088.3,161.8,2078.3,170.8z"/>
			</g>
			<g class="st3">
				<path class="st2" d="M2134.9,170.8h83.5c-11.3-34.6-43.8-59.6-82.2-59.6c-0.6,0-1.2,0-1.8,0c-3.2,9.1-5,18.9-5,29.1
					C2129.3,151.1,2131.3,161.3,2134.9,170.8z"/>
			</g>
			<g class="st4">
				<path class="st2" d="M2093.2,122.6c-5.2-21.6-24.7-37.7-47.9-37.7c-27.2,0-49.3,22.1-49.3,49.3c0,14.5,6.3,27.6,16.3,36.6h41.7
					C2060.6,150.3,2074.8,133.2,2093.2,122.6z"/>
			</g>
			<g class="st4">
				<path class="st2" d="M2054,170.8h24.3c10-9,16.3-22.1,16.3-36.6c0-4-0.5-7.9-1.4-11.6C2074.8,133.2,2060.6,150.3,2054,170.8z"/>
			</g>
			<g class="st5">
				<path class="st2" d="M2296.6,170.8h53.2c-5.6-21.1-24.8-36.6-47.6-36.6c-0.1,0-0.1,0-0.2,0c0.1,2,0.2,4,0.2,6.1
					C2302.2,151.1,2300.2,161.3,2296.6,170.8z"/>
			</g>
			<g class="st5">
				<path class="st2" d="M2254.5,170.8h42.1c3.6-9.5,5.6-19.8,5.6-30.5c0-2-0.1-4.1-0.2-6.1C2279.2,134.3,2260.1,149.8,2254.5,170.8
					z"/>
			</g>
		</g>
		<g class="st6">
			<path class="st2" d="M2650.9,213.3h79.3c-10.3-12-12.7-29.6-4.7-44.2c10.4-18.8,34-25.7,52.9-15.4c4,2.2,7.4,5,10.3,8.2
				c21-19.3,52.8-24.1,79.1-9.6c4.7,0.6,9.3,2.1,13.7,4.5c8.7,4.8,14.9,12.5,18,21.2c9.8-3.1,20.8-2.3,30.5,3
				c12.3,6.8,19.5,19.2,20.1,32.3h29c3,0,5.4,2.4,5.4,5.4s-2.4,5.4-5.4,5.4H2651c-3,0-5.4-2.4-5.4-5.4
				C2645.5,215.7,2647.9,213.3,2650.9,213.3z"/>
		</g>
	</g>
</g>
<g id="house2">
	
		<linearGradient id="SVGID_1_" gradientUnits="userSpaceOnUse" x1="1920.05" y1="583.0002" x2="1920.05" y2="106.8492" gradientTransform="matrix(1 0 0 -1 0 1080)">
		<stop  offset="0" style="stop-color:#1CA2C2"/>
		<stop  offset="1" style="stop-color:#E1E1CA"/>
	</linearGradient>
	<path class="st7" d="M3840,720.2v-210V316.4l0,0h-0.3h-2.9h-0.3h-1.8h-0.3h-1.7v-26.5l0,0h-0.3h-2.9h-0.3h-1.5h-0.3h-2.9h-0.3h-1.3
		v-0.8l0,0l0,0V275l0,0v-2.4l0,0h-0.3h-2.9h-0.3h-15.9v-32.9l0,0v-2.6l0,0h-0.3h-2.9h-0.3h-0.5h-0.3h-2.9h-0.2h-0.1h-0.2h-2.9h-0.3
		h-10.3v-15.8l0,0v-3l0,0h-0.3h-2.4h-0.3h-0.3h-0.3h-2.4h-0.3h-2.3h-0.3h-2.9h-0.3l0,0v3l0,0v10.6h-1.9v-22l0,0h-0.3h-1.4h-0.3h-1.2
		h-0.3h-1.4h-0.3h-0.2h-0.3h-2.9h-0.3l0,0v27.2h-2.6h-0.2h-0.1h-0.2h-2.9h-0.3h-0.5h-0.2h-0.1h-0.2h-2.8h-0.2h-0.1h-0.2l0,0v35.5
		h-20.1h-0.3h-2.9h-0.3l0,0v2.4l0,0v14.1l0,0v5.9l0,0v1.2l0,0v5h-5.6h-0.3h-2.9h-0.3l0,0v2.5l0,0v1.7h-2.2h-0.3h-2.9h-0.3l0,0h-0.3
		h-2.9h-0.3l0,0l0,0v4.2v10v5.9v10v5.9v10v5.9v10v5.9v10v5.9v10v5.9v10v5.9v10v5.9v10v5.9v10v5.9v10v5.9v10v5.9v10v5.9v10v5.9v10
		v5.9v10v5.9v10v5.9v10v5.9v10v5.9v10v5.9v10v5.9v10v5.9v10v5.9v10l0,0v5.9v10v5.9v10v3.4h-9.4V707v-10.3v-18.4V668v-17l0,0v-10.3
		v-20v-10.3v-21.9v-10.3l0,0v-19.1V549v-20.3v-10.3v-23v-10.3l0,0V460l0,0v-7.4l0,0v-2.9v-29.4l0,0v-1.5v-7.2l0,0v-4l0,0h-0.1h-0.2
		h-0.1h-2.8h-0.1l0,0h-0.2h-0.1l0,0h-17.7v-3.5v-5.3v-2.2h-0.1l0,0h-0.3h-2.9h-0.3h-13.8v-12.1h-0.1h-0.2h-0.1h-2.8h-0.1h-0.2h-0.1
		h-3.3v-52.3h-0.1l0,0h-0.2h-0.1l0,0h-2.8h-0.1l0,0h-0.2h-0.1l0,0h-0.3h-0.1h-0.2h-0.1h-2.8h-0.1h-0.2h-0.1v52.3h-6.7v-49.4h-0.1
		h-0.2h-0.1h-2.8l0,0h-0.1l0,0l0,0h-0.1h-0.1l0,0h-0.1l0,0l0,0h-0.1h-2.8l0,0h-0.1h-0.2l0,0h-0.1l0,0v49.4h-5v-67.1h-0.1l0,0h-0.3
		h-1.5h-0.3l0,0v67.1h-1v-67.1h-0.1l0,0h-0.3h-1.5h-0.3l0,0v67.1h-3.4v-11.9l0,0h-0.1h-0.2h-0.1h-2.8h-0.1h-0.2h-0.1h-7v-13.5h-0.3
		h-2.9h-0.3h-9.4h-0.3h-2.9h-0.3v3.4h-2.6v-3.4h-0.3h-2.4v-6h5.8h0.3h2.9h0.3V345h-0.3h-2.9h-0.3h-36.8h-0.3h-0.4v-34.5h-0.3h-2.9
		h-0.3h-5.6v-7.1v-2.6h-0.3h-2.9h-0.3h-5.6v-29.7v-5.2h-0.3h-2.9h-0.3h-0.1v-25.3v-4.4h-0.3h-2.9l0,0v-25.3v-4.4h-0.3h-0.8V182v-4.3
		v-21.8v-26.8v-5.7V96.7h-0.3h-2.9l0,0h-0.3l0,0h-2.9h-0.3v26.8v5.7V156v21.8v4.3v24.5h-0.8h-0.3v4.4v25.3h-2h-0.3v4.4V266h-0.1
		h-0.3h-2.9h-0.3v5.2v29.7h-3.9h-0.3h-2.9h-0.3v2.6v7.1h-4.3h-0.3h-2.9h-0.3V345h-0.4h-0.3h-36.8h-0.3h-2.9h-0.3v8.2h0.3h2.9h0.3
		h5.8v6h-1.8h-0.3v3.4h-2.6v-3.4h-0.3h-2.9h-0.3h-9.4h-0.3h-2.9h-0.3v58.3h0.3h2.9h0.3h9.4h0.3h2.9h0.3v-3h2.6v156.3h-9.9h-0.3h-2.6
		V568v-4.8h1.1h0.3v-4.4h-0.3h-2.9h-0.3h-21.8v-22.4v-0.2v-3.8v-0.2v-47.5v-0.2v-3.8v-0.2V438v-0.2h-0.3h-2.9h-0.3h-7.5v-56.9v-0.2
		v-19.9v-0.2h-0.3h-2.9h-0.3h-5.4v-14.1v-0.2h-0.3h-2.9h-0.3v-11.8v-0.2h-0.3h-2.9h-0.3h-0.2v-9v-0.2h-0.3h-2.9h-0.2v-7l0,0V318
		h-0.3h-2.9h-0.3h-2.2c0-0.2-0.1-0.4-0.1-0.6c0-0.1,0-0.1,0-0.2c0-0.3-0.1-0.6-0.2-0.9v-24.7v-0.2V188.6v-0.2h-0.3h-2.9h-0.3h-0.6
		h-0.3h-2.9h-0.3v0.2v102.8h-6.8h-0.3h-2.9h-0.3v0.2V318h-2.5h-0.3h-2.9h-0.3v0.2v7h-0.2h-0.3h-2.9h-0.3v0.2v9h-0.2h-2.9h-0.3v0.2
		v11.8h-0.7h-0.3h-2.9h-0.3v0.2v14.1h-5.2h-0.3h-2.9h-0.3v0.2v19.9v0.2v56.9h-4h-0.3h-2.9h-0.3v0.2v42.6v0.2v3.8v0.2v7.5h-8.7v-22.7
		v-0.1h-1h-1.6h-0.6h-0.3h-0.6h-1h-0.6h-0.3h-0.6h-1.6h-1v0.1v22.7h-0.3h-2.9h-0.3h-49.3h-0.3h-2.4v-26.5v-0.1h-1h-0.2h-1v0.1V499
		h-1.1v-33.1v-0.1h-1h-0.2h-1v0.1V499h-12h-1h-2.3h-1v0.1v3.1v0.1v6h-1.5h-1h-2.3h-1v0.1l0,0v2.6v6.1v23v4.4v24.4v4.4l0,0v19.4h-10
		V341v-0.2h-3.2h-11.7h-3.2h-2.7v-32.7V308v-3.4v-0.2V242v-0.2l-3.2,0.8V242v-0.2l-49.1,12.6h-58.9v-18h2v-0.2V215v0h-2v-14.6v-0.2
		h-3.2h-6.9v-35.3v-0.2h-2.9v0.2v35.3h-0.3v-35.3v-0.2h-2.9v0.2v35.3v0.2h0.1V215h-3.1v0.2v21.2v0.2h3.1v18h-12.7l-7.1-10.2v0.2v4.4
		l-3.2-4.6v0.2v8.1l-41.8-10.7v0.2v0.6l-3.2-0.8v0.2v12.4v0.2v4.8v0.2v23.7v0.2v4.5v0.2v16.2v0.2v4.6v0.2v132.3v126.7h-1.5V586h-0.6
		h-3.1v-20.5v-13.1v-20.5h-0.1v-0.2h-4.5V552h-0.2v-20.3h-0.1v-0.2h-4.5V552h-13.8v-25.4v-17.9V493h-0.1v-0.2h-4.5v15.7h-0.2V493
		h-0.1v-0.2h-4.5v15.7h-33V493h-0.1v-0.2h-1.1v-14l0,0v-1.3v-6.4l0,0v-3.6l0,0h-0.1l0,0h-19v-3.1v-4.8v-2h-0.1l0,0h-15.5v-10.8h-0.1
		h-6.1v-46.9h-0.1l0,0h-3.4h-0.1v46.9h-9.1v-44.3h-0.1h-2.7l0,0h-0.1l0,0v44.3h-7.6v-60.2h-0.1l0,0h-1.6l0,0v60.2h-6.2v-10.6l0,0
		h-0.1h-29.3h-0.1v10.6h-4.7h-0.1l0,0v6.2c-0.1,1.5-0.2,3-0.3,4.6h-15.4l0,0v2l0,0v4.8v3.1h-19.7h-0.1v5c-0.1,0.1-0.1,0.2-0.1,0.3
		c-0.5,12.3-0.1,24.5,0.1,36.7v1.7v3.2V537l0,0v9.2l0,0h0.1c-0.1,9.3-0.2,18.5,0,27.8v2v18v9.2v17.2l0,0v9.2v19.6v9.2v17.9v9.2l0,0
		v15.2v3h-5.6h-4.8h-3.3v-6.3v-3v-0.1v-14.1v-0.1V676v-0.1v-7v-17.3v-3v-0.1V632l0,0v-4.8v-0.1v-15V612v-4.9V607h-4.8h-5.8v-77.1
		l0,0V292.6l0,0h-3.8l0,0h-1.3v-3.7l0,0h-3.8l0,0h-7.2l0,0h-3.8l0,0h-21.9h-3.8h-3.5h-3.8h-18.7v-10.7v-5.5l0,0l0,0h-3.8l0,0h-66.8
		l0,0h-3.8l0,0l0,0v5.5v10.7h-21.2h-3.8v6.7l0,0v30.1h-0.2v-38v-0.1h-2.1v0.1v38h-0.8h-0.9v-38v-0.1h-2.1v0.1v38h-0.5v-12.2v-0.1
		V303l0,0h-3.8h-34v-4.2v-0.1l0,0h-2.2v-8.3h2.2v-0.1v-2.6l0,0v-0.1v-5.2v-0.1h-2.2v-9.1h2.2v-0.1v-2.6v-0.1v-5.2v-0.1h-2.2l0,0
		h-3.3v-47.5v-0.1h-3.8h-3.9v-20v-0.1l0,0v-10.7v0.3h-3.8h-106.8l0,0h-3.8l0,0v0.1v10.7v0.1v16.6l0,0h-3.1h-0.8h-3.1v0.1v50.9h-1.1
		v0.1v6.6v0.1v76.8h-8h-3.6h-0.2h-3.6h-0.1v-3.7h3.6h3.8l0,0l0,0l0,0v-11.1l0,0l0,0h-3.8h-46.3v-21.5l0,0v-8l0,0h-3.8H2324h-3.8l0,0
		v8l0,0V334h-46.3h-3.8l0,0l0,0v11.1l0,0l0,0l0,0h3.8h3.2v3.7H2244h-3.8l0,0v6.4l0,0v167.2l0,0v24.1h-64.4h-2.5v8.2V580v3.4H2160
		h-2.5v13.5h-5.5v-20.8v-5.8h-0.1l0,0h-2.5h-0.7h-2.5v5.8H2102v-5.8h-0.1l0,0h-1.4h-0.1h-0.9h-1.4h-0.1h-0.6h-2.5v5.8v34v2.7v17.9
		v2.7v0.7v6.8v2.7v17.9v2.7v0.7v6.4v2.7v1h-7.8v-8h-6.9h-2.8v-19.2v-5l0,0h-6.9h-7.8v-15.6l0,0h-0.8v15.6h-4.2v-27.6h-2.3v12h-0.4
		v15.6h-3.5h-0.7v-27.6h-2.3v27.6h-3.9l0,0l0,0v5v4.1h-5.6h-6.9l0,0v15h-3.8v-2.6v-15.7v-7.9V623v-7.9v-19.4V590v-2.2v-22.6v-1.1
		V559v-3.1h-6.9h-7v-2.7l0,0v-4.1v-1.7h-6.9h-4.4v-9.3h-4.5v-40.3h-2.5l0,0v40.3h-4.4v-40.3h-2.5l0,0v2.3h-1.8v38.1h-4.8v-38.1l0,0
		h-0.7v-13.7l0,0h-1.2v13.7h-0.2v38.1h-4.4V529h-1.2v-42.6l0,0h-1.2V529h-4.5h-14.4l0,0h-6.9l0,0v9.1h-3.4v9.3h-4.5h-6.9v1.7v4.1
		l0,0v2.7h-7.5h-5.5v-45.7V316.4l0,0h-0.3h-2.9h-0.3h-1.8h-0.3h-1.7v-26.5l0,0h-0.3h-2.9h-0.3h-1.5h-0.3h-2.9h-0.3h-1.3v-0.8l0,0
		l0,0V275l0,0v-2.4l0,0h-0.3h-2.9h-0.3h-15.8v-32.9l0,0v-2.6l0,0h-0.3h-2.9h-0.3h-0.5h-0.3h-2.9h-0.2h-0.1h-0.2h-2.9h-0.3h-10.3
		v-15.8l0,0v-3l0,0h-0.3h-2.4h-0.3h-0.3h-0.3h-2.4h-0.3h-2.3h-0.3h-2.9h-0.3l0,0v3l0,0v10.6h-1.9v-22l0,0h-0.3h-1.4h-0.3h-1.2h-0.3
		h-1.4h-0.3h-0.2h-0.3h-2.9h-0.3l0,0v27.2h-2.6h-0.2h-0.1h-0.2h-2.9h-0.3h-0.5h-0.2h-0.1h-0.2h-2.8h-0.2h-0.1h-0.2l0,0v35.5h-20.1
		h-0.3h-2.9h-0.3l0,0v2.4l0,0v14.1l0,0v5.9l0,0v1.2l0,0v5h-5.6h-0.3h-2.9h-0.3l0,0v2.5l0,0v1.7h-2.2h-0.3h-2.9h-0.3l0,0h-0.3h-2.9
		h-0.3l0,0l0,0v4.2v10v5.9v10v5.9v10v5.9v10v5.9v10v5.9v10v5.9v10v5.9v10v5.9v10v5.9v10v5.9v10v5.9v10v5.9v10v5.9v10v5.9v10v5.9v10
		v5.9v10v5.9v10v5.9v10v5.9v10v5.9v10v5.9v10v5.9v10v5.9v10l0,0v5.9v10v5.9v10v3.4h-9.4V707v-10.3v-18.4V668v-17l0,0v-10.3v-20
		v-10.3v-21.9v-10.3l0,0v-19.1V549v-20.3v-10.3v-23v-10.3l0,0V460l0,0v-7.4l0,0v-2.9v-29.4l0,0v-1.5v-7.2l0,0v-4l0,0h-0.1h-0.2h-0.1
		h-2.8h-0.1l0,0h-0.2h-0.1l0,0h-17.7v-3.5v-5.3v-2.2h-0.1l0,0h-0.3h-2.9h-0.3H1739v-12.1h-0.1h-0.2h-0.1h-2.8h-0.1h-0.2h-0.1h-3.3
		v-52.3h-0.1l0,0h-0.2h-0.1l0,0h-2.8h-0.1l0,0h-0.2h-0.1l0,0h-0.3h-0.1h-0.2h-0.1h-2.8h-0.1h-0.2h-0.1v52.3h-6.7v-49.4h-0.1h-0.2
		h-0.1h-2.8l0,0h-0.1l0,0l0,0h-0.1h-0.1l0,0h-0.1l0,0l0,0h-0.1h-2.8l0,0h-0.1h-0.2l0,0h-0.1l0,0v49.4h-5v-67.1h-0.1l0,0h-0.3h-1.5
		h-0.3l0,0v67.1h-1v-67.1h-0.1l0,0h-0.3h-1.5h-0.3l0,0v67.1h-3.4v-11.9l0,0h-0.1h-0.2h-0.1h-2.8h-0.1h-0.2h-0.1h-7v-13.5h-0.3h-2.9
		h-0.3h-9.4h-0.3h-2.9h-0.3v3.4h-2.6v-3.4h-0.3h-2.4v-6h5.8h0.3h2.9h0.3V345h-0.3h-2.9h-0.3H1634h-0.3h-0.4v-34.5h-0.3h-2.9h-0.3
		h-5.6v-7.1v-2.6h-0.3h-2.9h-0.3h-5.6v-29.7v-5.2h-0.3h-2.9h-0.3h-0.1v-25.3v-4.4h-0.3h-2.9l0,0v-25.3v-4.4h-0.3h-0.8V182v-4.3
		v-21.8v-26.8v-5.7V96.7h-0.3h-2.9l0,0h-0.3l0,0h-2.9h-0.3v26.8v5.7V156v21.8v4.3v24.5h-0.8h-0.3v4.4v25.3h-2h-0.3v4.4V266h-0.1
		h-0.3h-2.9h-0.3v5.2v29.7h-3.9h-0.3h-2.9h-0.3v2.6v7.1h-4.3h-0.3h-2.9h-0.3V345h-0.4h-0.3h-36.7h-0.3h-2.9h-0.3v8.2h0.3h2.9h0.3
		h5.8v6h-1.8h-0.3v3.4h-2.6v-3.4h-0.3h-2.9h-0.3h-9.4h-0.3h-2.9h-0.3v58.3h0.3h2.9h0.3h9.4h0.3h2.9h0.3v-3h2.6v156.3h-9.9h-0.3h-2.6
		V568v-4.8h1.1h0.3v-4.4h-0.3h-2.9h-0.3H1509v-22.4v-0.2v-3.8v-0.2v-47.5v-0.2v-3.8v-0.2V438v-0.2h-0.3h-2.9h-0.3h-7.5v-56.9v-0.2
		v-19.9v-0.2h-0.3h-2.9h-0.3h-5.4v-14.1v-0.2h-0.3h-2.9h-0.3v-11.8v-0.2h-0.3h-2.9h-0.3h-0.2v-9v-0.2h-0.3h-2.9h-0.2v-7l0,0V318
		h-0.3h-2.9h-0.3h-2.1c0-0.2-0.1-0.4-0.1-0.6c0-0.1,0-0.1,0-0.2c0-0.3-0.1-0.6-0.2-0.9v-24.7v-0.2V188.6v-0.2h-0.3h-2.9h-0.3h-0.6
		h-0.3h-2.9h-0.3v0.2v102.8h-6.8h-0.3h-2.9h-0.3v0.2V318h-2.5h-0.3h-2.9h-0.3v0.2v7h-0.2h-0.3h-2.9h-0.3v0.2v9h-0.2h-2.9h-0.3v0.2
		v11.8h-0.7h-0.3h-2.9h-0.3v0.2v14.1h-5.2h-0.3h-2.9h-0.3v0.2v19.9v0.2v56.9h-4h-0.3h-2.9h-0.3v0.2v42.6v0.2v3.8v0.2v7.5h-8.7v-22.7
		v-0.1h-1h-1.6h-0.6h-0.3h-0.6h-1h-0.6h-0.3h-0.6h-1.6h-1v0.1v22.7h-0.3h-2.9h-0.3h-49.3h-0.3h-2.4v-26.5v-0.1h-1h-0.2h-1v0.1V499
		h-1.1v-33.1v-0.1h-1h-0.2h-1v0.1V499h-12h-1h-2.3h-1v0.1v3.1v0.1v6h-1.5h-1h-2.3h-1v0.1l0,0v2.6v6.1v23v4.4v24.4v4.4l0,0v19.4h-10
		V341v-0.2h-3.2h-11.7h-3.2h-2.7v-32.7V308v-3.4v-0.2V242v-0.2l-3.2,0.8V242v-0.2l-49.1,12.6h-58.9v-18h2v-0.2V215v0h-2v-14.6v-0.2
		h-3.2h-6.9v-35.3v-0.2h-2.9v0.2v35.3h-0.3v-35.3v-0.2h-2.9v0.2v35.3v0.2h0.1V215h-3.1v0.2v21.2v0.2h3.1v18H1150l-7.1-10.2v0.2v4.4
		l-3.2-4.6v0.2v8.1l-41.8-10.7v0.2v0.6l-3.2-0.8v0.2v12.4v0.2v4.8v0.2v23.7v0.2v4.5v0.2v16.2v0.2v4.6v0.2v132.3v126.7h-1.5V586h-0.6
		h-3.1v-20.5v-13.1v-20.5h-0.1v-0.2h-4.5V552h-0.2v-20.3h-0.1v-0.2h-4.5V552h-13.8v-25.4v-17.9V493h-0.1v-0.2h-4.5v15.7h-0.2V493
		h-0.1v-0.2h-4.5v15.7h-33V493h-0.1v-0.2h-1.1v-14l0,0v-1.3v-6.4l0,0v-3.6l0,0h-0.1l0,0h-19v-3.1v-4.8v-2h-0.1l0,0H988v-10.8h0h-6
		v-46.9h-0.1l0,0h-3.4h-0.1v46.9h-9.1v-44.3h-0.1h-2.7l0,0h-0.1l0,0v44.3h-7.6v-60.2h-0.1l0,0h-1.6l0,0v60.2h-6.2v-10.6l0,0h-0.1
		h-29.3h-0.1v10.6h-4.6h-0.1l0,0v6.2c-0.1,1.5-0.2,3-0.3,4.6H901l0,0v2l0,0v4.8v3.1h-19.7h-0.1v5c-0.1,0.1-0.1,0.2-0.1,0.3
		c-0.5,12.3-0.1,24.5,0.1,36.7v1.7v3.2V537l0,0v9.2l0,0h0.1c-0.1,9.3-0.2,18.5,0,27.8v2v18v9.2v17.2l0,0v9.2v19.6v9.2v17.9v9.2l0,0
		v15.2v3h-5.6H871h-3.3v-6.3v-3v-0.1v-14.1v-0.1V676v-0.1v-7v-17.3v-3v-0.1V632l0,0v-4.8v-0.1v-15V612v-4.9V607h-4.8h-5.7v-77.1l0,0
		V292.6l0,0h-3.8l0,0h-1.3v-3.7l0,0h-3.8l0,0h-7.2l0,0h-3.8l0,0h-21.9h-3.8h-3.5h-3.8h-18.7v-10.7v-5.5l0,0l0,0h-3.8l0,0h-66.7l0,0
		h-3.8l0,0l0,0v5.5v10.7h-21.2h-3.8v6.7l0,0v30.1h-0.2v-38v-0.1H684v0.1v38h-0.8h-0.9v-38v-0.1h-2.1v0.1v38h-0.5v-12.2v-0.1V303l0,0
		H676h-34v-4.2v-0.1l0,0h-2.2v-8.3h2.2v-0.1v-2.6l0,0v-0.1v-5.2v-0.1h-2.2v-9.1h2.2v-0.1v-2.6v-0.1v-5.2v-0.1h-2.2l0,0h-3.3v-47.5
		v-0.1h-3.8h-3.9v-20v-0.1l0,0v-10.7v0.3H625H518.3l0,0h-3.8l0,0v0.1v10.7v0.1v16.6l0,0h-3h-0.8h-3v0.1v50.9h-1.1v0.1v6.6v0.1v76.8
		h-8H495h-0.2h-3.6H491v-3.7h3.6h3.8l0,0l0,0l0,0v-11.1l0,0l0,0h-3.8h-46.3v-21.5l0,0v-8l0,0h-3.8h-39.3h-3.8l0,0v8l0,0V334h-46.3
		h-3.8l0,0l0,0v11.1l0,0l0,0l0,0h3.8h3.2v3.7h-33.1h-3.8l0,0v6.4l0,0v167.2l0,0v24.1H257h-2.5v8.2V580v3.4h-13.3h-2.5v13.5h-5.5
		v-20.8v-5.8h-0.1l0,0h-2.5h-0.7h-2.5v5.8h-44.2v-5.8h-0.1l0,0h-1.4h-0.1h-0.9h-1.4H179h-0.6H176v5.8v34v2.7v17.9v2.7v0.7v6.8v2.7
		v17.9v2.7v0.7v6.4v2.7v1h-7.8v-8h-6.9h-2.8v-19.2v-5l0,0h-6.9h-7.8v-15.6l0,0H143v15.6h-4.2v-27.6h-2.3v12h-0.4v15.6h-3.5H132
		v-27.6h-2.3v27.6h-3.9l0,0l0,0v5v4.1h-5.6h-6.9l0,0v15h-3.8v-2.6v-15.7v-7.9V623v-7.9v-19.4V590v-2.2v-22.6v-1.1V559v-3.1h-6.9h-7
		v-2.7l0,0v-4.1v-1.7h-6.9h-4.4v-9.3H80v-40.3h-2.5l0,0v40.3h-4.3v-40.3h-2.5l0,0v2.3h-1.8v38.1h-4.8v-38.1l0,0h-0.7v-13.7l0,0H62
		v13.7h-0.2v38.1h-4.4V529h-1.2v-42.6l0,0H55V529h-4.5H36.2l0,0h-6.9l0,0v9.1h-3.4v9.3h-4.5h-6.9v1.7v4.1l0,0v2.7H7H0.1v9.8v27.8
		v2.7v19.4v7.9v17.7v7.9v15.7v7.9v14.8v7.9v16.9v7.9v15.4v7.9v3.1v9.9v7.9v14.2v7.9V800v4.7v27.6V899v181h1918.5h1.4h1920V720.2
		L3840,720.2z M388.9,348.9h-3.6h-3.8H368h-2.1v-3.7h23V348.9z M401.4,348.9h-3.6v-3.7h3.6V348.9z M451.5,348.9h-3.2v-3.7h3.2V348.9
		z M482.2,348.9h-3l0,0h-20v-3.7h23V348.9z M1320.8,617.1h-2.8h-7.2v-4.8h10V617.1z M1403.3,508.1h-52.9v-2.3h0.1h2.2v1.6v0.1h0.3
		h2.6h0.3v-0.1v-1.6l0,0v1.6v0.1h0.3h2.6h0.3v-0.1v-1.6h28.7v1.6l0,0v0.1h0.3h2.9h0.3h1.1h0.3h2.9h0.3v-0.1v-1.6h3.8h0.3h2.9h0.3
		L1403.3,508.1L1403.3,508.1z M1540.6,595.5h-7.7v-3.1v-1.8h2.6h0.3h4.9v4.9H1540.6z M1543.8,595.5h-1.3v-5h1.3V595.5z
		 M1545.6,401.5v2.7v7.9h-2.6V365h2.6V401.5z M1550.9,359.2h-0.8h-0.3h-0.5v-6h1.5v6H1550.9z M1576.3,359.2h-23h-0.3h-0.5v-6h23.7v6
		H1576.3z M1579.2,359.2h-1.2v-6h0.6h0.3h0.4v6H1579.2z M1635.3,359.2h-1.3v-6h0.4h0.3h0.6V359.2z M1660.8,359.2h-0.9h-0.3H1637v-6
		h23.7v6H1660.8z M1664,359.2h-0.9h-0.3h-0.4v-6h1.5v6H1664z M1671,372.7h-2.6V365h2.6V372.7z M2307.7,348.9h-3.6h-3.8h-13.6h-2.1
		v-3.7h23v3.7H2307.7z M2320.2,348.9h-3.6v-3.7h3.6V348.9z M2370.3,348.9h-3.2v-3.7h3.2V348.9z M2401,348.9h-3l0,0h-20v-3.7h23
		V348.9z M3240.3,617.1h-2.8h-7.2v-4.8h10V617.1z M3322.9,508.1H3270v-2.3h0.1h2.2v1.6v0.1h0.3h2.6h0.3v-0.1v-1.6l0,0v1.6v0.1h0.3
		h2.6h0.3v-0.1v-1.6h28.7v1.6l0,0v0.1h0.3h2.9h0.3h1.1h0.3h2.9h0.3v-0.1v-1.6h3.8h0.3h2.9h0.3L3322.9,508.1L3322.9,508.1z
		 M3460.3,595.5h-7.7v-3.1v-1.8h2.6h0.3h4.9v4.9H3460.3z M3463.5,595.5h-1.3v-5h1.3V595.5z M3465.3,401.5v2.7v7.9h-2.6V365h2.6
		V401.5z M3470.6,359.2h-0.8h-0.3h-0.5v-6h1.5v6H3470.6z M3496,359.2h-23h-0.3h-0.5v-6h23.8V359.2z M3498.9,359.2h-1.2v-6h0.6h0.3
		h0.4v6H3498.9z M3555.1,359.2h-1.3v-6h0.4h0.3h0.6V359.2z M3580.6,359.2h-0.9h-0.3h-22.6v-6h23.8V359.2z M3583.8,359.2h-0.9h-0.3
		h-0.4v-6h1.5L3583.8,359.2L3583.8,359.2z M3590.8,372.7h-2.6V365h2.6V372.7z"/>
	<polygon class="st8" points="1920.3,921.6 1920.1,921.6 1920.1,902.1 1920.1,899.6 1920.3,899.6 1920.3,896.4 1920,896.4 
		1920,1080 1920.3,1080 	"/>
</g>
<g id="house1">
	
		<linearGradient id="SVGID_2_" gradientUnits="userSpaceOnUse" x1="1920" y1="237.0002" x2="1920" y2="-110.666" gradientTransform="matrix(1 0 0 -1 0 1080)">
		<stop  offset="2.000000e-07" style="stop-color:#3186AB"/>
		<stop  offset="1" style="stop-color:#4FC2E5"/>
	</linearGradient>
	<polygon class="st9" points="3785.5,896.4 3785.5,899.1 3775.1,899.1 3775.1,897.6 3775.1,893.4 3776.9,893.4 3776.9,889.5 
		3756.6,889.5 3756.6,881.3 3756.6,880.1 3756.6,876.6 3756.6,875.5 3756.6,858.1 3756.6,856.9 3756.6,853.4 3756.6,852.3 
		3756.6,833.3 3756.6,832.1 3756.6,828.6 3756.6,827.5 3756.6,812.3 3756.6,810.1 3756.6,808.9 3756.6,805.4 3756.6,804.3 
		3756.6,785.8 3756.6,784.6 3756.6,781 3756.6,780 3756.6,762.5 3756.6,761.4 3756.6,757.8 3756.6,756.8 3756.6,738.3 3756.6,736.1 
		3756.6,729.9 3756.6,727.9 3756.6,727.8 3710.3,727.8 3694.5,727.8 3694.5,723.5 3694.5,668.8 3675.5,668.8 3675.5,662.9 
		3668.4,662.9 3668.4,653.6 3667.1,653.6 3667.1,662.9 3664.8,662.9 3664.8,668.8 3659.5,668.8 3653.7,668.8 3645.8,668.8 
		3641,668.8 3627.6,668.8 3627.6,637.9 3626,637.9 3626,668.8 3615.5,668.8 3615.5,723.5 3615.5,727.8 3575.2,727.8 3575.2,708 
		3575.2,707.9 3575.2,705.7 3575.2,705.6 3575.2,679.8 3575.2,679.7 3575.2,677.5 3575.2,677.4 3575.2,653.2 3575.2,653 
		3575.2,650.9 3575.2,650.7 3575.2,622.9 3575.2,622.7 3568.2,622.7 3568.2,614.7 3568.2,614.5 3562.8,614.5 3562.8,569.9 
		3562.8,569.7 3560.2,569.7 3560.2,569.9 3560.2,614.5 3559.2,614.5 3559.2,614.7 3559.2,622.7 3556.4,622.7 3556.4,622.9 
		3556.4,650.7 3555,650.7 3555,641.4 3555,641.3 3555,600.3 3555,600.1 3555,587.9 3555,587.8 3491.5,587.8 3477.5,587.8 
		3477.5,587.9 3477.5,600.1 3477.5,600.3 3477.5,610.9 3474.2,610.9 3474.2,598 3474.2,597.8 3469.1,597.8 3469.1,598 3469.1,610.9 
		3465.5,610.9 3465.5,611 3465.5,650.7 3464.3,650.7 3459.3,650.7 3459.3,650.9 3459.3,653 3459.3,653.2 3459.3,677.4 3459.3,677.5 
		3459.3,679.7 3459.3,679.8 3459.3,698.8 3388.4,698.8 3385.3,698.8 3385.3,708.2 3385.3,720.5 3385.3,720.5 3385.3,724.4 
		3385.3,732.3 3385.3,732.3 3385.3,736.2 3385.3,750 3376.9,750 3376.9,743 3376.9,743 3376.9,738.8 3376.9,738.8 3376.9,723.2 
		3376.9,723.2 3376.9,719 3376.9,719 3376.9,698.8 3376.9,698.8 3376.9,693.3 3376.9,693.3 3371,693.3 3371,664 3371,664 
		3371,662.4 3371,662.4 3346.5,662.4 3346.5,656.1 3346.5,656.1 3346.5,656.1 3346.5,656.1 3346.5,632.4 3346.5,632.4 3346.5,624.8 
		3346.5,624.8 3339.9,624.8 3339.9,622.6 3339.9,611.6 3335.3,611.6 3226.2,611.6 3221.7,611.6 3221.7,622.6 3221.7,637 3221.7,637 
		3221.7,641.6 3221.7,650.9 3221.7,650.9 3221.7,655.5 3221.7,671.7 3209.1,671.7 3209.1,671.7 3209.1,676.3 3209.1,691.3 
		3209.1,691.3 3209.1,695.9 3209.1,695.9 3209.1,705.9 3209.1,723 3209.1,726.9 3209.1,736.9 3209.1,740.8 3209.1,766.5 
		3209.1,808.1 3209.1,811.1 3209.1,821.9 3209.1,824.9 3209.1,836.3 3209.1,839 3209.1,845.5 3209.1,848.3 3209.1,889.4 
		3182.9,889.4 3182.9,869.6 3182.9,869.5 3182.9,867.4 3182.9,867.2 3182.9,841.4 3182.9,841.3 3182.9,839.2 3182.9,839 
		3182.9,814.8 3182.9,814.6 3182.9,812.5 3182.9,812.3 3182.9,784.5 3182.9,784.4 3175.9,784.4 3175.9,776.3 3175.9,776.1 
		3170.5,776.1 3170.5,731.5 3170.5,731.3 3167.9,731.3 3167.9,731.5 3167.9,776.1 3166.9,776.1 3166.9,776.3 3166.9,784.4 
		3164.1,784.4 3164.1,784.5 3164.1,812.3 3162.7,812.3 3162.7,803 3162.7,802.9 3162.7,761.9 3162.7,761.7 3162.7,749.6 
		3162.7,749.4 3099.2,749.4 3085.2,749.4 3085.2,749.6 3085.2,761.7 3085.2,761.9 3085.2,772.5 3081.9,772.5 3081.9,759.6 
		3081.9,759.5 3076.8,759.5 3076.8,759.6 3076.8,772.5 3073.2,772.5 3073.2,772.6 3073.2,812.3 3071.9,812.3 3067,812.3 3067,812.5 
		3067,814.6 3067,814.8 3067,839 3067,839.2 3067,841.3 3067,841.4 3067,860.4 2996.1,860.4 2993,860.4 2993,869.9 2993,882.1 
		2993,882.1 2993,886 2993,890.3 2984.6,890.3 2984.6,884.8 2984.6,884.8 2984.6,880.6 2984.6,880.6 2984.6,860.5 2984.6,860.4 
		2984.6,854.9 2984.6,854.9 2978.7,854.9 2978.7,825.7 2978.7,825.6 2978.7,824 2978.7,824 2954.2,824 2954.2,817.7 2954.2,817.7 
		2954.2,817.7 2954.2,817.7 2954.2,794 2954.2,794 2954.2,794 2954.2,786.5 2954.2,786.4 2954.2,786.4 2947.6,786.4 2947.6,784.2 
		2947.6,773.2 2943,773.2 2833.9,773.2 2829.4,773.2 2829.4,784.2 2829.4,798.6 2829.4,798.6 2829.4,803.2 2829.4,812.5 
		2829.4,812.5 2829.4,817.1 2829.4,820.6 2819,820.6 2819,820.7 2819,833.3 2816.8,833.3 2816.8,833.3 2816.8,837.9 2816.8,852.9 
		2816.8,852.9 2816.8,857.6 2816.8,857.6 2816.8,860.8 2793,860.8 2793,730.3 2793,730 2793,726.5 2793,726.2 2793,726 2793,725.7 
		2786.3,725.7 2782.8,725.7 2782.8,655.4 2782.8,655.1 2782.8,654.9 2782.8,654.6 2775.3,654.6 2775.3,627.2 2775.3,627 
		2775.3,626.7 2767.8,626.7 2767.8,618.5 2767.8,618.2 2767.8,618 2767.8,617.7 2767.8,612.4 2767.8,612.1 2767.8,611.8 
		2767.8,611.6 2761.5,611.6 2749.7,611.6 2749.7,607.5 2749.7,607.2 2749.7,606.9 2749.7,606.6 2749.7,595.2 2749.7,594.9 
		2749.7,594.7 2749.7,594.4 2749.7,586 2749.7,585.7 2749.7,585.5 2749.7,585.2 2749.7,571.1 2749.7,570.8 2749.7,570.6 
		2749.7,570.3 2743.8,570.3 2727.7,570.3 2727.7,544.8 2727.7,544.2 2727.7,536.4 2727.7,535.9 2727.7,535.9 2727.7,535.6 
		2724.5,535.6 2678.8,535.6 2678.8,535.6 2678.8,535.6 2678.8,536.1 2678.8,544 2678.8,544.5 2678.8,544.5 2678.8,544.8 
		2678.8,570.3 2678.8,570.6 2678.8,570.8 2678.8,571.1 2678.8,577.2 2652.9,577.2 2652.9,577.8 2652.9,579.1 2652.9,579.6 
		2652.9,611.6 2652.9,611.6 2646.6,611.6 2646.6,611.8 2646.6,612.1 2646.6,612.4 2646.6,617.7 2646.6,618 2646.6,618.2 
		2646.6,618.5 2646.6,640 2646.6,640.3 2646.6,640.6 2646.6,640.8 2646.6,644.7 2646.6,645 2646.6,645.2 2646.6,645.5 2646.6,662 
		2646.6,662.3 2646.6,662.6 2646.6,662.8 2646.6,666.7 2646.6,667 2646.6,667.2 2646.6,667.5 2646.6,684 2646.6,684.3 2646.6,684.6 
		2646.6,684.8 2646.6,688.7 2646.6,689 2646.6,689.3 2646.6,689.5 2646.6,706 2646.6,706.3 2646.6,706.6 2646.6,706.8 2646.6,710.7 
		2646.6,711 2646.6,711.3 2646.6,711.5 2646.6,728 2646.6,728.3 2646.6,728.6 2646.6,728.8 2646.6,732.7 2646.6,733 2646.6,733.3 
		2646.6,733.5 2646.6,750 2646.6,750.3 2646.6,750.6 2646.6,750.9 2646.6,754.6 2646.6,754.9 2646.6,755.2 2646.6,755.4 
		2646.6,771.9 2646.6,772.2 2646.6,772.5 2646.6,772.8 2646.6,776.5 2646.6,776.8 2646.6,777.1 2646.6,777.4 2646.6,793.8 
		2646.6,794.1 2646.6,794.4 2646.6,794.7 2646.6,798.4 2646.6,798.7 2646.6,799 2646.6,799.3 2646.6,815.8 2646.6,816 2646.6,816.3 
		2646.6,816.6 2646.6,820.4 2646.6,820.6 2646.6,837.7 2646.6,838 2646.6,842.3 2646.6,842.5 2646.6,859.6 2646.6,859.9 
		2646.6,864.2 2646.6,864.5 2646.6,877.1 2586.2,877.1 2586.2,881.1 2586.2,884.1 2586.2,899.1 2573.6,899.1 2573.6,878.6 
		2573.6,873.5 2575.7,873.5 2575.7,868.7 2551.1,868.7 2551.1,858.7 2551.1,857.3 2551.1,853 2551.1,851.7 2551.1,830.4 2551.1,829 
		2551.1,824.7 2551.1,823.4 2551.1,800.1 2551.1,798.7 2551.1,794.4 2551.1,793 2551.1,774.5 2551.1,771.8 2551.1,770.4 2551.1,766 
		2551.1,764.7 2551.1,742.1 2551.1,740.7 2551.1,736.4 2551.1,735 2551.1,713.8 2551.1,712.4 2551.1,708.1 2551.1,706.7 
		2551.1,684.2 2551.1,681.6 2551.1,673.9 2551.1,671.5 2551.1,671.4 2494.6,671.4 2475.2,671.4 2475.2,666.1 2475.2,599.4 
		2452,599.4 2452,592.1 2443.4,592.1 2443.4,580.9 2441.7,580.9 2441.7,592.1 2439,592.1 2439,599.4 2432.5,599.4 2425.4,599.4 
		2415.8,599.4 2409.9,599.4 2393.6,599.4 2393.6,561.6 2391.7,561.6 2391.7,599.4 2378.7,599.4 2378.7,666.1 2378.7,671.4 
		2329.6,671.4 2329.6,647.2 2329.6,647 2329.6,644.4 2329.6,644.3 2329.6,612.8 2329.6,612.6 2329.6,610 2329.6,609.8 2329.6,580.3 
		2329.6,580.1 2329.6,577.5 2329.6,577.3 2329.6,543.3 2329.6,543.2 2321.1,543.2 2321.1,533.3 2321.1,533.1 2314.4,533.1 
		2314.4,478.6 2314.4,478.4 2311.3,478.4 2311.3,478.6 2311.3,533.1 2310.1,533.1 2310.1,533.3 2310.1,543.2 2306.7,543.2 
		2306.7,543.3 2306.7,577.3 2304.9,577.3 2304.9,565.9 2304.9,565.8 2304.9,515.7 2304.9,515.5 2304.9,500.7 2304.9,500.5 
		2227.4,500.5 2210.3,500.5 2210.3,500.7 2210.3,515.5 2210.3,515.7 2210.3,528.6 2206.3,528.6 2206.3,512.9 2206.3,512.7 
		2200.1,512.7 2200.1,512.9 2200.1,528.6 2195.7,528.6 2195.7,528.8 2195.7,577.3 2194.2,577.3 2188.1,577.3 2188.1,577.5 
		2188.1,580.1 2188.1,580.3 2188.1,609.8 2188.1,610 2188.1,612.6 2188.1,612.8 2188.1,636 2101.6,636 2097.8,636 2097.8,647.5 
		2097.8,662.4 2097.8,662.4 2097.8,667.2 2097.8,676.8 2097.8,676.8 2097.8,681.6 2097.8,698.5 2087.6,698.5 2087.6,690 2087.6,690 
		2087.6,684.8 2087.6,684.8 2087.6,665.8 2087.6,665.8 2087.6,660.6 2087.6,660.6 2087.6,636 2087.6,636 2087.6,629.3 2087.6,629.2 
		2080.4,629.2 2080.4,593.6 2080.4,593.5 2080.4,591.5 2080.4,591.5 2050.5,591.5 2050.5,583.9 2050.5,583.9 2050.5,583.8 
		2050.5,583.8 2050.5,554.9 2050.5,554.9 2050.5,554.9 2050.5,545.7 2050.5,545.7 2050.5,545.7 1998,545.7 1994.3,545.7 
		1994.3,545.7 1994.3,545.7 1994.3,554.9 1994.3,554.9 1994.3,583.8 1975.8,583.8 1969,583.8 1969,583.8 1969,583.9 1969,583.9 
		1969,600.3 1969,600.3 1969,610.4 1969,610.4 1969,610.4 1969,623.9 1969,623.9 1969,623.9 1969,629.2 1955.4,629.2 1948.1,629.2 
		1948.1,629.3 1948.1,636 1948.1,636 1948.1,645.9 1939.5,645.9 1939.5,645.9 1939.5,645.9 1939.5,645.9 1939.5,676.6 1930.9,676.6 
		1930.9,676.6 1930.9,754.8 1926.9,754.8 1920,754.8 1920,896.4 1865.5,896.4 1865.5,899.1 1855.1,899.1 1855.1,897.6 1855.1,893.4 
		1856.9,893.4 1856.9,889.5 1836.6,889.5 1836.6,881.3 1836.6,880.1 1836.6,876.6 1836.6,875.5 1836.6,858.1 1836.6,856.9 
		1836.6,853.4 1836.6,852.3 1836.6,833.3 1836.6,832.1 1836.6,828.6 1836.6,827.5 1836.6,812.3 1836.6,810.1 1836.6,808.9 
		1836.6,805.4 1836.6,804.3 1836.6,785.8 1836.6,784.6 1836.6,781 1836.6,780 1836.6,762.5 1836.6,761.4 1836.6,757.8 1836.6,756.8 
		1836.6,738.3 1836.6,736.1 1836.6,729.9 1836.6,727.9 1836.6,727.8 1790.3,727.8 1774.5,727.8 1774.5,723.5 1774.5,668.8 
		1755.5,668.8 1755.5,662.9 1748.4,662.9 1748.4,653.6 1747.1,653.6 1747.1,662.9 1744.8,662.9 1744.8,668.8 1739.5,668.8 
		1733.7,668.8 1725.8,668.8 1721,668.8 1707.6,668.8 1707.6,637.9 1706,637.9 1706,668.8 1695.5,668.8 1695.5,723.5 1695.5,727.8 
		1655.2,727.8 1655.2,708 1655.2,707.9 1655.2,705.7 1655.2,705.6 1655.2,679.8 1655.2,679.7 1655.2,677.5 1655.2,677.4 
		1655.2,653.2 1655.2,653 1655.2,650.9 1655.2,650.7 1655.2,622.9 1655.2,622.7 1648.2,622.7 1648.2,614.7 1648.2,614.5 
		1642.8,614.5 1642.8,569.9 1642.8,569.7 1640.2,569.7 1640.2,569.9 1640.2,614.5 1639.2,614.5 1639.2,614.7 1639.2,622.7 
		1636.4,622.7 1636.4,622.9 1636.4,650.7 1635,650.7 1635,641.4 1635,641.3 1635,600.3 1635,600.1 1635,587.9 1635,587.8 
		1571.5,587.8 1557.5,587.8 1557.5,587.9 1557.5,600.1 1557.5,600.3 1557.5,610.9 1554.2,610.9 1554.2,598 1554.2,597.8 
		1549.1,597.8 1549.1,598 1549.1,610.9 1545.5,610.9 1545.5,611 1545.5,650.7 1544.3,650.7 1539.3,650.7 1539.3,650.9 1539.3,653 
		1539.3,653.2 1539.3,677.4 1539.3,677.5 1539.3,679.7 1539.3,679.8 1539.3,698.8 1468.4,698.8 1465.3,698.8 1465.3,708.2 
		1465.3,720.5 1465.3,720.5 1465.3,724.4 1465.3,732.3 1465.3,732.3 1465.3,736.2 1465.3,750 1456.9,750 1456.9,743 1456.9,743 
		1456.9,738.8 1456.9,738.8 1456.9,723.2 1456.9,723.2 1456.9,719 1456.9,719 1456.9,698.8 1456.9,698.8 1456.9,693.3 1456.9,693.3 
		1451,693.3 1451,664 1451,664 1451,662.4 1451,662.4 1426.5,662.4 1426.5,656.1 1426.5,656.1 1426.5,656.1 1426.5,656.1 
		1426.5,632.4 1426.5,632.4 1426.5,624.8 1426.5,624.8 1419.9,624.8 1419.9,622.6 1419.9,611.6 1415.3,611.6 1306.2,611.6 
		1301.7,611.6 1301.7,622.6 1301.7,637 1301.7,637 1301.7,641.6 1301.7,650.9 1301.7,650.9 1301.7,655.5 1301.7,671.7 1289.1,671.7 
		1289.1,671.7 1289.1,676.3 1289.1,691.3 1289.1,691.3 1289.1,695.9 1289.1,695.9 1289.1,705.9 1289.1,723 1289.1,726.9 
		1289.1,736.9 1289.1,740.8 1289.1,766.5 1289.1,808.1 1289.1,811.1 1289.1,821.9 1289.1,824.9 1289.1,836.3 1289.1,839 
		1289.1,845.5 1289.1,848.3 1289.1,889.4 1262.9,889.4 1262.9,869.6 1262.9,869.5 1262.9,867.4 1262.9,867.2 1262.9,841.4 
		1262.9,841.3 1262.9,839.2 1262.9,839 1262.9,814.8 1262.9,814.6 1262.9,812.5 1262.9,812.3 1262.9,784.5 1262.9,784.4 
		1255.9,784.4 1255.9,776.3 1255.9,776.1 1250.5,776.1 1250.5,731.5 1250.5,731.3 1247.9,731.3 1247.9,731.5 1247.9,776.1 
		1246.9,776.1 1246.9,776.3 1246.9,784.4 1244.1,784.4 1244.1,784.5 1244.1,812.3 1242.7,812.3 1242.7,803 1242.7,802.9 
		1242.7,761.9 1242.7,761.7 1242.7,749.6 1242.7,749.4 1179.2,749.4 1165.2,749.4 1165.2,749.6 1165.2,761.7 1165.2,761.9 
		1165.2,772.5 1161.9,772.5 1161.9,759.6 1161.9,759.5 1156.8,759.5 1156.8,759.6 1156.8,772.5 1153.2,772.5 1153.2,772.6 
		1153.2,812.3 1151.9,812.3 1147,812.3 1147,812.5 1147,814.6 1147,814.8 1147,839 1147,839.2 1147,841.3 1147,841.4 1147,860.4 
		1076.1,860.4 1073,860.4 1073,869.9 1073,882.1 1073,882.1 1073,886 1073,890.3 1064.6,890.3 1064.6,884.8 1064.6,884.8 
		1064.6,880.6 1064.6,880.6 1064.6,860.5 1064.6,860.4 1064.6,854.9 1064.6,854.9 1058.7,854.9 1058.7,825.7 1058.7,825.6 
		1058.7,824 1058.7,824 1034.2,824 1034.2,817.7 1034.2,817.7 1034.2,817.7 1034.2,817.7 1034.2,794 1034.2,794 1034.2,794 
		1034.2,786.5 1034.2,786.4 1034.2,786.4 1027.6,786.4 1027.6,784.2 1027.6,773.2 1023,773.2 913.9,773.2 909.4,773.2 909.4,784.2 
		909.4,798.6 909.4,798.6 909.4,803.2 909.4,812.5 909.4,812.5 909.4,817.1 909.4,820.6 899,820.6 899,820.7 899,833.3 896.8,833.3 
		896.8,833.3 896.8,837.9 896.8,852.9 896.8,852.9 896.8,857.6 896.8,857.6 896.8,860.8 873,860.8 873,730.3 873,730 873,726.5 
		873,726.2 873,726 873,725.7 866.3,725.7 862.8,725.7 862.8,655.4 862.8,655.1 862.8,654.9 862.8,654.6 855.3,654.6 855.3,627.2 
		855.3,627 855.3,626.7 847.8,626.7 847.8,618.5 847.8,618.2 847.8,618 847.8,617.7 847.8,612.4 847.8,612.1 847.8,611.8 
		847.8,611.6 841.5,611.6 829.7,611.6 829.7,607.5 829.7,607.2 829.7,606.9 829.7,606.6 829.7,595.2 829.7,594.9 829.7,594.7 
		829.7,594.4 829.7,586 829.7,585.7 829.7,585.5 829.7,585.2 829.7,571.1 829.7,570.8 829.7,570.6 829.7,570.3 823.8,570.3 
		807.7,570.3 807.7,544.8 807.7,544.2 807.7,536.4 807.7,535.9 807.7,535.9 807.7,535.6 804.5,535.6 758.8,535.6 758.8,535.6 
		758.8,535.6 758.8,536.1 758.8,544 758.8,544.5 758.8,544.5 758.8,544.8 758.8,570.3 758.8,570.6 758.8,570.8 758.8,571.1 
		758.8,577.2 732.9,577.2 732.9,577.8 732.9,579.1 732.9,579.6 732.9,611.6 732.9,611.6 726.6,611.6 726.6,611.8 726.6,612.1 
		726.6,612.4 726.6,617.7 726.6,618 726.6,618.2 726.6,618.5 726.6,640 726.6,640.3 726.6,640.6 726.6,640.8 726.6,644.7 726.6,645 
		726.6,645.2 726.6,645.5 726.6,662 726.6,662.3 726.6,662.6 726.6,662.8 726.6,666.7 726.6,667 726.6,667.2 726.6,667.5 726.6,684 
		726.6,684.3 726.6,684.6 726.6,684.8 726.6,688.7 726.6,689 726.6,689.3 726.6,689.5 726.6,706 726.6,706.3 726.6,706.6 
		726.6,706.8 726.6,710.7 726.6,711 726.6,711.3 726.6,711.5 726.6,728 726.6,728.3 726.6,728.6 726.6,728.8 726.6,732.7 726.6,733 
		726.6,733.3 726.6,733.5 726.6,750 726.6,750.3 726.6,750.6 726.6,750.9 726.6,754.6 726.6,754.9 726.6,755.2 726.6,755.4 
		726.6,771.9 726.6,772.2 726.6,772.5 726.6,772.8 726.6,776.5 726.6,776.8 726.6,777.1 726.6,777.4 726.6,793.8 726.6,794.1 
		726.6,794.4 726.6,794.7 726.6,798.4 726.6,798.7 726.6,799 726.6,799.3 726.6,815.8 726.6,816 726.6,816.3 726.6,816.6 
		726.6,820.4 726.6,820.6 726.6,837.7 726.6,838 726.6,842.3 726.6,842.5 726.6,859.6 726.6,859.9 726.6,864.2 726.6,864.5 
		726.6,877.1 666.2,877.1 666.2,881.1 666.2,884.1 666.2,899.1 653.6,899.1 653.6,878.6 653.6,873.5 655.7,873.5 655.7,868.7 
		631.1,868.7 631.1,858.7 631.1,857.3 631.1,853 631.1,851.7 631.1,830.4 631.1,829 631.1,824.7 631.1,823.4 631.1,800.1 
		631.1,798.7 631.1,794.4 631.1,793 631.1,774.5 631.1,771.8 631.1,770.4 631.1,766 631.1,764.7 631.1,742.1 631.1,740.7 
		631.1,736.4 631.1,735 631.1,713.8 631.1,712.4 631.1,708.1 631.1,706.7 631.1,684.2 631.1,681.6 631.1,673.9 631.1,671.5 
		631.1,671.4 574.6,671.4 555.2,671.4 555.2,666.1 555.2,599.4 532,599.4 532,592.1 523.4,592.1 523.4,580.9 521.7,580.9 
		521.7,592.1 519,592.1 519,599.4 512.5,599.4 505.4,599.4 495.8,599.4 489.9,599.4 473.6,599.4 473.6,561.6 471.7,561.6 
		471.7,599.4 458.7,599.4 458.7,666.1 458.7,671.4 409.6,671.4 409.6,647.2 409.6,647 409.6,644.4 409.6,644.3 409.6,612.8 
		409.6,612.6 409.6,610 409.6,609.8 409.6,580.3 409.6,580.1 409.6,577.5 409.6,577.3 409.6,543.3 409.6,543.2 401.1,543.2 
		401.1,533.3 401.1,533.1 394.4,533.1 394.4,478.6 394.4,478.4 391.3,478.4 391.3,478.6 391.3,533.1 390.1,533.1 390.1,533.3 
		390.1,543.2 386.7,543.2 386.7,543.3 386.7,577.3 384.9,577.3 384.9,565.9 384.9,565.8 384.9,515.7 384.9,515.5 384.9,500.7 
		384.9,500.5 307.4,500.5 290.3,500.5 290.3,500.7 290.3,515.5 290.3,515.7 290.3,528.6 286.3,528.6 286.3,512.9 286.3,512.7 
		280.1,512.7 280.1,512.9 280.1,528.6 275.7,528.6 275.7,528.8 275.7,577.3 274.2,577.3 268.1,577.3 268.1,577.5 268.1,580.1 
		268.1,580.3 268.1,609.8 268.1,610 268.1,612.6 268.1,612.8 268.1,636 181.6,636 177.8,636 177.8,647.5 177.8,662.4 177.8,662.4 
		177.8,667.2 177.8,676.8 177.8,676.8 177.8,681.6 177.8,698.5 167.6,698.5 167.6,690 167.6,690 167.6,684.8 167.6,684.8 
		167.6,665.8 167.6,665.8 167.6,660.6 167.6,660.6 167.6,636 167.6,636 167.6,629.3 167.6,629.2 160.4,629.2 160.4,593.6 
		160.4,593.5 160.4,591.5 160.4,591.5 130.5,591.5 130.5,583.9 130.5,583.9 130.5,583.8 130.5,583.8 130.5,554.9 130.5,554.9 
		130.5,554.9 130.5,545.7 130.5,545.7 130.5,545.7 78,545.7 74.3,545.7 74.3,545.7 74.3,545.7 74.3,554.9 74.3,554.9 74.3,583.8 
		55.8,583.8 49,583.8 49,583.8 49,583.9 49,583.9 49,600.3 49,600.3 49,610.4 49,610.4 49,610.4 49,623.9 49,623.9 49,623.9 
		49,629.2 35.4,629.2 28.1,629.2 28.1,629.3 28.1,636 28.1,636 28.1,645.9 19.5,645.9 19.5,645.9 19.5,645.9 19.5,645.9 19.5,676.6 
		10.9,676.6 10.9,676.6 10.9,754.8 6.9,754.8 0,754.8 0,1080 1920,1080 1920,1080 3840,1080 3840,896.4 	"/>
</g>
</svg>
