<?xml version="1.0" encoding="utf-8"?>
<!-- Generator: Adobe Illustrator 24.0.1, SVG Export Plug-In . SVG Version: 6.00 Build 0)  -->
<svg version="1.1" id="Camada_1" xmlns="http://www.w3.org/2000/svg" xmlns:xlink="http://www.w3.org/1999/xlink" x="0px" y="0px"
	 viewBox="0 0 960 245.5" style="enable-background:new 0 0 960 245.5;" xml:space="preserve">
<style type="text/css">
	.st0{fill:#21561d;}
	.st1{fill:#12340f;}
</style>
<g>
	<path class="st0" d="M960,155.9v-52.5V54.9v0H960h-0.7h-0.1h-0.4h-0.1h-0.4v-6.6v0h-0.1h-0.7h-0.1H957h-0.1h-0.7h-0.1h-0.3v-0.2v0
		h0v-3.5v0V44v0h-0.1H955h-0.1h-4v-8.2v0v-0.7v0h-0.1h-0.7h-0.1h-0.1h-0.1h-0.7h-0.1h0H949h-0.7h-0.1h-2.6v-3.9v0v-0.7v0h-0.1H945
		h-0.1h-0.1h-0.1h-0.6h-0.1h-0.6h-0.1h-0.7h-0.1v0v0.7v0v2.6h-0.5v-5.5v0h-0.1h-0.4h-0.1h-0.3h-0.1h-0.4h-0.1h-0.1h-0.1H940h-0.1v0
		v6.8h-0.7h-0.1h0h-0.1h-0.7h-0.1h-0.1h0h0h0h-0.7h0h0h0v0V44h-5h-0.1h-0.7h-0.1v0v0.6v0v3.5v0v1.5v0v0.3v0v1.2H930h-0.1h-0.7h-0.1
		v0v0.6v0v0.4h-0.6h-0.1h-0.7h-0.1h0h-0.1h-0.7h-0.1v0h0v1.1v2.5v1.5v2.5v1.5v2.5v1.5v2.5v1.5v2.5v1.5v2.5v1.5v2.5V81v2.5V85v2.5V89
		v2.5v1.5v2.5v1.5v2.5v1.5v2.5v1.5v2.5v1.5v2.5v1.5v2.5v1.5v2.5v1.5v2.5v1.5v2.5v1.5v2.5v1.5v2.5v1.5v2.5v1.5v2.5v1.5v2.5l0,0v1.5
		v2.5v1.5v2.5v0.9h-2.3v-3.3V150v-4.6v-2.6v-4.2v0V136v-5v-2.6V123v-2.6v0v-4.8v-2.6V108v-2.6v-5.7v-2.6v0v-6.3v0V89v0v-0.7v-7.3v0
		v-0.4v-1.8v0v-1v0h0h-0.1h0h-0.7h0h0h-0.1h0h0h-4.4v-0.9v-1.3V75h0v0h-0.1h-0.7h-0.1h-3.4v-3h0h-0.1h0H914h0H914h0h-0.8V58.9h0h0
		H913h0h0h-0.7h0h0h-0.1h0h0h-0.1h0h-0.1h0h-0.7h0h-0.1h0V72h-1.7V59.6h0h-0.1h0h-0.7h0h0h0h0h0h0h0h0h0h0h0H908l0,0h0h-0.1h0h0h0
		V72h-1.2V55.2h0v0h-0.1h-0.4h-0.1v0V72h-0.3V55.2h0v0h-0.1h-0.4h-0.1v0V72h-0.8v-3v0h0h-0.1h0h-0.7h0h-0.1h0h-1.7v-3.4h-0.1H901
		h-0.1h-2.4h-0.1h-0.7h-0.1v0.9h-0.6v-0.9H897h-0.6v-1.5h1.5h0.1h0.7h0.1v-2.1h-0.1h-0.7h-0.1h-9.2h-0.1h-0.1v-8.6h-0.1h-0.7h-0.1
		h-1.4v-1.8V51h-0.1h-0.7h-0.1H884v-7.4v-1.3h-0.1h-0.7h-0.1h0V36v-1.1H883h-0.7h0v-6.3v-1.1h-0.1H882v-6.1v-1.1v-5.5V8.1V6.7V0
		h-0.1h-0.7h0h-0.1h0h-0.7h-0.1v6.7v1.4v6.7v5.5v1.1v6.1h-0.2H880v1.1v6.3h-0.5h-0.1V36v6.3h0h-0.1h-0.7h-0.1v1.3V51h-1h-0.1h-0.7
		h-0.1v0.6v1.8h-1.1h-0.1h-0.7h-0.1v8.6h-0.1h-0.1h-9.2h-0.1h-0.7h-0.1v2.1h0.1h0.7h0.1h1.5v1.5h-0.4h-0.1v0.9h-0.6v-0.9h-0.1h-0.7
		h-0.1h-2.4h-0.1h-0.7h-0.1v14.6h0.1h0.7h0.1h2.4h0.1h0.7h0.1v-0.8h0.6v39.1h-2.5h-0.1h-0.6v-0.7v-1.2h0.3h0.1v-1.1h-0.1h-0.7h-0.1
		h-5.4v-5.6v0v-1v0V97v0v-1v0V85.3v0h-0.1h-0.7h-0.1h-1.9V71.1v0v-5v0h-0.1h-0.7h-0.1h-1.3v-3.5v0h-0.1h-0.7h-0.1v-3v0h-0.1h-0.7
		h-0.1h-0.1v-2.3v0h-0.1h-0.7h0v-1.8h0v0h-0.1h-0.7h-0.1h-0.5c0,0,0-0.1,0-0.1c0,0,0,0,0,0c0-0.1,0-0.2-0.1-0.2v-6.2v0V23v0H848
		h-0.7h-0.1h-0.1H847h-0.7h-0.1v0v25.7h-1.7h-0.1h-0.7h-0.1v0v6.6H843h-0.1h-0.7h-0.1v0v1.8h-0.1H842h-0.7h-0.1v0v2.3h0h-0.7h-0.1v0
		v3h-0.2h-0.1h-0.7h-0.1v0V66H838h-0.1h-0.7h-0.1v0v5v0v14.2h-1h-0.1h-0.7h-0.1v0V96v0v1v0v1.9h-2.2v-5.7v0h-0.2h-0.4h-0.2h-0.1H832
		h-0.3h-0.2h-0.1h-0.2H831h-0.2v0v5.7h-0.1h-0.7h-0.1h-12.3h-0.1h-0.6v-6.6v0h-0.2h-0.1h-0.2v0v8.3h-0.3v-8.3v0h-0.2h-0.1h-0.2v0
		v8.3h-3h-0.2h-0.6h-0.2v0v0.8v0v1.5h-0.4h-0.2h-0.6h-0.2v0h0v0.7v1.5v5.7v1.1v6.1v1.1l0,0v4.8h-2.5V61.1v0h-0.8h-2.9h-0.8h-0.7
		v-8.2v0V52v0V36.3v0l-0.8,0.2v-0.2v0l-12.3,3.2h-14.7V35h0.5v0v-5.3v0h-0.5v-3.7v0h-0.8h-1.7V17v0h-0.7v0v8.8h-0.1V17v0h-0.7v0v8.8
		v0h0v3.7h-0.8v0v5.3v0h0.8v4.5h-3.2l-1.8-2.6v0V38l-0.8-1.1v0v2l-10.4-2.7v0v0.2l-0.8-0.2v0v3.1v0v1.2v0v5.9v0v1.1v0v4v0v1.2v0
		v33.1v31.7h-0.4v4.4H753h-0.8v-5.1v-3.3v-5.1h0v-0.1h-1.1v5.1h0v-5.1h0v-0.1h-1.1v5.1h-3.4v-6.4V103v-3.9h0V99h-1.1v3.9h0v-3.9h0
		V99h-1.1v3.9h-8.2v-3.9h0V99h-0.3v-3.5v0v-0.3v-1.6v0v-0.9v0h0h0h-4.8v-0.8v-1.2v-0.5h0v0h-3.9v-2.7h0h-1.5V75.7h0h0h-0.9h0v11.7
		h-2.3V76.4h0h-0.7l0,0h0l0,0v11.1h-1.9V72.4h0v0h-0.4v0v15.1h-1.5v-2.7v0h0h-7.3h0v2.7H709h0v0V89c0,0.4-0.1,0.8-0.1,1.1h-3.9v0
		v0.5v0v1.2v0.8h-4.9h0v1.3c0,0,0,0,0,0.1c-0.1,3.1,0,6.1,0,9.2v0.4v0.8v5.7v0v2.3v0l0,0c0,2.3,0,4.6,0,6.9v0.5v4.6v2.3v4.3v0v2.3
		v4.9v2.3v4.5v2.3v0v3.8v0.7h-1.4h-1.2h-0.8v-1.6v-0.8v0v-3.5v0v-1v0v-1.8v-4.3v-0.8v0v-4.2v0v-1.2v0v-3.7v0v-1.2v0h-1.2h-1.4v-19.3
		h0V49h0h-1h0h-0.3v-0.9h0h-1h0h-1.8l0,0h-1l0,0h-5.5h-1h-0.9h-1h-4.7v-2.7V44v0h0h-1h0h-16.7h0h-1l0,0v0v1.4v2.7h-5.3h-1v1.7v0v7.5
		h-0.1v-9.5v0h-0.5v0v9.5h-0.2h-0.2v-9.5v0h-0.5v0v9.5h-0.1v-3v0v-2.6v0h-1h-8.5v-1.1v0v0h-0.5v-2.1h0.5v0v-0.6v0v0v-1.3v0h-0.5
		v-2.3h0.5v0v-0.6v0v-1.3v0h-0.5v0h-0.8V30.3v0h-1h-1v-5v0v0v-2.7v0h-1h-26.7l0,0h-1l0,0v0v2.7v0v4.1h0h-0.8h-0.2h-0.8v0v12.7h-0.3
		v0v1.6v0v19.2h-2h-0.9h0h-0.9h0v-0.9h0.9h1v0v0v0v-2.8v0v0h-1h-11.6V54v0v-2v0h-1H581h-1v0v2v0v5.4h-11.6h-1v0v0v2.8v0v0v0h1h0.8
		v0.9H561h-1v0v1.6v0v41.8v0v6H544h-0.6v2v6.3v0.9H540h-0.6v3.4H538v-5.2v-1.5h0v0h-0.6h-0.2h-0.6v1.5h-11.1v-1.5h0v0h-0.4h0h-0.2
		h-0.4h0h-0.1h-0.6v1.5v8.5v0.7v4.5v0.7v0.2v1.7v0.7v4.5v0.7v0.2v1.6v0.7v0.3h-1.9v-2H520h-0.7v-4.8v-1.3v0h-1.7h-2v-3.9v0h-0.2v3.9
		h-1v-6.9h-0.6v3h-0.1v3.9h-0.9h-0.2v-6.9h-0.6v6.9h-1v0h0v1.3v1h-1.4H508v0v3.8h-0.9V142v-3.9v-2v-4.4v-2v-4.9v-1.4v-0.6v-5.7V117
		v-1.4v-0.8h-1.7h-1.7v-0.7v0v-1v-0.4h-1.7h-1.1v-2.3h-1.1v-10.1H499h0v10.1H498v-10.1h-0.6h0v0.6h-0.5v9.5h-1.2v-9.5h0h-0.2v-3.4h0
		h-0.3v3.4h0v9.5H494v-2.3h-0.3V97.4h0h-0.3v10.6h-1.1h-3.6h0H487h0v2.3h-0.9v2.3H485h-1.7v0.4v1v0v0.7h-1.9H480v-11.4V54.9v0H480
		h-0.7h-0.1h-0.4h-0.1h-0.4v-6.6v0h-0.1h-0.7h-0.1H477h-0.1h-0.7h-0.1h-0.3v-0.2v0h0v-3.5v0V44v0h-0.1H475h-0.1h-4v-8.2v0v-0.7v0
		h-0.1h-0.7h-0.1h-0.1h-0.1h-0.7h-0.1h0H469h-0.7h-0.1h-2.6v-3.9v0v-0.7v0h-0.1H465h-0.1h-0.1h-0.1h-0.6h-0.1h-0.6h-0.1h-0.7h-0.1v0
		v0.7v0v2.6h-0.5v-5.5v0h-0.1h-0.4h-0.1h-0.3h-0.1H461h-0.1h-0.1h-0.1H460H460v0v6.8h-0.7h-0.1h0h-0.1h-0.7h-0.1h-0.1h0h0h0h-0.7h0
		h0h0v0V44h-5h-0.1h-0.7h-0.1v0v0.6v0v3.5v0v1.5v0v0.3v0v1.2H450H450h-0.7h-0.1v0v0.6v0v0.4h-0.6h-0.1h-0.7h-0.1h0h-0.1h-0.7h-0.1v0
		h0v1.1v2.5v1.5v2.5v1.5v2.5v1.5v2.5v1.5v2.5v1.5v2.5v1.5v2.5V81v2.5V85v2.5V89v2.5v1.5v2.5v1.5v2.5v1.5v2.5v1.5v2.5v1.5v2.5v1.5
		v2.5v1.5v2.5v1.5v2.5v1.5v2.5v1.5v2.5v1.5v2.5v1.5v2.5v1.5v2.5v1.5v2.5l0,0v1.5v2.5v1.5v2.5v0.9h-2.3v-3.3V150v-4.6v-2.6v-4.2v0
		V136v-5v-2.6V123v-2.6v0v-4.8v-2.6V108v-2.6v-5.7v-2.6v0v-6.3v0V89v0v-0.7v-7.3v0v-0.4v-1.8v0v-1v0h0h-0.1h0h-0.7h0h0h-0.1h0h0
		h-4.4v-0.9v-1.3V75h0v0h-0.1h-0.7h-0.1h-3.4v-3h0h-0.1h0h-0.7h0H434h0h-0.8V58.9h0h0h-0.1h0h0h-0.7h0h0h-0.1h0h0h-0.1h0h-0.1h0
		h-0.7h0h-0.1h0V72h-1.7V59.6h0h-0.1h0h-0.7h0h0h0h0h0h0h0h0h0h0h0H428h0h0H428h0h0l0,0V72h-1.2V55.2h0v0h-0.1h-0.4h-0.1v0V72h-0.3
		V55.2h0v0h-0.1h-0.4h-0.1v0V72h-0.8v-3v0h0h-0.1h0h-0.7h0h-0.1h0h-1.7v-3.4h-0.1h-0.7H421h-2.4h-0.1h-0.7h-0.1v0.9h-0.6v-0.9h-0.1
		h-0.6v-1.5h1.5h0.1h0.7h0.1v-2.1h-0.1H418h-0.1h-9.2h-0.1h-0.1v-8.6h-0.1h-0.7h-0.1h-1.4v-1.8V51h-0.1h-0.7h-0.1H404v-7.4v-1.3
		h-0.1h-0.7h-0.1h0V36v-1.1h-0.1h-0.7h0v-6.3v-1.1h-0.1H402v-6.1v-1.1v-5.5V8.1V6.7V0H402h-0.7h0h-0.1h0h-0.7h-0.1v6.7v1.4v6.7v5.5
		v1.1v6.1h-0.2h-0.1v1.1v6.3h-0.5h-0.1V36v6.3h0h-0.1h-0.7h-0.1v1.3V51h-1h-0.1h-0.7h-0.1v0.6v1.8h-1.1h-0.1h-0.7h-0.1v8.6h-0.1
		h-0.1h-9.2h-0.1h-0.7h-0.1v2.1h0.1h0.7h0.1h1.5v1.5h-0.4h-0.1v0.9h-0.6v-0.9h-0.1H385h-0.1h-2.4h-0.1h-0.7h-0.1v14.6h0.1h0.7h0.1
		h2.4h0.1h0.7h0.1v-0.8h0.6v39.1H384h-0.1h-0.6v-0.7v-1.2h0.3h0.1v-1.1h-0.1h-0.7h-0.1h-5.4v-5.6v0v-1v0V97v0v-1v0V85.3v0h-0.1h-0.7
		h-0.1h-1.9V71.1v0v-5v0h-0.1h-0.7h-0.1h-1.3v-3.5v0h-0.1h-0.7h-0.1v-3v0h-0.1h-0.7h-0.1h-0.1v-2.3v0h-0.1h-0.7h0v-1.8h0v0h-0.1
		h-0.7h-0.1h-0.5c0,0,0-0.1,0-0.1c0,0,0,0,0,0c0-0.1,0-0.2-0.1-0.2v-6.2v0V23v0h-0.1h-0.7h-0.1h-0.1h-0.1h-0.7h-0.1v0v25.7h-1.7
		h-0.1h-0.7h-0.1v0v6.6h-0.6H363h-0.7h-0.1v0v1.8h-0.1h-0.1h-0.7h-0.1v0v2.3h0h-0.7h-0.1v0v3h-0.2h-0.1h-0.7h-0.1v0V66h-1.3H358
		h-0.7h-0.1v0v5v0v14.2h-1h-0.1h-0.7h-0.1v0V96v0v1v0v1.9h-2.2v-5.7v0h-0.2h-0.4h-0.2h-0.1h-0.2h-0.3h-0.2h-0.1h-0.2h-0.4h-0.2v0
		v5.7h-0.1h-0.7H350h-12.3h-0.1H337v-6.6v0h-0.2h-0.1h-0.2v0v8.3h-0.3v-8.3v0H336h-0.1h-0.2v0v8.3h-3h-0.2h-0.6h-0.2v0v0.8v0v1.5
		h-0.4H331h-0.6h-0.2v0h0v0.7v1.5v5.7v1.1v6.1v1.1l0,0v4.8h-2.5V61.1v0h-0.8H324h-0.8h-0.7v-8.2v0V52v0V36.3v0l-0.8,0.2v-0.2v0
		l-12.3,3.2h-14.7V35h0.5v0v-5.3v0h-0.5v-3.7v0h-0.8h-1.7V17v0h-0.7v0v8.8h-0.1V17v0h-0.7v0v8.8v0h0v3.7h-0.8v0v5.3v0h0.8v4.5h-3.2
		l-1.8-2.6v0V38l-0.8-1.1v0v2l-10.4-2.7v0v0.2l-0.8-0.2v0v3.1v0v1.2v0v5.9v0v1.1v0v4v0v1.2v0v33.1v31.7h-0.4v4.4h-0.2h-0.8v-5.1
		v-3.3v-5.1h0v-0.1h-1.1v5.1h0v-5.1h0v-0.1H270v5.1h-3.4v-6.4V103v-3.9h0V99h-1.1v3.9h0v-3.9h0V99h-1.1v3.9H256v-3.9h0V99h-0.3v-3.5
		v0v-0.3v-1.6v0v-0.9v0h0h0h-4.7v-0.8v-1.2v-0.5h0v0h-3.9v-2.7h0h-1.5V75.7h0h0h-0.9h0v11.7h-2.3V76.4h0h-0.7h0h0h0v11.1h-1.9V72.4
		h0v0h-0.4v0v15.1h-1.5v-2.7v0h0h-7.3h0v2.7h-1.2h0v0V89c0,0.4-0.1,0.8-0.1,1.1h-3.9v0v0.5v0v1.2v0.8h-4.9h0v1.3c0,0,0,0,0,0.1
		c-0.1,3.1,0,6.1,0,9.2v0.4v0.8v5.7v0v2.3v0l0,0c0,2.3,0,4.6,0,6.9v0.5v4.6v2.3v4.3v0v2.3v4.9v2.3v4.5v2.3v0v3.8v0.7H219h-1.2h-0.8
		v-1.6v-0.8v0v-3.5v0v-1v0v-1.8v-4.3v-0.8v0v-4.2v0v-1.2v0v-3.7v0v-1.2v0h-1.2h-1.4v-19.3h0V49h0h-1h0h-0.3v-0.9h0h-1h0h-1.8h0h-1h0
		h-5.5h-1h-0.9h-1h-4.7v-2.7V44v0h0h-1h0h-16.7h0h-1h0v0v1.4v2.7h-5.3h-1v1.7v0v7.5h-0.1v-9.5v0H171v0v9.5h-0.2h-0.2v-9.5v0h-0.5v0
		v9.5H170v-3v0v-2.6v0h-1h-8.5v-1.1v0v0H160v-2.1h0.5v0v-0.6v0v0v-1.3v0H160v-2.3h0.5v0v-0.6v0v-1.3v0H160v0h-0.8V30.3v0h-1h-1v-5v0
		v0v-2.7v0h-1h-26.7h0h-1h0v0v2.7v0v4.1h0h-0.8h-0.2h-0.8v0v12.7h-0.3v0v1.6v0v19.2h-2h-0.9h0h-0.9h0v-0.9h0.9h1v0v0v0v-2.8v0v0h-1
		h-11.6V54v0v-2v0h-1h-9.8h-1v0v2v0v5.4H88.8h-1v0v0v2.8v0v0v0h1h0.8v0.9h-8.3h-1v0v1.6v0v41.8v0v6H64.3h-0.6v2v6.3v0.9h-3.3h-0.6
		v3.4h-1.4v-5.2v-1.5h0v0h-0.6h-0.2h-0.6v1.5H45.8v-1.5h0v0h-0.4h0h-0.2h-0.4h0h-0.1H44v1.5v8.5v0.7v4.5v0.7v0.2v1.7v0.7v4.5v0.7
		v0.2v1.6v0.7v0.3h-1.9v-2h-1.7h-0.7v-4.8v-1.3v0H38H36v-3.9v0h-0.2v3.9h-1v-6.9h-0.6v3h-0.1v3.9h-0.9H33v-6.9h-0.6v6.9h-1v0h0v1.3
		v1h-1.4h-1.7v0v3.8h-0.9V142v-3.9v-2v-4.4v-2v-4.9v-1.4v-0.6v-5.7V117v-1.4v-0.8h-1.7H24v-0.7v0v-1v-0.4h-1.7h-1.1v-2.3H20v-10.1
		h-0.6h0v10.1h-1.1v-10.1h-0.6h0v0.6h-0.5v9.5H16v-9.5h0h-0.2v-3.4h0h-0.3v3.4h0v9.5h-1.1v-2.3h-0.3V97.4h0h-0.3v10.6h-1.1H9.1h0
		H7.4h0v2.3H6.5v2.3H5.4H3.6v0.4v1v0v0.7H1.8H0.1v2.4v7v0.7v4.9v2v4.4v2v3.9v2v3.7v2v4.2v2v3.8v2v0.8v2.5v2v3.5v2v3.3v1.2v6.9v16.7
		v45.2h479.6h0.4h480L960,155.9L960,155.9z M97.3,63.1h-0.9h-1H92h-0.5v-0.9h5.7V63.1z M100.4,63.1h-0.9v-0.9h0.9V63.1z M112.9,63.1
		h-0.8v-0.9h0.8V63.1z M120.6,63.1h-0.7h0h-5v-0.9h5.7V63.1z M330.2,130.1h-0.7h-1.8v-1.2h2.5V130.1z M350.9,102.9h-13.2v-0.6h0h0.6
		v0.4v0h0.1h0.7h0.1v0v-0.4h0v0.4v0h0.1h0.7h0.1v0v-0.4h7.2v0.4h0v0h0.1h0.7h0.1h0.3h0.1h0.7h0.1v0v-0.4h1h0.1h0.7h0.1V102.9z
		 M385.2,124.7h-1.9v-0.8v-0.5h0.6h0.1h1.2V124.7z M386,124.7h-0.3v-1.2h0.3V124.7z M386.4,76.2v0.7v2h-0.6V67.1h0.6V76.2z
		 M387.7,65.6h-0.2h-0.1h-0.1v-1.5h0.4V65.6z M394.1,65.6h-5.7h-0.1h-0.1v-1.5h5.9V65.6z M394.8,65.6h-0.3v-1.5h0.1h0.1h0.1V65.6z
		 M408.9,65.6h-0.3v-1.5h0.1h0.1h0.1V65.6z M415.2,65.6H415h-0.1h-5.6v-1.5h5.9V65.6z M416,65.6h-0.2h-0.1h-0.1v-1.5h0.4V65.6z
		 M417.8,69h-0.6v-1.9h0.6V69z M577,63.1h-0.9h-1h-3.4h-0.5v-0.9h5.8V63.1z M580.1,63.1h-0.9v-0.9h0.9V63.1z M592.6,63.1h-0.8v-0.9
		h0.8V63.1z M600.3,63.1h-0.7h0h-5v-0.9h5.8V63.1z M810.1,130.1h-0.7h-1.8v-1.2h2.5V130.1z M830.7,102.9h-13.2v-0.6h0h0.6v0.4v0h0.1
		h0.7h0.1v0v-0.4h0v0.4v0h0.1h0.7h0.1v0v-0.4h7.2v0.4h0v0h0.1h0.7h0.1h0.3h0.1h0.7h0.1v0v-0.4h1h0.1h0.7h0.1V102.9z M865.1,124.7
		h-1.9v-0.8v-0.5h0.6h0.1h1.2V124.7z M865.9,124.7h-0.3v-1.2h0.3V124.7z M866.4,76.2v0.7v2h-0.6V67.1h0.6V76.2z M867.7,65.6h-0.2
		h-0.1h-0.1v-1.5h0.4V65.6z M874,65.6h-5.8h-0.1h-0.1v-1.5h5.9V65.6z M874.8,65.6h-0.3v-1.5h0.1h0.1h0.1V65.6z M888.8,65.6h-0.3
		v-1.5h0.1h0.1h0.1V65.6z M895.2,65.6H895h-0.1h-5.7v-1.5h5.9V65.6z M896,65.6h-0.2h-0.1h-0.1v-1.5h0.4V65.6z M897.7,69h-0.6v-1.9
		h0.6V69z"/>
	<polygon class="st1" points="946.4,199.9 946.4,200.6 943.8,200.6 943.8,200.2 943.8,199.2 944.2,199.2 944.2,198.2 939.2,198.2 
		939.2,196.2 939.2,195.9 939.2,195 939.2,194.7 939.2,190.4 939.2,190.1 939.2,189.2 939.2,188.9 939.2,184.2 939.2,183.9 
		939.2,183 939.2,182.7 939.2,178.9 939.2,178.4 939.2,178.1 939.2,177.2 939.2,176.9 939.2,172.3 939.2,172 939.2,171.1 
		939.2,170.8 939.2,166.5 939.2,166.2 939.2,165.3 939.2,165 939.2,160.4 939.2,159.9 939.2,158.3 939.2,157.8 939.2,157.8 
		927.6,157.8 923.7,157.8 923.7,156.7 923.7,143 918.9,143 918.9,141.6 917.1,141.6 917.1,139.2 916.8,139.2 916.8,141.6 
		916.2,141.6 916.2,143 914.9,143 913.4,143 911.5,143 910.3,143 906.9,143 906.9,135.3 906.5,135.3 906.5,143 903.9,143 
		903.9,156.7 903.9,157.8 893.8,157.8 893.8,152.8 893.8,152.8 893.8,152.3 893.8,152.2 893.8,145.8 893.8,145.8 893.8,145.2 
		893.8,145.2 893.8,139.1 893.8,139.1 893.8,138.6 893.8,138.5 893.8,131.6 893.8,131.5 892.1,131.5 892.1,129.5 892.1,129.5 
		890.7,129.5 890.7,118.3 890.7,118.3 890.1,118.3 890.1,118.3 890.1,129.5 889.8,129.5 889.8,129.5 889.8,131.5 889.1,131.5 
		889.1,131.6 889.1,138.5 888.8,138.5 888.8,136.2 888.8,136.2 888.8,125.9 888.8,125.9 888.8,122.8 888.8,122.8 872.9,122.8 
		869.4,122.8 869.4,122.8 869.4,125.9 869.4,125.9 869.4,128.6 868.6,128.6 868.6,125.3 868.6,125.3 867.3,125.3 867.3,125.3 
		867.3,128.6 866.4,128.6 866.4,128.6 866.4,138.5 866.1,138.5 864.8,138.5 864.8,138.6 864.8,139.1 864.8,139.1 864.8,145.2 
		864.8,145.2 864.8,145.8 864.8,145.8 864.8,150.5 847.1,150.5 846.3,150.5 846.3,152.9 846.3,155.9 846.3,155.9 846.3,156.9 
		846.3,158.9 846.3,158.9 846.3,159.9 846.3,163.3 844.3,163.3 844.3,161.6 844.3,161.6 844.3,160.5 844.3,160.5 844.3,156.6 
		844.3,156.6 844.3,155.6 844.3,155.6 844.3,150.5 844.3,150.5 844.3,149.2 844.3,149.2 842.8,149.2 842.8,141.8 842.8,141.8 
		842.8,141.4 842.8,141.4 836.7,141.4 836.7,139.9 836.7,139.9 836.7,139.9 836.7,139.9 836.7,133.9 836.7,133.9 836.7,132 
		836.7,132 835,132 835,131.5 835,128.7 833.9,128.7 806.6,128.7 805.4,128.7 805.4,131.5 805.4,135.1 805.4,135.1 805.4,136.2 
		805.4,138.5 805.4,138.5 805.4,139.7 805.4,143.8 802.3,143.8 802.3,143.8 802.3,144.9 802.3,148.7 802.3,148.7 802.3,149.8 
		802.3,149.8 802.3,152.3 802.3,156.6 802.3,157.6 802.3,160 802.3,161 802.3,167.5 802.3,177.9 802.3,178.6 802.3,181.3 
		802.3,182.1 802.3,184.9 802.3,185.6 802.3,187.2 802.3,187.9 802.3,198.2 795.8,198.2 795.8,193.2 795.8,193.2 795.8,192.7 
		795.8,192.6 795.8,186.2 795.8,186.2 795.8,185.6 795.8,185.6 795.8,179.5 795.8,179.5 795.8,179 795.8,178.9 795.8,172 
		795.8,171.9 794,171.9 794,169.9 794,169.9 792.6,169.9 792.6,158.7 792.6,158.7 792,158.7 792,158.7 792,169.9 791.8,169.9 
		791.8,169.9 791.8,171.9 791.1,171.9 791.1,172 791.1,178.9 790.7,178.9 790.7,176.6 790.7,176.6 790.7,166.3 790.7,166.3 
		790.7,163.2 790.7,163.2 774.8,163.2 771.3,163.2 771.3,163.2 771.3,166.3 771.3,166.3 771.3,169 770.5,169 770.5,165.7 
		770.5,165.7 769.2,165.7 769.2,165.7 769.2,169 768.3,169 768.3,169 768.3,178.9 768,178.9 766.8,178.9 766.8,179 766.8,179.5 
		766.8,179.5 766.8,185.6 766.8,185.6 766.8,186.2 766.8,186.2 766.8,190.9 749.1,190.9 748.3,190.9 748.3,193.3 748.3,196.4 
		748.3,196.4 748.3,197.3 748.3,198.4 746.2,198.4 746.2,197 746.2,197 746.2,196 746.2,196 746.2,190.9 746.2,190.9 746.2,189.6 
		746.2,189.6 744.7,189.6 744.7,182.3 744.7,182.2 744.7,181.8 744.7,181.8 738.6,181.8 738.6,180.3 738.6,180.3 738.6,180.3 
		738.6,180.3 738.6,174.3 738.6,174.3 738.6,174.3 738.6,172.4 738.6,172.4 738.6,172.4 736.9,172.4 736.9,171.9 736.9,169.1 
		735.8,169.1 708.5,169.1 707.4,169.1 707.4,171.9 707.4,175.5 707.4,175.5 707.4,176.6 707.4,179 707.4,179 707.4,180.1 707.4,181 
		704.8,181 704.8,181 704.8,184.2 704.2,184.2 704.2,184.2 704.2,185.3 704.2,189.1 704.2,189.1 704.2,190.2 704.2,190.2 704.2,191 
		698.3,191 698.3,158.4 698.3,158.3 698.3,157.5 698.3,157.4 698.3,157.3 698.3,157.3 696.6,157.3 695.7,157.3 695.7,139.7 
		695.7,139.6 695.7,139.5 695.7,139.5 693.9,139.5 693.9,132.6 693.9,132.6 693.9,132.5 692,132.5 692,130.5 692,130.4 692,130.3 
		692,130.3 692,128.9 692,128.9 692,128.8 692,128.7 690.4,128.7 687.5,128.7 687.5,127.7 687.5,127.6 687.5,127.6 687.5,127.5 
		687.5,124.6 687.5,124.6 687.5,124.5 687.5,124.4 687.5,122.3 687.5,122.3 687.5,122.2 687.5,122.1 687.5,118.6 687.5,118.5 
		687.5,118.5 687.5,118.4 686,118.4 681.9,118.4 681.9,112 681.9,111.9 681.9,109.9 681.9,109.8 681.9,109.8 681.9,109.7 
		681.2,109.7 669.7,109.7 669.7,109.7 669.7,109.7 669.7,109.9 669.7,111.8 669.7,112 669.7,112 669.7,112 669.7,118.4 669.7,118.5 
		669.7,118.5 669.7,118.6 669.7,120.1 663.2,120.1 663.2,120.3 663.2,120.6 663.2,120.7 663.2,128.7 663.2,128.7 661.7,128.7 
		661.7,128.8 661.7,128.9 661.7,128.9 661.7,130.3 661.7,130.3 661.7,130.4 661.7,130.5 661.7,135.8 661.7,135.9 661.7,136 
		661.7,136 661.7,137 661.7,137.1 661.7,137.1 661.7,137.2 661.7,141.3 661.7,141.4 661.7,141.5 661.7,141.5 661.7,142.5 
		661.7,142.6 661.7,142.6 661.7,142.7 661.7,146.8 661.7,146.9 661.7,147 661.7,147 661.7,148 661.7,148.1 661.7,148.1 661.7,148.2 
		661.7,152.3 661.7,152.4 661.7,152.5 661.7,152.5 661.7,153.5 661.7,153.6 661.7,153.6 661.7,153.7 661.7,157.8 661.7,157.9 
		661.7,158 661.7,158 661.7,159 661.7,159.1 661.7,159.1 661.7,159.2 661.7,163.3 661.7,163.4 661.7,163.5 661.7,163.5 661.7,164.5 
		661.7,164.6 661.7,164.6 661.7,164.7 661.7,168.8 661.7,168.9 661.7,168.9 661.7,169 661.7,170 661.7,170 661.7,170.1 661.7,170.2 
		661.7,174.3 661.7,174.4 661.7,174.4 661.7,174.5 661.7,175.4 661.7,175.5 661.7,175.6 661.7,175.6 661.7,179.8 661.7,179.8 
		661.7,179.9 661.7,180 661.7,180.9 661.7,181 661.7,185.2 661.7,185.3 661.7,186.4 661.7,186.5 661.7,190.7 661.7,190.8 
		661.7,191.9 661.7,191.9 661.7,195.1 646.6,195.1 646.6,196.1 646.6,196.9 646.6,200.6 643.4,200.6 643.4,195.5 643.4,194.2 
		644,194.2 644,193 637.8,193 637.8,190.5 637.8,190.2 637.8,189.1 637.8,188.8 637.8,183.4 637.8,183.1 637.8,182 637.8,181.7 
		637.8,175.9 637.8,175.5 637.8,174.4 637.8,174.1 637.8,169.5 637.8,168.8 637.8,168.4 637.8,167.3 637.8,167 637.8,161.4 
		637.8,161 637.8,159.9 637.8,159.6 637.8,154.3 637.8,153.9 637.8,152.8 637.8,152.5 637.8,146.9 637.8,146.2 637.8,144.3 
		637.8,143.7 637.8,143.7 623.7,143.7 618.8,143.7 618.8,142.4 618.8,125.7 613,125.7 613,123.9 610.9,123.9 610.9,121 610.5,121 
		610.5,123.9 609.8,123.9 609.8,125.7 608.2,125.7 606.4,125.7 604,125.7 602.5,125.7 598.4,125.7 598.4,116.2 597.9,116.2 
		597.9,125.7 594.7,125.7 594.7,142.4 594.7,143.7 582.4,143.7 582.4,137.6 582.4,137.6 582.4,136.9 582.4,136.9 582.4,129 
		582.4,129 582.4,128.3 582.4,128.3 582.4,120.9 582.4,120.9 582.4,120.2 582.4,120.2 582.4,111.7 582.4,111.6 580.3,111.6 
		580.3,109.2 580.3,109.1 578.6,109.1 578.6,95.5 578.6,95.4 577.9,95.4 577.9,95.5 577.9,109.1 577.6,109.1 577.6,109.2 
		577.6,111.6 576.7,111.6 576.7,111.7 576.7,120.2 576.3,120.2 576.3,117.3 576.3,117.3 576.3,104.8 576.3,104.7 576.3,101 
		576.3,101 556.9,101 552.6,101 552.6,101 552.6,104.7 552.6,104.8 552.6,108 551.6,108 551.6,104.1 551.6,104 550.1,104 
		550.1,104.1 550.1,108 548.9,108 548.9,108 548.9,120.2 548.6,120.2 547.1,120.2 547.1,120.2 547.1,120.9 547.1,120.9 547.1,128.3 
		547.1,128.3 547.1,129 547.1,129 547.1,134.8 525.4,134.8 524.5,134.8 524.5,137.7 524.5,141.4 524.5,141.4 524.5,142.6 524.5,145 
		524.5,145 524.5,146.2 524.5,150.4 521.9,150.4 521.9,148.3 521.9,148.3 521.9,147 521.9,147 521.9,142.3 521.9,142.3 521.9,141 
		521.9,141 521.9,134.8 521.9,134.8 521.9,133.2 521.9,133.1 520.1,133.1 520.1,124.2 520.1,124.2 520.1,123.7 520.1,123.7 
		512.6,123.7 512.6,121.8 512.6,121.8 512.6,121.8 512.6,121.8 512.6,114.6 512.6,114.6 512.6,114.6 512.6,112.3 512.6,112.3 
		512.6,112.3 499.5,112.3 498.6,112.3 498.6,112.3 498.6,112.3 498.6,114.6 498.6,114.6 498.6,121.8 494,121.8 492.3,121.8 
		492.3,121.8 492.3,121.8 492.3,121.8 492.3,125.9 492.3,125.9 492.3,128.4 492.3,128.4 492.3,128.4 492.3,131.8 492.3,131.8 
		492.3,131.8 492.3,133.1 488.9,133.1 487.1,133.1 487.1,133.2 487.1,134.8 487.1,134.8 487.1,137.3 484.9,137.3 484.9,137.3 
		484.9,137.3 484.9,137.3 484.9,145 482.8,145 482.8,145 482.8,164.5 481.7,164.5 480,164.5 480,199.9 466.4,199.9 466.4,200.6 
		463.8,200.6 463.8,200.2 463.8,199.2 464.2,199.2 464.2,198.2 459.2,198.2 459.2,196.2 459.2,195.9 459.2,195 459.2,194.7 
		459.2,190.4 459.2,190.1 459.2,189.2 459.2,188.9 459.2,184.2 459.2,183.9 459.2,183 459.2,182.7 459.2,178.9 459.2,178.4 
		459.2,178.1 459.2,177.2 459.2,176.9 459.2,172.3 459.2,172 459.2,171.1 459.2,170.8 459.2,166.5 459.2,166.2 459.2,165.3 
		459.2,165 459.2,160.4 459.2,159.9 459.2,158.3 459.2,157.8 459.2,157.8 447.6,157.8 443.7,157.8 443.7,156.7 443.7,143 438.9,143 
		438.9,141.6 437.1,141.6 437.1,139.2 436.8,139.2 436.8,141.6 436.2,141.6 436.2,143 434.9,143 433.5,143 431.5,143 430.3,143 
		426.9,143 426.9,135.3 426.5,135.3 426.5,143 423.9,143 423.9,156.7 423.9,157.8 413.8,157.8 413.8,152.8 413.8,152.8 413.8,152.3 
		413.8,152.2 413.8,145.8 413.8,145.8 413.8,145.2 413.8,145.2 413.8,139.1 413.8,139.1 413.8,138.6 413.8,138.5 413.8,131.6 
		413.8,131.5 412.1,131.5 412.1,129.5 412.1,129.5 410.7,129.5 410.7,118.3 410.7,118.3 410.1,118.3 410.1,118.3 410.1,129.5 
		409.8,129.5 409.8,129.5 409.8,131.5 409.1,131.5 409.1,131.6 409.1,138.5 408.8,138.5 408.8,136.2 408.8,136.2 408.8,125.9 
		408.8,125.9 408.8,122.8 408.8,122.8 392.9,122.8 389.4,122.8 389.4,122.8 389.4,125.9 389.4,125.9 389.4,128.6 388.6,128.6 
		388.6,125.3 388.6,125.3 387.3,125.3 387.3,125.3 387.3,128.6 386.4,128.6 386.4,128.6 386.4,138.5 386.1,138.5 384.8,138.5 
		384.8,138.6 384.8,139.1 384.8,139.1 384.8,145.2 384.8,145.2 384.8,145.8 384.8,145.8 384.8,150.5 367.1,150.5 366.3,150.5 
		366.3,152.9 366.3,155.9 366.3,155.9 366.3,156.9 366.3,158.9 366.3,158.9 366.3,159.9 366.3,163.3 364.3,163.3 364.3,161.6 
		364.3,161.6 364.3,160.5 364.3,160.5 364.3,156.6 364.3,156.6 364.3,155.6 364.3,155.6 364.3,150.5 364.3,150.5 364.3,149.2 
		364.3,149.2 362.8,149.2 362.8,141.8 362.8,141.8 362.8,141.4 362.8,141.4 356.7,141.4 356.7,139.9 356.7,139.9 356.7,139.9 
		356.7,139.9 356.7,133.9 356.7,133.9 356.7,132 356.7,132 355,132 355,131.5 355,128.7 353.9,128.7 326.6,128.7 325.4,128.7 
		325.4,131.5 325.4,135.1 325.4,135.1 325.4,136.2 325.4,138.5 325.4,138.5 325.4,139.7 325.4,143.8 322.3,143.8 322.3,143.8 
		322.3,144.9 322.3,148.7 322.3,148.7 322.3,149.8 322.3,149.8 322.3,152.3 322.3,156.6 322.3,157.6 322.3,160 322.3,161 
		322.3,167.5 322.3,177.9 322.3,178.6 322.3,181.3 322.3,182.1 322.3,184.9 322.3,185.6 322.3,187.2 322.3,187.9 322.3,198.2 
		315.8,198.2 315.8,193.2 315.8,193.2 315.8,192.7 315.8,192.6 315.8,186.2 315.8,186.2 315.8,185.6 315.8,185.6 315.8,179.5 
		315.8,179.5 315.8,179 315.8,178.9 315.8,172 315.8,171.9 314,171.9 314,169.9 314,169.9 312.6,169.9 312.6,158.7 312.6,158.7 
		312,158.7 312,158.7 312,169.9 311.8,169.9 311.8,169.9 311.8,171.9 311.1,171.9 311.1,172 311.1,178.9 310.7,178.9 310.7,176.6 
		310.7,176.6 310.7,166.3 310.7,166.3 310.7,163.2 310.7,163.2 294.8,163.2 291.3,163.2 291.3,163.2 291.3,166.3 291.3,166.3 
		291.3,169 290.5,169 290.5,165.7 290.5,165.7 289.2,165.7 289.2,165.7 289.2,169 288.3,169 288.3,169 288.3,178.9 288,178.9 
		286.8,178.9 286.8,179 286.8,179.5 286.8,179.5 286.8,185.6 286.8,185.6 286.8,186.2 286.8,186.2 286.8,190.9 269.1,190.9 
		268.3,190.9 268.3,193.3 268.3,196.4 268.3,196.4 268.3,197.3 268.3,198.4 266.2,198.4 266.2,197 266.2,197 266.2,196 266.2,196 
		266.2,190.9 266.2,190.9 266.2,189.6 266.2,189.6 264.7,189.6 264.7,182.3 264.7,182.2 264.7,181.8 264.7,181.8 258.6,181.8 
		258.6,180.3 258.6,180.3 258.6,180.3 258.6,180.3 258.6,174.3 258.6,174.3 258.6,174.3 258.6,172.4 258.6,172.4 258.6,172.4 
		256.9,172.4 256.9,171.9 256.9,169.1 255.8,169.1 228.5,169.1 227.4,169.1 227.4,171.9 227.4,175.5 227.4,175.5 227.4,176.6 
		227.4,179 227.4,179 227.4,180.1 227.4,181 224.8,181 224.8,181 224.8,184.2 224.2,184.2 224.2,184.2 224.2,185.3 224.2,189.1 
		224.2,189.1 224.2,190.2 224.2,190.2 224.2,191 218.3,191 218.3,158.4 218.3,158.3 218.3,157.5 218.3,157.4 218.3,157.3 
		218.3,157.3 216.6,157.3 215.7,157.3 215.7,139.7 215.7,139.6 215.7,139.5 215.7,139.5 213.9,139.5 213.9,132.6 213.9,132.6 
		213.9,132.5 212,132.5 212,130.5 212,130.4 212,130.3 212,130.3 212,128.9 212,128.9 212,128.8 212,128.7 210.4,128.7 207.5,128.7 
		207.5,127.7 207.5,127.6 207.5,127.6 207.5,127.5 207.5,124.6 207.5,124.6 207.5,124.5 207.5,124.4 207.5,122.3 207.5,122.3 
		207.5,122.2 207.5,122.1 207.5,118.6 207.5,118.5 207.5,118.5 207.5,118.4 206,118.4 201.9,118.4 201.9,112 201.9,111.9 
		201.9,109.9 201.9,109.8 201.9,109.8 201.9,109.7 201.2,109.7 189.7,109.7 189.7,109.7 189.7,109.7 189.7,109.9 189.7,111.8 
		189.7,112 189.7,112 189.7,112 189.7,118.4 189.7,118.5 189.7,118.5 189.7,118.6 189.7,120.1 183.2,120.1 183.2,120.3 183.2,120.6 
		183.2,120.7 183.2,128.7 183.2,128.7 181.7,128.7 181.7,128.8 181.7,128.9 181.7,128.9 181.7,130.3 181.7,130.3 181.7,130.4 
		181.7,130.5 181.7,135.8 181.7,135.9 181.7,136 181.7,136 181.7,137 181.7,137.1 181.7,137.1 181.7,137.2 181.7,141.3 181.7,141.4 
		181.7,141.5 181.7,141.5 181.7,142.5 181.7,142.6 181.7,142.6 181.7,142.7 181.7,146.8 181.7,146.9 181.7,147 181.7,147 181.7,148 
		181.7,148.1 181.7,148.1 181.7,148.2 181.7,152.3 181.7,152.4 181.7,152.5 181.7,152.5 181.7,153.5 181.7,153.6 181.7,153.6 
		181.7,153.7 181.7,157.8 181.7,157.9 181.7,158 181.7,158 181.7,159 181.7,159.1 181.7,159.1 181.7,159.2 181.7,163.3 181.7,163.4 
		181.7,163.5 181.7,163.5 181.7,164.5 181.7,164.6 181.7,164.6 181.7,164.7 181.7,168.8 181.7,168.9 181.7,168.9 181.7,169 
		181.7,170 181.7,170 181.7,170.1 181.7,170.2 181.7,174.3 181.7,174.4 181.7,174.4 181.7,174.5 181.7,175.4 181.7,175.5 
		181.7,175.6 181.7,175.6 181.7,179.8 181.7,179.8 181.7,179.9 181.7,180 181.7,180.9 181.7,181 181.7,185.2 181.7,185.3 
		181.7,186.4 181.7,186.5 181.7,190.7 181.7,190.8 181.7,191.9 181.7,191.9 181.7,195.1 166.6,195.1 166.6,196.1 166.6,196.9 
		166.6,200.6 163.4,200.6 163.4,195.5 163.4,194.2 164,194.2 164,193 157.8,193 157.8,190.5 157.8,190.2 157.8,189.1 157.8,188.8 
		157.8,183.4 157.8,183.1 157.8,182 157.8,181.7 157.8,175.9 157.8,175.5 157.8,174.4 157.8,174.1 157.8,169.5 157.8,168.8 
		157.8,168.4 157.8,167.3 157.8,167 157.8,161.4 157.8,161 157.8,159.9 157.8,159.6 157.8,154.3 157.8,153.9 157.8,152.8 
		157.8,152.5 157.8,146.9 157.8,146.2 157.8,144.3 157.8,143.7 157.8,143.7 143.7,143.7 138.8,143.7 138.8,142.4 138.8,125.7 
		133,125.7 133,123.9 130.9,123.9 130.9,121 130.5,121 130.5,123.9 129.8,123.9 129.8,125.7 128.2,125.7 126.4,125.7 124,125.7 
		122.5,125.7 118.4,125.7 118.4,116.2 117.9,116.2 117.9,125.7 114.7,125.7 114.7,142.4 114.7,143.7 102.4,143.7 102.4,137.6 
		102.4,137.6 102.4,136.9 102.4,136.9 102.4,129 102.4,129 102.4,128.3 102.4,128.3 102.4,120.9 102.4,120.9 102.4,120.2 
		102.4,120.2 102.4,111.7 102.4,111.6 100.3,111.6 100.3,109.2 100.3,109.1 98.6,109.1 98.6,95.5 98.6,95.4 97.9,95.4 97.9,95.5 
		97.9,109.1 97.6,109.1 97.6,109.2 97.6,111.6 96.7,111.6 96.7,111.7 96.7,120.2 96.3,120.2 96.3,117.3 96.3,117.3 96.3,104.8 
		96.3,104.7 96.3,101 96.3,101 76.9,101 72.6,101 72.6,101 72.6,104.7 72.6,104.8 72.6,108 71.6,108 71.6,104.1 71.6,104 70.1,104 
		70.1,104.1 70.1,108 68.9,108 68.9,108 68.9,120.2 68.6,120.2 67.1,120.2 67.1,120.2 67.1,120.9 67.1,120.9 67.1,128.3 67.1,128.3 
		67.1,129 67.1,129 67.1,134.8 45.4,134.8 44.5,134.8 44.5,137.7 44.5,141.4 44.5,141.4 44.5,142.6 44.5,145 44.5,145 44.5,146.2 
		44.5,150.4 41.9,150.4 41.9,148.3 41.9,148.3 41.9,147 41.9,147 41.9,142.3 41.9,142.3 41.9,141 41.9,141 41.9,134.8 41.9,134.8 
		41.9,133.2 41.9,133.1 40.1,133.1 40.1,124.2 40.1,124.2 40.1,123.7 40.1,123.7 32.7,123.7 32.7,121.8 32.7,121.8 32.7,121.8 
		32.7,121.8 32.7,114.6 32.7,114.6 32.7,114.6 32.7,112.3 32.7,112.3 32.7,112.3 19.5,112.3 18.6,112.3 18.6,112.3 18.6,112.3 
		18.6,114.6 18.6,114.6 18.6,121.8 14,121.8 12.3,121.8 12.3,121.8 12.3,121.8 12.3,121.8 12.3,125.9 12.3,125.9 12.3,128.4 
		12.3,128.4 12.3,128.4 12.3,131.8 12.3,131.8 12.3,131.8 12.3,133.1 8.9,133.1 7.1,133.1 7.1,133.2 7.1,134.8 7.1,134.8 7.1,137.3 
		4.9,137.3 4.9,137.3 4.9,137.3 4.9,137.3 4.9,145 2.8,145 2.8,145 2.8,164.5 1.7,164.5 0,164.5 0,245.8 480,245.8 480,245.8 
		960,245.8 960,199.9 	"/>
</g>
</svg>
