<?xml version="1.0" encoding="utf-8"?>
<!-- Generator: Adobe Illustrator 24.0.1, SVG Export Plug-In . SVG Version: 6.00 Build 0)  -->
<svg version="1.1" id="Camada_1" xmlns="http://www.w3.org/2000/svg" xmlns:xlink="http://www.w3.org/1999/xlink" x="0px" y="0px"
	 viewBox="0 0 300 64.7" style="enable-background:new 0 0 300 64.7;" xml:space="preserve">
<style type="text/css">
	.st0{fill:#143F5D;}
	.st1{fill:#062440;}
	.st2{fill:url(logo-text.svg);}
	.st3{fill:url(logo-text.svg);}
	.st4{fill:url(logo-text.svg);}
	.st5{fill:url(logo-text.svg);}
	.st6{fill:#FFFFFF;}
	.st7{opacity:0.39;fill:#062440;}
	.st8{fill:url(logo-text.svg);}
</style>
<g>
	<path class="st0" d="M298.6,11.9c-0.1-0.1-0.2-0.3-0.4-0.4l-0.1-0.1l-0.1,0c-0.1-0.1-0.3-0.2-0.4-0.3l-13.2-9.1
		c-0.8-0.5-1.7-0.8-2.7-0.8c-1.5,0-3,0.8-3.9,2l-8.4,12.2l-7.6-12c-0.9-1.4-2.4-2.2-4-2.2c-1,0-2.1,0.4-2.9,1l-2.1,1.6
		c-0.1-0.2-0.2-0.4-0.3-0.6l0-0.1L252.4,3c0-0.1-0.1-0.2-0.1-0.2l-0.9-1.4h-0.6c-0.7-0.5-1.6-0.7-2.5-0.7c-0.1,0-0.3,0-0.4,0
		l-31.3,2.7L215,2.2c-0.8-0.5-1.7-0.8-2.7-0.8c-0.2,0-0.4,0-0.6,0l-15.8,1.9c-2.3,0.3-4.1,2.3-4.2,4.6l0,2.5
		c-2.4-2.7-4.8-4.8-7.3-6.3c-2.8-1.7-5.6-2.9-8.3-3.6c-1.5-0.4-3.7-0.6-5.8-0.6c-3.5,0-8.8,0.6-13.9,3.2c-4.6,2.4-8.6,6.3-11.4,11.1
		c-0.5,0.9-1,1.9-1.5,2.9l0.8-6.6c0.2-1.9,0.4-3.9-0.2-5.6c0,0-0.1-0.2-0.1-0.2s-0.7-1.5-1.7-2.2c-0.6-0.4-1.8-0.9-2.9-0.9
		c-0.1,0-0.2,0-0.4,0l-31.6,2.3c-0.7,0.1-1.4,0.3-2,0.6c-0.4-0.5-0.9-1-1.5-1.3c-0.3-0.2-0.5-0.3-0.8-0.4c-2.1-0.7-4.3-1.3-6.7-1.7
		c-2.1-0.3-4.3-0.5-6.5-0.5c-0.7,0-1.4,0-2.1,0c-3.2,0.1-6.2,0.7-9,1.7c-2.9,1-5.5,2.5-7.7,4.4c-1.1,0.9-2,1.9-2.9,3
		c0-0.3,0.1-3.1,0-4.2c0,0-0.3-2.1-2-3.4c-0.7-0.5-1.8-0.9-2.8-0.9c-0.2,0-0.4,0-0.6,0L47.5,3.3c-1.8,0.2-3.2,1.4-3.9,2.9
		c-1.6-1.6-3.6-2.9-6-3.8c-2.2-0.9-4.8-1.3-7.8-1.3c-1.2,0-2.4,0.1-3.7,0.2C19.2,2,11.8,2.7,4.4,3.6C3.3,3.7,2.2,4.3,1.3,5.2
		c0,0-1.3,1.4-1.3,3.3c0,1.4,0,3.4,0,3.4l1,46.6C1,61,2.9,63,5.4,63.3l12.3,1.3c0.2,0,0.3,0,0.5,0c2.6,0,4.8-2.2,4.9-4.8l0-2.6
		l8.9,6.6c0.8,0.6,1.8,1,2.9,1c1.4,0,2.7-0.6,3.7-1.6l4-4.5l0,0.6c0,1.3,0.5,2.6,1.4,3.5c0.9,0.9,2.2,1.5,3.5,1.5c0.2,0,0.4,0,0.6,0
		l13.6-1.6c1.4-0.2,2.6-0.9,3.4-1.9c0.1,0.1,0.3,0.1,0.4,0.2c0.9,0.4,1.9,0.8,2.9,1.2c1.5,0.6,3.1,1.1,4.8,1.5
		c1.6,0.4,3.3,0.7,5,0.9c1.4,0.2,2.8,0.3,4.1,0.3c0.3,0,0.6,0,0.9,0l0,0c3.5-0.1,6.8-0.7,9.8-1.6c3.2-1,5.9-2.4,8.3-4.2
		c0.8-0.6,1.5-1.3,2.1-1.9l0,1.8c0,2.7,2.2,4.8,4.9,4.8c0.1,0,0.2,0,0.3,0l30.8-1.7c2.5-0.1,4.6-2.2,4.6-4.8l0.1-6
		c1.7,3.1,4.3,6,7.6,8.6c2.5,2,5.4,3.3,8.4,4.1c2.5,0.7,5.1,1,7.7,1c0,0,0,0,0,0c0.4,0,0.8,0,1.2,0c2.9-0.1,5.8-0.6,8.6-1.3
		c2.8-0.7,5.3-1.7,7.7-2.8c2.2-1.1,4.2-2.3,5.9-3.7l0,1.9c0,1.3,0.5,2.5,1.4,3.4c0.9,0.9,2.1,1.4,3.4,1.4c0.2,0,0.4,0,0.5,0l14-1.6
		c2.3-0.3,4.1-2.1,4.2-4.4l1.5-29.1c0.2,0,0.4,0.1,0.6,0.1c0.2,0,0.3,0,0.5,0l2.9-0.3l-0.7,27.8c0,0.3,0,0.6,0.1,0.8l-0.1,1.9
		c0,1.3,0.4,2.5,1.3,3.4c0.9,0.9,2.1,1.4,3.4,1.4c0.2,0,0.4,0,0.6,0l15.2-1.9c2.4-0.3,4.1-2.3,4.1-4.7V25.6l2.1-0.2l10.9,15.3v16.3
		c0,2.4,1.8,4.4,4.1,4.7l14.3,1.9c0.2,0,0.4,0,0.6,0c0,0,0,0,0,0c2.6,0,4.7-2.1,4.7-4.7l0.2-15.5l17.7-22.8
		C299.9,18.9,301,14.6,298.6,11.9z"/>
	<g>
		<path class="st1" d="M65,6.4c-0.1-0.8-0.8-1.4-1.7-1.3L47.9,6.9c-0.7,0.1-1.3,0.7-1.3,1.5L46,56.1c0,0.1,0,0.2,0,0.4l0,3.1
			c0,0.9,0.8,1.6,1.7,1.5l13.6-1.6c0.7-0.1,1.3-0.7,1.3-1.4L65,10C65.1,9.1,65.1,7,65,6.4L65,6.4z"/>
		<path class="st1" d="M44.6,16.9c-0.2-2.5-1-4.8-2.3-6.7c-1.4-1.9-3.4-3.4-6-4.4c-2.6-1-5.9-1.3-9.9-0.9c-7,0.7-14.2,1.4-21.7,2.3
			C4,7.3,3.5,7.8,3.4,8.5c0,0,0,0,0,0c0,0,0,0.1,0,0.1c0,0,0,0,0,0.1l0,0c0,1,0,2.6,0,3.4l1,46.6c0,0.8,0.6,1.4,1.3,1.4L18,61.4
			c0.9,0.1,1.6-0.6,1.6-1.5l0.1-6.3c0-1.2,1.4-1.9,2.4-1.2l11.9,8.8c0.6,0.5,1.5,0.4,2-0.2l7.7-8.7c0.6-0.7,1.7-3.8,0-5.4
			c0,0,0,0-0.1-0.1c0,0,0,0,0,0l0,0c-0.1-0.1-0.1-0.1-0.2-0.2l-9.2-6c1.9-1.4,3.5-3,4.9-4.8c2-2.5,3.5-5.1,4.4-7.8
			c0.9-2.7,1.3-5.3,1.1-7.8c0-0.1,0-0.2,0-0.4C44.7,18.9,44.7,17.9,44.6,16.9z M18.8,25.9c0-0.6,0.4-1.1,1-1.3
			c1.6-0.6,2.9-0.9,3.9-0.9c1.2,0,2,0.2,2.6,0.6c0.4,0.3,0.7,0.6,0.9,1c-0.1,0.2-0.3,0.5-0.5,0.8c-0.4,0.7-1,1.3-1.7,2
			c-0.8,0.7-1.7,1.4-2.8,2c-0.6,0.3-1.2,0.6-1.8,0.8c-0.7,0.3-1.5-0.1-1.8-0.7L18.8,25.9z"/>
		<path class="st1" d="M140.9,6.4C140.9,6.4,140.9,6.4,140.9,6.4L140.9,6.4c-0.2-0.6-0.8-1-1.5-1l-31.6,2.3
			c-0.8,0.1-1.4,0.7-1.4,1.5l0,3.1c0,0.1,0,0.2,0,0.3l0.4,46.2c0,0.8,0.7,1.5,1.6,1.5l30.8-1.7c0.8,0,1.4-0.7,1.4-1.5l0.3-14.4
			c0-0.8,0.1-2.3,0-3.4l0,0c0-0.2,0-0.3-0.1-0.5c0,0,0,0,0,0l0,0c-0.2-0.6-0.8-1.1-1.6-1l-6.4,0.6c0.4-0.2,0.8-0.6,0.8-1.2l1-8
			c0.1-0.9,0.6-3.6-0.3-4.5l3.7-0.2c0.7,0,1.3-0.6,1.4-1.3l1.6-12.9C141.1,9.6,141.3,7.6,140.9,6.4C140.9,6.4,140.9,6.4,140.9,6.4z
			 M124.5,39.3c-0.1,0-0.2,0-0.3,0c0,0,0,0,0,0l2-0.2L124.5,39.3z M134.3,24.9C134.3,24.9,134.3,24.9,134.3,24.9L134.3,24.9
			L134.3,24.9z"/>
		<path class="st1" d="M105.3,39.2c-0.1-2.1-0.5-3.9-1.2-5.5c-0.7-1.5-1.7-2.8-2.8-3.9c-1.1-1.1-2.4-2-3.7-2.8c-1.4-0.8-2.7-1.4-4-2
			c-1.1-0.5-2.2-0.8-3.4-1.1c-1.4-0.3-2.7-0.6-3.9-0.9c0,0-0.1,0-0.1,0c-0.3,0-0.6-0.1-1.1-0.2c-0.4-0.1-0.8-0.1-1.3-0.2
			c0.5-0.2,1-0.4,1.5-0.5c0.9-0.2,1.7-0.3,2.6-0.3c0.9,0,1.7,0,2.2,0.1c1.8,0.3,3.5,0.6,4.9,1.1c0.9,0.3,1.9,0.7,3,1.1
			c0.8,0.3,1.8-0.1,2-1l3-11.6c0.2-0.7,0.7-4.4-0.6-5c0,0,0,0,0,0c-0.1-0.1-0.2-0.1-0.3-0.2c-1.9-0.7-3.9-1.2-6.1-1.5
			c-2.6-0.4-5.2-0.5-7.9-0.4c-2.9,0.1-5.5,0.6-8.1,1.5c-2.5,0.9-4.7,2.1-6.6,3.7c-1.9,1.6-3.4,3.6-4.5,5.9c-1.1,2.3-1.6,4.9-1.5,7.8
			c0,0.4,0,0.7,0.1,1c-0.1,0.8-0.1,1.5-0.1,2.4c0,1.7,0.4,3.2,1,4.6c0.7,1.3,1.5,2.5,2.5,3.5c1,1,2.1,1.9,3.3,2.6
			c1.2,0.7,2.4,1.3,3.6,1.8c1.2,0.5,2.3,0.9,3.3,1.2c1,0.3,1.8,0.5,2.4,0.7c0.1,0,0.1,0,0.2,0.1c0.9,0.4,1.7,0.7,2.4,1.1
			c0.1,0.1,0.2,0.1,0.3,0.2c-0.2,0.2-0.4,0.3-0.7,0.4c-1.1,0.5-2.4,0.7-3.9,0.8c-1.1,0-2.1-0.1-3.2-0.3c-1.1-0.3-2.1-0.5-3.2-0.9
			c-1-0.3-2-0.7-2.8-1.1c-0.3-0.1-0.5-0.2-0.8-0.4c-0.8-0.3-1.7,0.1-2,0.9L66,52.5l-0.1,0.1c-1.1,3.4,0.1,5,0.8,5.3
			c0.9,0.4,1.8,0.7,2.8,1.1c1.4,0.5,2.9,1,4.4,1.4c1.5,0.4,3,0.7,4.6,0.9c1.6,0.2,3.1,0.3,4.5,0.2c3.2-0.1,6.2-0.6,9-1.5
			c2.8-0.9,5.2-2.1,7.2-3.7c2-1.6,3.5-3.5,4.6-5.8c1.1-2.3,1.6-4.9,1.4-7.9c0-0.3,0-0.6-0.1-0.8C105.3,40.9,105.3,40.1,105.3,39.2z"
			/>
		<path class="st1" d="M192,47.2c0-0.1-0.1-0.1-0.1-0.2l-10.4-11c-0.6-0.6-1.6-0.5-2.1,0.2c-4.6,7.2-15.8,5.4-17-2.1
			c1.1-7.4,11.1-9.6,15.9-4.8c0.5,0.5,1.4,0.5,1.9-0.1l9.3-11.5c0.4-0.5,1-3.2,0.1-4.3c0,0,0,0,0,0c0-0.1-0.1-0.1-0.1-0.2
			c-2.3-2.6-4.6-4.6-6.9-6c-2.5-1.6-5-2.6-7.3-3.2C173,3.6,165.1,2.8,158,6.5c-7.4,3.8-14.7,13.2-14.2,27.4c-0.1,2,0,4,0.3,6.2
			c0.4,3.1,1.2,6.1,2.7,9.1c1.5,2.9,3.8,5.6,7,8.1c2.2,1.7,4.6,2.9,7.2,3.5c2.6,0.7,5.2,1,7.9,0.9c2.7-0.1,5.3-0.5,7.8-1.2
			c2.6-0.7,4.9-1.6,7.1-2.6c2.1-1,4-2.2,5.5-3.5c1.2-1,2.1-1.9,2.7-2.8C192.4,51,192.9,48.4,192,47.2L192,47.2z"/>
		<path class="st1" d="M213.6,6.2c-0.1-0.7-0.7-1.2-1.5-1.1l-15.8,1.9c-0.7,0.1-1.2,0.6-1.2,1.3l-0.6,48c0,0.1,0,0.2,0,0.3l0,2.5
			c0,0.8,0.7,1.4,1.5,1.3l14-1.6c0.6-0.1,1.1-0.6,1.2-1.2l2.4-48.3C213.6,8.4,213.7,6.8,213.6,6.2L213.6,6.2z"/>
		<path class="st1" d="M296,14.4L296,14.4c-0.1-0.1-0.2-0.2-0.3-0.3L282.5,5c-0.6-0.4-1.4-0.3-1.8,0.3l-10.2,14.8
			c-0.5,0.8-1.7,0.8-2.2,0l-9.3-14.6c-0.4-0.7-1.3-0.8-1.9-0.3l-7.6,6l0.3-2.6c0.1-0.8,0.2-2.8-0.1-3.5c0,0,0,0,0,0c0,0,0,0,0,0l0,0
			c-0.2-0.5-0.7-0.8-1.3-0.7L216.9,7c-0.7,0.1-1.2,0.6-1.2,1.3l-0.4,12.8c0,0.2,0,0.3,0.1,0.4l-0.1,2.3c0,0.8,0.7,1.4,1.4,1.3
			l5.4-0.5c0.6-0.1,1.2,0.3,1.4,0.9l-0.8,30.6c0,0.2,0,0.3,0.1,0.4l-0.1,2.3c0,0.8,0.7,1.4,1.5,1.3l15.2-1.9
			c0.7-0.1,1.2-0.6,1.2-1.3v-2.8V24c0-0.7,0.5-1.2,1.2-1.3l5.4-0.6c0.2,0,0.4-0.1,0.5-0.2l12.6,17.6c0.2,0.2,0.2,0.5,0.2,0.8v14.2
			v2.8c0,0.7,0.5,1.2,1.1,1.3l14.3,1.9c0.8,0.1,1.5-0.5,1.5-1.3l0.2-16.2c0-0.3,0.1-0.6,0.3-0.8L296,18.7
			C296.4,18.1,297.1,15.5,296,14.4z"/>
	</g>
	<g>
		<linearGradient id="SVGID_1_" gradientUnits="userSpaceOnUse" x1="72.2009" y1="57.9298" x2="72.2009" y2="4.2504">
			<stop  offset="0" style="stop-color:#FF7745"/>
			<stop  offset="1" style="stop-color:#FFAC21"/>
		</linearGradient>
		<path class="st2" d="M43.8,48.7l-7.7,8.7c-0.5,0.6-1.4,0.7-2,0.2l-11.9-8.8c-1-0.7-2.3,0-2.4,1.2l-0.1,6.3c0,0.9-0.8,1.5-1.6,1.5
			L5.7,56.5c-0.7-0.1-1.3-0.7-1.3-1.4l-1-46.6C3.4,7.7,4,7.1,4.7,7c7.5-0.9,14.7-1.6,21.7-2.3c3.9-0.4,7.2-0.1,9.9,0.9
			c2.6,1,4.6,2.5,6,4.4c1.4,1.9,2.1,4.1,2.3,6.7c0.2,2.5-0.2,5.1-1.1,7.8c-0.9,2.7-2.4,5.3-4.4,7.8c-1.6,2-3.4,3.8-5.6,5.3
			c-0.8,0.6-0.8,1.9,0,2.5l9.9,6.5C44.3,47,44.4,48,43.8,48.7z M18.8,22.2l-0.4,7c-0.1,1.1,1,1.9,2,1.5c0.7-0.2,1.3-0.5,1.8-0.8
			c1.1-0.6,2-1.3,2.8-2c0.8-0.7,1.3-1.4,1.7-2c0.4-0.6,0.6-1,0.7-1.4c0-0.1,0-0.2,0-0.3c0-0.1,0-0.3,0.1-0.6c0-0.4,0-0.9-0.2-1.5
			c-0.1-0.6-0.5-1.1-1.1-1.5c-0.6-0.4-1.4-0.6-2.6-0.6c-1,0-2.3,0.3-3.9,0.9C19.3,21.1,18.9,21.6,18.8,22.2z M65,6.4l-2.4,48
			c0,0.7-0.6,1.3-1.3,1.4l-13.6,1.6c-0.9,0.1-1.7-0.6-1.7-1.5l0.6-47.7c0-0.7,0.6-1.4,1.3-1.5l15.5-1.8C64.3,4.7,65.1,5.5,65,6.4z
			 M93.5,24.8c1.3,0.6,2.6,1.3,4,2c1.4,0.8,2.6,1.7,3.7,2.8c1.1,1.1,2,2.4,2.8,3.9c0.7,1.5,1.1,3.4,1.2,5.5c0.1,3-0.4,5.6-1.4,7.9
			c-1.1,2.3-2.6,4.2-4.6,5.8c-2,1.6-4.4,2.8-7.2,3.7c-2.8,0.9-5.8,1.4-9,1.5c-1.5,0-3,0-4.5-0.2c-1.6-0.2-3.1-0.5-4.6-0.9
			c-1.5-0.4-3-0.8-4.4-1.4c-1-0.4-1.9-0.7-2.8-1.1c-0.7-0.3-1.1-1.1-0.8-1.9l3.8-10.7c0.3-0.8,1.2-1.2,2-0.9
			c0.3,0.1,0.5,0.2,0.8,0.4c0.9,0.4,1.8,0.8,2.8,1.1c1,0.3,2.1,0.6,3.2,0.9c1.1,0.3,2.2,0.4,3.2,0.3c1.6-0.1,2.9-0.4,3.9-0.8
			c1.1-0.5,1.6-1.2,1.5-2.3c0-0.7-0.4-1.3-1.1-1.6c-0.7-0.4-1.5-0.7-2.4-1.1c-0.1,0-0.1,0-0.2-0.1c-0.6-0.2-1.4-0.4-2.4-0.7
			c-1-0.3-2.1-0.7-3.3-1.2c-1.2-0.5-2.4-1.1-3.6-1.8c-1.2-0.7-2.3-1.6-3.3-2.6c-1-1-1.8-2.2-2.5-3.5c-0.7-1.3-1-2.8-1-4.6
			c-0.1-2.9,0.4-5.6,1.5-7.8c1.1-2.3,2.6-4.2,4.5-5.9c1.9-1.6,4.1-2.9,6.6-3.7c2.5-0.9,5.2-1.4,8.1-1.5c2.6-0.1,5.3,0,7.9,0.4
			c2.1,0.3,4.1,0.8,6.1,1.5c0.7,0.3,1.1,1,0.9,1.8l-3,11.6c-0.2,0.9-1.2,1.3-2,1c-1.1-0.4-2.1-0.8-3-1.1c-1.4-0.5-3-0.9-4.9-1.1
			c-0.5-0.1-1.3-0.1-2.2-0.1c-0.9,0-1.8,0.1-2.6,0.3c-0.9,0.2-1.6,0.5-2.2,0.9c-0.6,0.4-1,1-1,1.8c0,0.3,0.2,0.6,0.5,0.8
			c0.3,0.2,0.7,0.3,1.1,0.4c0.4,0.1,0.9,0.2,1.4,0.3c0.4,0.1,0.8,0.1,1.1,0.2c0,0,0.1,0,0.1,0c1.2,0.2,2.5,0.5,3.9,0.9
			C91.3,24,92.4,24.3,93.5,24.8z M107.8,7.5l31.6-2.3c0.9-0.1,1.7,0.7,1.6,1.7l-1.6,12.9c-0.1,0.7-0.7,1.3-1.4,1.3l-13.2,0.6
			c-0.8,0-1.4,0.7-1.4,1.5v0c0,0.9,0.7,1.6,1.6,1.5l8-0.6c0.9-0.1,1.7,0.7,1.6,1.7l-1,8c-0.1,0.7-0.7,1.3-1.4,1.3l-8,0.6
			c-0.8,0.1-1.3,0.7-1.4,1.4l0,0.4c0,0.9,0.7,1.6,1.6,1.5l14.7-1.4c0.9-0.1,1.6,0.6,1.6,1.5l-0.3,14.4c0,0.8-0.6,1.4-1.4,1.5
			l-30.8,1.7c-0.8,0-1.6-0.6-1.6-1.5L106.4,9C106.4,8.2,107,7.6,107.8,7.5z"/>
	</g>
	<linearGradient id="SVGID_2_" gradientUnits="userSpaceOnUse" x1="168.0218" y1="58.5601" x2="168.0218" y2="3.4003">
		<stop  offset="0" style="stop-color:#2293E9"/>
		<stop  offset="1" style="stop-color:#34E1FF"/>
	</linearGradient>
	<path class="st3" d="M189.5,14.8l-9.3,11.5c-0.5,0.6-1.4,0.7-1.9,0.1c-5-5.1-16-2.4-16,6.2c0,8.6,12.3,11.1,17.1,3.4
		c0.5-0.7,1.5-0.8,2.1-0.2l10.4,11c0.4,0.4,0.5,1.1,0.1,1.6c-0.6,0.9-1.6,1.9-2.7,2.8c-1.6,1.3-3.4,2.4-5.5,3.5
		c-2.1,1.1-4.5,1.9-7.1,2.6c-2.6,0.7-5.2,1.1-7.8,1.2c-2.7,0.1-5.3-0.2-7.9-0.9c-2.6-0.7-5-1.8-7.2-3.5c-3.2-2.4-5.5-5.1-7-8.1
		c-1.5-2.9-2.3-6-2.7-9.1c-1.9-16.1,6-26.7,13.9-30.8c7.1-3.7,15-2.9,17.3-2.3c2.3,0.6,4.8,1.6,7.3,3.2c2.3,1.4,4.6,3.4,6.9,6
		C189.9,13.6,189.9,14.3,189.5,14.8z"/>
	<linearGradient id="SVGID_3_" gradientUnits="userSpaceOnUse" x1="204.0731" y1="57.3384" x2="204.0731" y2="4.7839">
		<stop  offset="0" style="stop-color:#2293E9"/>
		<stop  offset="1" style="stop-color:#34E1FF"/>
	</linearGradient>
	<path class="st4" d="M213.6,6.2l-2.4,48.3c0,0.6-0.5,1.2-1.2,1.2l-14,1.6c-0.8,0.1-1.5-0.5-1.5-1.3l0.6-48c0-0.7,0.5-1.2,1.2-1.3
		l15.8-1.9C212.9,4.7,213.6,5.4,213.6,6.2z"/>
	<linearGradient id="SVGID_4_" gradientUnits="userSpaceOnUse" x1="232.5019" y1="57.3222" x2="232.5019" y2="4.0465">
		<stop  offset="0" style="stop-color:#2293E9"/>
		<stop  offset="1" style="stop-color:#34E1FF"/>
	</linearGradient>
	<path class="st5" d="M247.1,19l-5.4,0.6c-0.7,0.1-1.2,0.6-1.2,1.3v33.2c0,0.7-0.5,1.2-1.2,1.3l-15.2,1.9c-0.8,0.1-1.5-0.5-1.5-1.3
		l0.9-33c0-0.8-0.7-1.4-1.4-1.3l-5.4,0.5c-0.8,0.1-1.5-0.6-1.4-1.3L215.7,8c0-0.7,0.5-1.2,1.2-1.3l31.3-2.7c0.8-0.1,1.5,0.6,1.4,1.5
		l-1.4,12.4C248.2,18.5,247.7,19,247.1,19z"/>
	<g>
		<path class="st6" d="M5.1,52L4.3,20.2l-0.2-8l0-2l0-1C4,9.1,4,9,4,8.8c0-0.2,0.1-0.4,0.2-0.5C4.3,8.1,4.4,8,4.6,7.9
			C4.8,7.8,5,7.7,5.1,7.7l1-0.1l2-0.2l15.8-1.7c0.1,0,0.1,0,0.2,0.1C24.1,5.9,24,6,24,6l0,0c-2.6,0.5-5.2,0.9-7.9,1.2
			c-1.3,0.2-2.6,0.4-3.9,0.5c-1.3,0.2-2.6,0.3-3.9,0.5l-2,0.2l-1,0.1l-0.1,0c0,0,0,0,0,0c0,0,0,0-0.1,0c0,0-0.1,0-0.1,0.1
			c0,0,0,0.1,0,0.1l0,0.5l0,1l0,2l0.1,8c0,2.7,0.1,5.3,0.1,8l0.1,8l0,4c0,1.3,0,2.7,0,4c0,2.7,0,5.3,0,8l0,0c0,0.1-0.1,0.1-0.1,0.1
			C5.1,52.2,5.1,52.1,5.1,52z"/>
	</g>
	<g>
		<path class="st6" d="M47.1,52l0.2-27.1l0.1-13.6l0-1.7l0-0.4l0-0.2c0-0.1,0-0.2,0-0.2C47.6,8.5,47.7,8.2,48,8
			c0.1-0.1,0.3-0.2,0.4-0.2c0.2-0.1,0.3-0.1,0.4-0.1l0.8-0.1l1.7-0.2l6.7-0.7c0.1,0,0.1,0,0.2,0.1c0,0.1,0,0.1-0.1,0.2l0,0
			c-2.2,0.4-4.5,0.8-6.7,1.1l-1.7,0.2l-0.8,0.1l-0.1,0c0,0-0.1,0-0.1,0c0,0-0.1,0-0.1,0c-0.1,0-0.1,0.1-0.2,0.1
			c-0.1,0.1-0.2,0.2-0.2,0.3c0,0,0,0.1,0,0.1l0,0.2l0,0.4c0,0.6,0,1.1,0,1.7l0,3.4l0,3.4l-0.1,6.8c0,2.3-0.1,4.5-0.1,6.8l-0.2,6.8
			l-0.1,3.4c0,1.1-0.1,2.3-0.1,3.4c-0.1,2.3-0.2,4.5-0.3,6.8l0,0c0,0.1-0.1,0.1-0.1,0.1C47.2,52.2,47.1,52.1,47.1,52z"/>
	</g>
	<g>
		<path class="st6" d="M107.9,52.8l-0.3-27.4l-0.1-13.7l0-0.9l0-0.4l0-0.2c0-0.1,0-0.2,0-0.2c0.1-0.6,0.5-1.2,1.2-1.3
			c0.2,0,0.3-0.1,0.4-0.1l0.4,0l0.9-0.1l1.7-0.2l6.8-0.7c0.1,0,0.1,0,0.2,0.1c0,0.1,0,0.1-0.1,0.2l0,0c-2.3,0.4-4.5,0.8-6.8,1.1
			l-1.7,0.2l-0.8,0.1l-0.4,0.1c-0.1,0-0.2,0-0.2,0c0,0-0.1,0-0.1,0c-0.3,0.1-0.5,0.4-0.6,0.7c0,0,0,0.1,0,0.1l0,0.2l0,0.4l0,0.9
			l0.1,3.4l0,3.4l0,6.9c0,2.3,0,4.6,0,6.9l0,6.9l0,3.4c0,1.1,0,2.3-0.1,3.4c0,2.3-0.1,4.6-0.1,6.9l0,0c0,0.1-0.1,0.1-0.1,0.1
			C107.9,53,107.9,52.9,107.9,52.8z"/>
	</g>
	<g>
		<path class="st6" d="M195.8,52l0.2-27.1l0.1-13.6l0-1.7l0-0.4l0-0.2c0-0.1,0-0.2,0-0.2c0.1-0.3,0.2-0.6,0.5-0.8
			c0.1-0.1,0.3-0.2,0.4-0.2c0.2-0.1,0.3-0.1,0.4-0.1l0.8-0.1l1.7-0.2l6.7-0.7c0.1,0,0.1,0,0.2,0.1c0,0.1,0,0.1-0.1,0.2l0,0
			c-2.2,0.4-4.5,0.8-6.7,1.1l-1.7,0.2l-0.8,0.1l-0.1,0c0,0-0.1,0-0.1,0c0,0-0.1,0-0.1,0c-0.1,0-0.1,0.1-0.2,0.1
			C197,8.7,197,8.8,197,8.9c0,0,0,0.1,0,0.1l0,0.2l0,0.4c0,0.6,0,1.1,0,1.7l0,3.4l0,3.4l-0.1,6.8c0,2.3-0.1,4.5-0.1,6.8l-0.2,6.8
			l-0.1,3.4c0,1.1-0.1,2.3-0.1,3.4c-0.1,2.3-0.2,4.5-0.3,6.8l0,0c0,0.1-0.1,0.1-0.1,0.1C195.9,52.1,195.8,52,195.8,52z"/>
	</g>
	<g>
		<path class="st6" d="M216.5,20.5l0.1-12.6l0-0.1l0.1,0l10.7-1c0.1,0,0.1,0,0.2,0.1c0,0.1,0,0.1-0.1,0.2l0,0
			c-0.9,0.2-1.8,0.4-2.7,0.5c-0.9,0.2-1.8,0.3-2.7,0.4c-0.9,0.1-1.8,0.2-2.7,0.3l-2.7,0.3l0.7-0.7l-0.1,3.1c0,1-0.1,2.1-0.1,3.1
			c0,1-0.1,2.1-0.2,3.1l-0.1,1.6l-0.1,0.8l-0.1,0.8l0,0c0,0.1-0.1,0.1-0.2,0.1C216.5,20.6,216.5,20.6,216.5,20.5z"/>
	</g>
	<path class="st7" d="M249.2,9.2l-5.4,3.9c-0.8,0.6-1,1.8-0.4,2.6l2.6,3.5l2.2-0.2L249.2,9.2z"/>
	<linearGradient id="SVGID_5_" gradientUnits="userSpaceOnUse" x1="270.6573" y1="57.3766" x2="270.6573" y2="4.4893">
		<stop  offset="0" style="stop-color:#2293E9"/>
		<stop  offset="1" style="stop-color:#34E1FF"/>
	</linearGradient>
	<path class="st8" d="M258.9,5.2l9.3,14.6c0.5,0.8,1.7,0.8,2.2,0l10.2-14.8c0.4-0.6,1.2-0.7,1.8-0.3l13.2,9.1
		c0.6,0.4,0.8,1.3,0.3,1.9l-18.1,23.4c-0.2,0.2-0.3,0.5-0.3,0.8l-0.2,16.2c0,0.8-0.7,1.4-1.5,1.3l-14.3-1.9
		c-0.7-0.1-1.1-0.6-1.1-1.3v-17c0-0.3-0.1-0.5-0.2-0.8l-14.9-20.8c-0.4-0.6-0.3-1.4,0.3-1.8L257,4.9C257.6,4.4,258.5,4.5,258.9,5.2z
		"/>
	<g>
		<path class="st6" d="M261.6,53.6l0.1-18l0,0.1l-11.9-16l-3-4c-0.1-0.1-0.1-0.2-0.2-0.3c-0.1-0.1-0.1-0.2-0.1-0.3
			c0-0.2,0-0.5,0.1-0.7c0.1-0.1,0.1-0.2,0.2-0.3c0.1-0.1,0.2-0.1,0.3-0.2l0.5-0.4l2-1.5l7.9-6.1c0.1,0,0.2,0,0.2,0
			c0,0.1,0,0.1,0,0.2l0,0l-0.9,0.8l-0.9,0.8c-0.6,0.5-1.3,1.1-1.9,1.6l-3.9,3.2l-2,1.6l-0.5,0.4l-0.1,0.1c0,0-0.1,0.1-0.1,0.1
			c0,0,0,0,0,0.1c0,0,0,0.1,0,0.2c0,0,0,0.1,0,0.1c0,0,0,0,0,0c0,0,0,0,0,0l0,0.1c1,1.3,2,2.7,3,4l5.9,8l3,4l2.9,4.1l0.1,0.2l0,0.2
			l-0.1,4.5c0,1.5-0.1,3-0.1,4.5l-0.2,4.5c0,1.5-0.1,3-0.2,4.5l0,0c0,0.1-0.1,0.1-0.1,0.1C261.6,53.8,261.6,53.7,261.6,53.6z"/>
	</g>
	<g>
		<path class="st6" d="M179.5,6.9c-2.4-0.6-4.9-0.9-7.3-0.9c-2.4,0-4.9,0.3-7.2,0.9c-2.3,0.7-4.6,1.6-6.6,2.9
			c-2,1.3-3.9,2.8-5.5,4.7c-1.6,1.8-2.9,3.9-3.9,6.1c-1,2.2-1.7,4.5-2.2,6.9c-0.4,2.4-0.6,4.8-0.5,7.3c0.1,2.5,0.4,4.9,0.8,7.3
			l-0.2,0.1c-0.7-2.4-1.2-4.9-1.5-7.4c-0.3-2.5-0.2-5,0.1-7.6c0.3-2.5,1-5,2.1-7.3c1-2.3,2.4-4.5,4.1-6.5c1.7-1.9,3.7-3.6,5.9-4.9
			c2.2-1.3,4.6-2.3,7.1-2.8c2.5-0.6,5-0.8,7.6-0.6c2.5,0.2,5,0.7,7.3,1.6L179.5,6.9z"/>
	</g>
	<g>
		<path class="st6" d="M96.4,6.1c-0.8-0.1-1.6-0.1-2.3-0.2c-0.8,0-1.6,0-2.3,0c-0.8,0-1.6,0.1-2.3,0.1c-0.8,0.1-1.5,0.2-2.3,0.3
			c-0.8,0.1-1.5,0.3-2.3,0.4c-0.4,0.1-0.7,0.2-1.1,0.3C83.4,7,83,7.1,82.6,7.2c-1.5,0.4-2.9,1-4.2,1.7c-0.3,0.2-0.7,0.4-1,0.6
			c-0.3,0.2-0.6,0.4-0.9,0.6c-0.6,0.4-1.2,0.9-1.7,1.4c-0.1,0.1-0.1,0.1-0.2,0.2l-0.2,0.2L74,12.3l-0.2,0.2l-0.2,0.2l-0.4,0.4
			c-0.3,0.3-0.5,0.6-0.7,0.9c-0.2,0.3-0.4,0.6-0.6,0.9c-0.1,0.2-0.2,0.3-0.3,0.5l-0.3,0.5l-0.3,0.5c-0.1,0.2-0.1,0.3-0.2,0.5
			l-0.2,0.5l-0.1,0.3L70.5,18c-0.1,0.4-0.2,0.7-0.4,1.1c-0.4,1.5-0.7,3-0.9,4.6l0,0c0,0.1-0.1,0.2-0.2,0.2c-0.1,0-0.2-0.1-0.2-0.2
			c0-1.6,0.2-3.2,0.5-4.7c0.4-1.6,0.9-3.1,1.7-4.5c0.8-1.4,1.8-2.7,2.9-3.8c1.2-1.1,2.5-2,3.9-2.7c2.8-1.5,6-2.3,9.1-2.6
			c1.6-0.2,3.2-0.2,4.8-0.2c1.6,0,3.2,0.2,4.7,0.5c0.1,0,0.2,0.1,0.2,0.2C96.6,6,96.5,6.1,96.4,6.1L96.4,6.1z"/>
	</g>
</g>
</svg>
