<?xml version="1.0" encoding="utf-8"?>
<!-- Generator: Adobe Illustrator 24.0.1, SVG Export Plug-In . SVG Version: 6.00 Build 0)  -->
<svg version="1.1" id="Camada_1" xmlns="http://www.w3.org/2000/svg" xmlns:xlink="http://www.w3.org/1999/xlink" x="0px" y="0px"
	 viewBox="0 0 713.2 432.4" style="enable-background:new 0 0 713.2 432.4;" xml:space="preserve">
<style type="text/css">
	.st0{opacity:0.18;fill:#414042;}
	.st1{fill:#FFFFFF;}
	.st2{fill:#C5E6EE;}
	.st3{fill:#143F5D;}
	.st4{fill:#062440;}
	.st5{fill:url(logo-img.svg);}
	.st6{fill:url(logo-img.svg);}
	.st7{fill:url(logo-img.svg);}
	.st8{fill:url(logo-img.svg);}
	.st9{opacity:0.39;fill:#062440;}
	.st10{fill:url(logo-img.svg);}
</style>
<g>
	<path class="st0" d="M707.1,291.3c-0.4-0.5-0.8-1-1.3-1.4l-1.6-1.7c-0.1-0.1-0.2-0.1-0.3-0.2l-0.9-0.4c-0.2-0.1-0.4-0.3-0.6-0.4
		l-30.3-20.8c-3.8-2.6-8.3-4-12.9-4c-5.4,0-10.5,1.9-14.5,5.2c-0.6,0.5-1.4,0.1-1.4-0.7v-64.2c0-0.5-0.4-0.9-0.9-0.9h-19
		c-0.5,0-0.9-0.4-0.9-0.9v-27.1c0-0.5-0.4-0.9-0.9-0.9h-29.2c-0.5,0-0.9-0.4-0.9-0.9v-18c0-0.5-0.4-0.9-0.9-0.9h-53.2
		c-0.5,0-0.9-0.4-0.9-0.9v-46.4c0-0.3-0.2-0.6-0.5-0.8l-65.6-29.4c-0.6-0.3-1.2,0.2-1.2,0.8v89.9c0,0.7-0.7,1.1-1.3,0.7l-8.3-5.3
		c-0.2-0.2-0.4-0.4-0.4-0.7v-43.9c0-0.5-0.4-0.9-0.9-0.9h-10.1c-0.5,0-0.9-0.4-0.9-0.9v-43c0-0.5-0.4-0.9-0.9-0.9h-5
		c-0.5,0-0.9-0.4-0.9-0.9V15.3c0-0.5-0.4-0.9-0.9-0.9h-25.5c-0.5,0-0.9,0.4-0.9,0.9v55.6c0,0.5-0.4,0.9-0.9,0.9h-5
		c-0.5,0-0.9,0.4-0.9,0.9v43c0,0.5-0.4,0.9-0.9,0.9h-10.1c-0.5,0-0.9,0.4-0.9,0.9v24.9c0,0.5-0.4,0.9-0.9,0.9h-5.8
		c-0.5,0-0.9-0.4-0.9-0.9V39c0-0.6-0.7-1.1-1.3-0.8l-70.5,37.7c-0.3,0.1-0.5,0.4-0.5,0.8v41.5c0,0.6-0.7,1.1-1.3,0.8l-42.8-22.8
		c-0.6-0.3-1.3,0.1-1.3,0.8V120c0,0.5-0.4,0.9-0.9,0.9l0,0c-0.5,0-0.9,0.4-0.9,0.9v22.4c0,0.5-0.4,0.9-0.9,0.9h-15.9
		c-0.5,0-0.9-0.4-0.9-0.9v-13.6c0-0.5-0.4-0.9-0.9-0.9h-0.5c-0.5,0-0.9-0.4-0.9-0.9V128c0-0.3-0.1-0.6-0.4-0.7l-3.6-2.3
		c-0.2-0.2-0.4-0.4-0.4-0.7v-51c0-0.5-0.4-0.9-0.9-0.9h-25.5c-0.5,0-0.9,0.4-0.9,0.9v32.5c0,0.7-0.7,1.1-1.3,0.7l-10.1-6.5
		c-0.3-0.2-0.6-0.2-0.9,0l-42.8,27.3c-0.2,0.2-0.4,0.4-0.4,0.7v16.7c0,0.3-0.2,0.6-0.5,0.8l-27.5,12.3c-0.6,0.3-1.2-0.2-1.2-0.8
		V96.3c0-0.5-0.4-0.9-0.9-0.9H67c-0.5,0-0.9,0.4-0.9,0.9v88.7c0,0.5-0.4,0.9-0.9,0.9H36.1c-0.5,0-0.9,0.4-0.9,0.9v79.1
		c0,0.4-0.3,0.8-0.8,0.8c-4.3,0.5-8.7,1-13,1.5c-5.2,0.6-10.2,3.1-14.2,7.1l-0.2,0.2L7,275.6c-1,1.1-6,6.9-6.1,15.6
		c-0.1,3.2,0,7.5,0,8.4l2.2,106.8C3.4,418,12.4,427.8,24,429l28.3,2.9c0.8,0.1,1.6,0.1,2.4,0.1c7.1,0,13.5-3.2,17.7-8.3
		c0.3-0.3,0.8-0.4,1.2-0.1l5.8,4.3c4,3,8.8,4.5,13.8,4.5c5.4,0,10.6-1.9,14.7-5.3c0.3-0.2,0.7-0.3,1,0c3.8,2.6,8.2,3.9,12.9,3.9
		c0.9,0,1.8,0,2.6-0.1l31.3-3.6c2.8-0.3,5.4-1.1,7.9-2.4c0.2-0.1,0.5-0.1,0.7,0c0.4,0.2,0.9,0.3,1.3,0.5c3.9,1.4,8,2.7,12.2,3.7
		c4.3,1.1,8.6,1.9,13,2.4c3.7,0.4,7.4,0.7,11,0.7c0.8,0,1.6,0,2.4,0l0.2,0c9-0.4,17.6-1.8,25.6-4.3c4.9-1.5,9.5-3.4,13.7-5.7
		c0.3-0.2,0.7-0.1,1,0.2c4.2,4.4,10.2,7.2,16.8,7.2c0.4,0,0.8,0,1.3,0l70.6-3.8c6.9-0.4,13.1-3.8,17.1-9c0.3-0.4,0.8-0.5,1.2-0.1
		c0.7,0.6,1.4,1.1,2.1,1.7c7.1,5.5,15,9.4,23.5,11.6c6.7,1.8,13.7,2.6,20.6,2.6c1.1,0,2.2,0,3.2-0.1c7.6-0.3,15.1-1.4,22.4-3.4
		c7.1-1.9,13.7-4.4,19.7-7.3c0.2-0.1,0.4-0.2,0.6-0.3c0.4-0.2,0.8-0.1,1,0.2c0.4,0.5,0.8,0.9,1.2,1.3c4.3,4.4,10.1,6.8,16.2,6.8
		c0.9,0,1.7,0,2.6-0.1l32.1-3.7c4.3-0.5,8.1-2.1,11.3-4.6c0.4-0.3,0.9-0.2,1.2,0.1c0.4,0.4,0.8,0.9,1.2,1.3
		c4.3,4.4,10.2,6.9,16.3,6.9c0.9,0,1.9-0.1,2.8-0.2l34.9-4.3c11.4-1.4,20-11.1,20-22.6v-39.1c0-0.8,1.1-1.2,1.6-0.5l4.2,5.9
		c0.1,0.1,0.2,0.3,0.2,0.5v33.3c0,11.4,8.5,21.1,19.8,22.6l32.9,4.4c1,0.1,2,0.2,3,0.2c12.4,0,22.7-10.1,22.8-22.6l0.3-31.3
		c0-0.2,0.1-0.4,0.2-0.5l37.9-49C713.6,318.6,716.6,302.3,707.1,291.3z"/>
	<path class="st1" d="M707.1,277.5c-0.4-0.5-0.8-1-1.3-1.4l-1.6-1.7c-0.1-0.1-0.2-0.1-0.3-0.2l-0.9-0.4c-0.2-0.1-0.4-0.3-0.6-0.4
		l-30.3-20.8c-3.8-2.6-8.3-4-12.9-4c-5.4,0-10.5,1.9-14.5,5.2c-0.6,0.5-1.4,0.1-1.4-0.7V189c0-0.5-0.4-0.9-0.9-0.9h-19
		c-0.5,0-0.9-0.4-0.9-0.9v-27.1c0-0.5-0.4-0.9-0.9-0.9h-29.2c-0.5,0-0.9-0.4-0.9-0.9v-18c0-0.5-0.4-0.9-0.9-0.9h-53.2
		c-0.5,0-0.9-0.4-0.9-0.9V92.3c0-0.3-0.2-0.6-0.5-0.8l-65.6-29.4c-0.6-0.3-1.2,0.2-1.2,0.8v89.9c0,0.7-0.7,1.1-1.3,0.7l-8.3-5.3
		c-0.2-0.2-0.4-0.4-0.4-0.7v-43.9c0-0.5-0.4-0.9-0.9-0.9h-10.1c-0.5,0-0.9-0.4-0.9-0.9v-43c0-0.5-0.4-0.9-0.9-0.9h-5
		c-0.5,0-0.9-0.4-0.9-0.9V1.6c0-0.5-0.4-0.9-0.9-0.9h-25.5c-0.5,0-0.9,0.4-0.9,0.9v55.6c0,0.5-0.4,0.9-0.9,0.9h-5
		c-0.5,0-0.9,0.4-0.9,0.9v43c0,0.5-0.4,0.9-0.9,0.9h-10.1c-0.5,0-0.9,0.4-0.9,0.9v24.9c0,0.5-0.4,0.9-0.9,0.9h-5.8
		c-0.5,0-0.9-0.4-0.9-0.9V25.3c0-0.6-0.7-1.1-1.3-0.8l-70.5,37.7c-0.3,0.1-0.5,0.4-0.5,0.8v41.5c0,0.6-0.7,1.1-1.3,0.8l-42.8-22.8
		c-0.6-0.3-1.3,0.1-1.3,0.8v23.1c0,0.5-0.4,0.9-0.9,0.9l0,0c-0.5,0-0.9,0.4-0.9,0.9v22.4c0,0.5-0.4,0.9-0.9,0.9h-15.9
		c-0.5,0-0.9-0.4-0.9-0.9v-13.6c0-0.5-0.4-0.9-0.9-0.9h-0.5c-0.5,0-0.9-0.4-0.9-0.9v-0.8c0-0.3-0.1-0.6-0.4-0.7l-3.6-2.3
		c-0.2-0.2-0.4-0.4-0.4-0.7v-51c0-0.5-0.4-0.9-0.9-0.9h-25.5c-0.5,0-0.9,0.4-0.9,0.9v32.5c0,0.7-0.7,1.1-1.3,0.7l-10.1-6.5
		c-0.3-0.2-0.6-0.2-0.9,0l-42.8,27.3c-0.2,0.2-0.4,0.4-0.4,0.7V131c0,0.3-0.2,0.6-0.5,0.8l-27.5,12.3c-0.6,0.3-1.2-0.2-1.2-0.8V82.6
		c0-0.5-0.4-0.9-0.9-0.9H67c-0.5,0-0.9,0.4-0.9,0.9v88.7c0,0.5-0.4,0.9-0.9,0.9H36.1c-0.5,0-0.9,0.4-0.9,0.9v79.1
		c0,0.4-0.3,0.8-0.8,0.8c-4.3,0.5-8.7,1-13,1.5c-5.2,0.6-10.2,3.1-14.2,7.1l-0.2,0.2L7,261.8c-1,1.1-6,6.9-6.1,15.6
		c-0.1,3.2,0,7.5,0,8.4l2.2,106.8c0.2,11.7,9.2,21.4,20.8,22.6l28.3,2.9c0.8,0.1,1.6,0.1,2.4,0.1c7.1,0,13.5-3.2,17.7-8.3
		c0.3-0.3,0.8-0.4,1.2-0.1l5.8,4.3c4,3,8.8,4.5,13.8,4.5c5.4,0,10.6-1.9,14.7-5.3c0.3-0.2,0.7-0.3,1,0c3.8,2.6,8.2,3.9,12.9,3.9
		c0.9,0,1.8,0,2.6-0.1l31.3-3.6c2.8-0.3,5.4-1.1,7.9-2.4c0.2-0.1,0.5-0.1,0.7,0c0.4,0.2,0.9,0.3,1.3,0.5c3.9,1.4,8,2.7,12.2,3.7
		c4.3,1.1,8.6,1.9,13,2.4c3.7,0.4,7.4,0.7,11,0.7c0.8,0,1.6,0,2.4,0l0.2,0c9-0.4,17.6-1.8,25.6-4.3c4.9-1.5,9.5-3.4,13.7-5.7
		c0.3-0.2,0.7-0.1,1,0.2c4.2,4.4,10.2,7.2,16.8,7.2c0.4,0,0.8,0,1.3,0l70.6-3.8c6.9-0.4,13.1-3.8,17.1-9c0.3-0.4,0.8-0.5,1.2-0.1
		c0.7,0.6,1.4,1.1,2.1,1.7c7.1,5.5,15,9.4,23.5,11.6c6.7,1.8,13.7,2.6,20.6,2.6c1.1,0,2.2,0,3.2-0.1c7.6-0.3,15.1-1.4,22.4-3.4
		c7.1-1.9,13.7-4.4,19.7-7.3c0.2-0.1,0.4-0.2,0.6-0.3c0.4-0.2,0.8-0.1,1,0.2c0.4,0.5,0.8,0.9,1.2,1.3c4.3,4.4,10.1,6.8,16.2,6.8
		c0.9,0,1.7,0,2.6-0.1L497,412c4.3-0.5,8.1-2.1,11.3-4.6c0.4-0.3,0.9-0.2,1.2,0.1c0.4,0.4,0.8,0.9,1.2,1.3
		c4.3,4.4,10.2,6.9,16.3,6.9c0.9,0,1.9-0.1,2.8-0.2l34.9-4.3c11.4-1.4,20-11.1,20-22.6v-39.1c0-0.8,1.1-1.2,1.6-0.5l4.2,5.9
		c0.1,0.1,0.2,0.3,0.2,0.5v33.3c0,11.4,8.5,21.1,19.8,22.6l32.9,4.4c1,0.1,2,0.2,3,0.2c12.4,0,22.7-10.1,22.8-22.6l0.3-31.3
		c0-0.2,0.1-0.4,0.2-0.5l37.9-49C713.6,304.9,716.6,288.5,707.1,277.5z"/>
	<g>
		<g>
			<g>
				<g>
					<g>
						<polygon class="st2" points="610.7,200.1 610.7,171.3 573.8,171.3 573.8,153.6 524.8,153.6 524.8,99.6 481.5,80.1 
							481.5,169.8 447.5,169.8 447.5,114.8 435.7,114.8 435.7,70.1 429,70.1 429,12.8 425.8,12.8 425.8,70.1 419.1,70.1 
							419.1,114.8 407.3,114.8 407.3,159.9 395.5,159.9 395.5,141.4 375.7,141.4 375.7,43.8 327.5,69.6 327.5,119.1 280.5,119.1 
							280.5,189.6 265.6,189.6 265.6,143.2 236.5,143.2 236.5,120.3 205.1,100.1 173.5,120.3 173.5,168 120.3,168 120.3,93.7 
							78.2,93.7 78.2,184.2 47.3,184.2 47.3,281.2 78.2,281.2 82.5,281.2 114.1,281.2 120.3,281.2 173.5,281.2 179.6,281.2 
							235.9,281.2 236.5,281.2 261.9,281.2 265.6,281.2 280.5,281.2 285.4,281.2 327.5,281.2 331.8,281.2 372,281.2 375.7,281.2 
							390.6,281.2 395.5,281.2 407.3,281.2 411.6,281.2 447.5,281.2 481.5,281.2 490.2,281.2 517.7,281.2 524.8,281.2 569.5,281.2 
							573.8,281.2 596.1,281.2 596.1,302 631.4,302 631.4,200.1 						"/>
						<g>
							<polygon class="st3" points="176.4,297.5 133.1,297.5 133.1,157.4 176.4,138 							"/>
							
								<rect x="167.7" y="227.7" transform="matrix(-1 -1.224647e-16 1.224647e-16 -1 378.1629 525.111)" class="st3" width="42.7" height="69.8"/>
							
								<rect x="210.4" y="172.6" transform="matrix(-1 -1.224647e-16 1.224647e-16 -1 461.0569 470.0545)" class="st3" width="40.2" height="124.9"/>
							
								<rect x="222.2" y="127.9" transform="matrix(-1 -1.224647e-16 1.224647e-16 -1 461.0568 386.1505)" class="st3" width="16.6" height="130.4"/>
							
								<rect x="228.9" y="70.6" transform="matrix(-1 -1.224647e-16 1.224647e-16 -1 461.0568 307.5967)" class="st3" width="3.2" height="166.4"/>
							
								<rect x="246.3" y="217.8" transform="matrix(-1 -1.224647e-16 1.224647e-16 -1 513.639 515.2131)" class="st3" width="21" height="79.7"/>
							
								<rect x="262.4" y="199.2" transform="matrix(-1 -1.224647e-16 1.224647e-16 -1 548.281 496.6548)" class="st3" width="23.5" height="98.3"/>
							<polygon class="st3" points="330.4,297.5 282.2,297.5 282.2,101.7 330.4,127.4 							"/>
							
								<rect x="326.1" y="176.9" transform="matrix(-1 -1.224647e-16 1.224647e-16 -1 703.5528 474.3847)" class="st3" width="51.3" height="120.5"/>
							
								<rect x="372.5" y="247.4" transform="matrix(-1 -1.224647e-16 1.224647e-16 -1 768.5072 544.9066)" class="st3" width="23.5" height="50"/>
							
								<rect x="392.3" y="201.1" transform="matrix(-1 -1.224647e-16 1.224647e-16 -1 814.2846 498.5107)" class="st3" width="29.7" height="96.4"/>
							<polygon class="st3" points="484.5,297.5 421.4,297.5 421.4,178.2 452.9,158 484.5,178.2 							"/>
							
								<rect x="478.3" y="225.8" transform="matrix(-1 -1.224647e-16 1.224647e-16 -1 1022.1383 523.2552)" class="st3" width="65.6" height="71.7"/>
							
								<rect x="537.7" y="151.6" transform="matrix(-1 -1.224647e-16 1.224647e-16 -1 1117.4047 449.0216)" class="st3" width="42.1" height="145.9"/>
							
								<rect x="575.4" y="209.1" transform="matrix(-1 -1.224647e-16 1.224647e-16 -1 1186.0707 506.5527)" class="st3" width="35.3" height="88.4"/>
							
								<rect x="84.1" y="211.4" transform="matrix(-1 -1.224647e-16 1.224647e-16 -1 224.3121 508.8543)" class="st3" width="56" height="86.1"/>
							<rect x="292.2" y="132.5" class="st2" width="7" height="18.9"/>
							<rect x="309.8" y="132.5" class="st2" width="7" height="18.9"/>
							<rect x="292.2" y="168.5" class="st2" width="7" height="18.9"/>
							<rect x="309.8" y="168.5" class="st2" width="7" height="18.9"/>
							<rect x="292.2" y="204.5" class="st2" width="7" height="18.9"/>
							<rect x="309.8" y="204.5" class="st2" width="7" height="18.9"/>
							<rect x="292.2" y="240.5" class="st2" width="7" height="18.9"/>
							<rect x="309.8" y="240.5" class="st2" width="7" height="18.9"/>
							<rect x="339.3" y="190.7" class="st2" width="7" height="18.9"/>
							<rect x="356.9" y="190.7" class="st2" width="7" height="18.9"/>
							<rect x="339.3" y="226.7" class="st2" width="7" height="18.9"/>
							<rect x="356.9" y="226.7" class="st2" width="7" height="18.9"/>
							<rect x="399.3" y="208.5" class="st2" width="7" height="18.9"/>
							<rect x="416.9" y="208.5" class="st2" width="7" height="18.9"/>
							<rect x="399.3" y="244.5" class="st2" width="7" height="18.9"/>
							<rect x="416.9" y="244.5" class="st2" width="7" height="18.9"/>
							<rect x="443.2" y="188" class="st2" width="7" height="18.9"/>
							<rect x="460.8" y="188" class="st2" width="7" height="18.9"/>
							<rect x="443.2" y="224" class="st2" width="7" height="18.9"/>
							<rect x="460.8" y="224" class="st2" width="7" height="18.9"/>
							<rect x="548.2" y="165.2" class="st2" width="7" height="18.9"/>
							<rect x="565.8" y="165.2" class="st2" width="7" height="18.9"/>
							<rect x="548.2" y="201.2" class="st2" width="7" height="18.9"/>
							<rect x="565.8" y="201.2" class="st2" width="7" height="18.9"/>
							<rect x="219.6" y="180.9" class="st2" width="7" height="18.9"/>
							<rect x="237.2" y="180.9" class="st2" width="7" height="18.9"/>
							<rect x="219.6" y="216.9" class="st2" width="7" height="18.9"/>
							<rect x="237.2" y="216.9" class="st2" width="7" height="18.9"/>
							<rect x="143.3" y="164.7" class="st2" width="7" height="18.9"/>
							<rect x="160.9" y="164.7" class="st2" width="7" height="18.9"/>
							<rect x="143.3" y="200.7" class="st2" width="7" height="18.9"/>
							<rect x="160.9" y="200.7" class="st2" width="7" height="18.9"/>
						</g>
					</g>
				</g>
			</g>
			<g>
				<path class="st3" d="M698,285.3c-0.3-0.3-0.5-0.6-0.8-0.9l-0.3-0.3l-0.1-0.1c-0.3-0.3-0.6-0.5-1-0.8l-30.3-20.8
					c-1.8-1.2-3.9-1.9-6.1-1.9c-3.6,0-6.9,1.7-8.9,4.7L631,293.3l-17.5-27.5c-2-3.1-5.4-5-9.1-5c-2.4,0-4.8,0.8-6.7,2.3l-4.8,3.8
					c-0.2-0.6-0.4-1-0.6-1.3l-0.1-0.2l-0.2-0.3c-0.1-0.2-0.2-0.4-0.3-0.5l-2-3.3h-1.3c-1.7-1-3.7-1.6-5.7-1.6c-0.3,0-0.6,0-0.9,0
					l-71.7,6.1l-3.8-2.5c-1.8-1.2-3.9-1.9-6.2-1.9c-0.4,0-0.9,0-1.3,0.1l-36.3,4.3c-5.4,0.6-9.5,5.2-9.5,10.6l-0.1,5.8
					c-5.5-6.1-11.1-11-16.7-14.4c-6.5-4-12.9-6.7-19-8.2c-3.4-0.8-8.4-1.3-13.3-1.3c-8.1,0-20.1,1.3-31.8,7.3
					c-10.5,5.4-19.8,14.5-26.2,25.5c-1.3,2.1-2.4,4.4-3.4,6.7l1.8-15.1c0.5-4.4,0.8-9-0.5-12.8c0-0.1-0.2-0.4-0.2-0.4
					s-1.5-3.4-3.8-5c-1.4-1-4.2-2.1-6.6-2.1c-0.3,0-0.6,0-0.8,0l-72.5,5.4c-1.6,0.1-3.1,0.6-4.5,1.3c-0.9-1.2-2-2.3-3.5-3.1
					c-0.6-0.3-1.2-0.6-1.8-0.9c-4.8-1.7-10-3-15.3-3.8c-4.9-0.8-9.9-1.1-14.9-1.1c-1.6,0-3.2,0-4.7,0.1c-7.3,0.3-14.2,1.6-20.7,3.8
					c-6.7,2.3-12.7,5.6-17.7,10c-2.4,2.1-4.6,4.4-6.6,6.9c0-0.8,0.3-7-0.1-9.7c0,0-0.6-4.7-4.7-7.7c-1.6-1.2-4.1-2.1-6.5-2.1
					c-0.4,0-0.9,0-1.3,0.1l-35.5,4.2c-4,0.5-7.4,3.1-8.9,6.6c-3.7-3.7-8.3-6.6-13.8-8.7c-5.1-2-11.1-3-17.8-3
					c-2.7,0-5.5,0.2-8.4,0.5c-16,1.5-32.8,3.3-49.9,5.3c-2.5,0.3-5,1.5-7.1,3.6c0,0-2.9,3.1-2.9,7.6c-0.1,3.1,0,7.7,0,7.9l2.2,106.8
					c0.1,5.6,4.4,10.3,10.1,10.9l28.3,2.9c0.4,0,0.8,0.1,1.2,0.1c6.1,0,11.1-4.9,11.2-11l0.1-5.9l20.5,15.1c1.9,1.4,4.2,2.2,6.7,2.2
					c3.2,0,6.3-1.4,8.4-3.8l9.1-10.3l0,1.3c0,3,1.1,5.9,3.2,8c2.1,2.2,5,3.3,8,3.3c0.4,0,0.9,0,1.3-0.1l31.3-3.6
					c3.2-0.4,5.9-2,7.7-4.4c0.3,0.2,0.6,0.3,0.9,0.4c2.1,0.9,4.4,1.8,6.7,2.7c3.5,1.3,7.2,2.4,10.9,3.4c3.8,0.9,7.6,1.7,11.5,2.1
					c3.2,0.4,6.4,0.6,9.5,0.6c0.7,0,1.4,0,2.1,0l0.1,0c8-0.3,15.6-1.6,22.5-3.7c7.2-2.3,13.6-5.5,18.9-9.7c1.7-1.4,3.4-2.9,4.9-4.5
					l0,4.2c0.1,6.1,5.1,11.1,11.2,11.1c0.2,0,0.4,0,0.6,0l70.6-3.8c5.8-0.3,10.5-5.1,10.6-11l0.2-13.7c4,7.2,9.9,13.9,17.5,19.8
					c5.8,4.5,12.3,7.7,19.2,9.5c5.7,1.5,11.7,2.3,17.6,2.3c0,0,0,0,0,0c0.9,0,1.8,0,2.8-0.1c6.7-0.3,13.3-1.3,19.7-3
					c6.3-1.7,12.3-3.9,17.6-6.5c5.1-2.5,9.7-5.4,13.6-8.4l-0.1,4.3c0,2.9,1.1,5.7,3.1,7.7c2,2.1,4.8,3.2,7.7,3.2
					c0.4,0,0.8,0,1.2-0.1l32.1-3.7c5.3-0.6,9.3-4.9,9.6-10.2l3.4-66.8c0.5,0.1,1,0.1,1.5,0.1c0.4,0,0.7,0,1.1-0.1l6.7-0.7l-1.7,63.9
					c0,0.6,0,1.3,0.1,1.9l-0.1,4.5c-0.1,2.9,1,5.7,3.1,7.8c2,2.1,4.8,3.3,7.7,3.3c0.4,0,0.9,0,1.3-0.1l34.9-4.3
					c5.4-0.7,9.5-5.3,9.5-10.7v-71.8l4.9-0.6l25.1,35v37.4c0,5.4,4,10,9.4,10.7l32.9,4.4c0.5,0.1,1,0.1,1.4,0.1c0,0,0,0,0,0
					c5.9,0,10.7-4.8,10.8-10.7l0.4-35.6l40.6-52.4C701,301.5,703.4,291.5,698,285.3z"/>
				<g>
					<path class="st4" d="M162.1,272.7c-0.2-1.8-1.9-3.2-3.8-3l-35.5,4.2c-1.7,0.2-3,1.6-3,3.3l-1.4,109.4c0,0.3,0,0.5,0.1,0.8
						l-0.1,7c0,2.1,1.8,3.7,3.8,3.4l31.3-3.6c1.7-0.2,2.9-1.6,3-3.2l5.6-110.1C162.2,279,162.3,274.2,162.1,272.7L162.1,272.7z"/>
					<path class="st4" d="M115.4,296.8c-0.4-5.8-2.2-10.9-5.4-15.3c-3.1-4.4-7.7-7.7-13.7-10.1c-6-2.3-13.6-3-22.6-2
						c-16,1.5-32.6,3.3-49.8,5.3c-1.6,0.2-2.8,1.4-3,3c0,0,0,0,0,0c0,0.1,0,0.2,0,0.3c0,0.1,0,0.1,0,0.2l0,0.1c-0.1,2.4,0,6.1,0,7.7
						L23,392.8c0,1.7,1.3,3.1,3.1,3.3l28.3,2.9c2,0.2,3.7-1.3,3.8-3.3l0.3-14.4c0-2.8,3.2-4.3,5.4-2.7l27.3,20.1
						c1.4,1,3.4,0.8,4.6-0.5l17.7-20c1.4-1.5,3.9-8.6-0.1-12.4c0,0-0.1-0.1-0.1-0.1c0,0,0,0,0,0l0,0c-0.1-0.1-0.3-0.3-0.5-0.4
						l-21.2-13.9c4.3-3.3,8-7,11.2-11c4.6-5.8,7.9-11.7,10.1-17.9c2.1-6.1,3-12.1,2.5-17.9c0-0.3-0.1-0.6-0.1-0.8
						C115.5,301.4,115.5,299.1,115.4,296.8z M56.1,317.4c0.1-1.4,1-2.5,2.3-3c3.6-1.3,6.6-2,8.9-2c2.7,0,4.7,0.4,6,1.3
						c0.9,0.7,1.6,1.4,2.1,2.3c-0.3,0.6-0.6,1.2-1,1.9c-0.9,1.5-2.2,3.1-4,4.7c-1.7,1.6-3.9,3.2-6.4,4.6c-1.3,0.7-2.7,1.4-4.1,1.9
						c-1.7,0.6-3.5-0.2-4.2-1.6L56.1,317.4z"/>
					<path class="st4" d="M336.2,272.8C336.2,272.7,336.1,272.7,336.2,272.8L336.2,272.8c-0.6-1.4-1.9-2.3-3.4-2.2l-72.5,5.4
						c-1.8,0.1-3.2,1.6-3.2,3.4l0.1,7.1c0,0.2-0.1,0.4-0.1,0.7l1,105.9c0,1.9,1.7,3.5,3.6,3.4l70.6-3.8c1.8-0.1,3.2-1.6,3.2-3.3
						l0.6-32.9c0-1.7,0.2-5.3,0-7.7l0-0.1c0-0.4-0.1-0.8-0.2-1.1c0,0,0,0,0,0l0,0c-0.5-1.5-1.9-2.5-3.6-2.3l-14.7,1.4
						c1-0.5,1.7-1.5,1.9-2.7l2.2-18.4c0.3-2.1,1.3-8.3-0.7-10.3l8.4-0.4c1.7-0.1,3-1.3,3.2-3l3.6-29.6c0.3-2.1,0.8-6.7-0.1-9.3
						C336.2,272.9,336.2,272.8,336.2,272.8z M298.7,348.3c-0.2,0-0.4,0-0.7,0c0,0,0.1,0,0.1,0l4.6-0.4L298.7,348.3z M321.1,315.2
						C321.1,315.2,321.1,315.2,321.1,315.2L321.1,315.2L321.1,315.2z"/>
					<path class="st4" d="M254.4,348.1c-0.2-4.8-1.1-9-2.8-12.5c-1.7-3.5-3.8-6.5-6.4-9c-2.6-2.5-5.4-4.6-8.5-6.4
						c-3.1-1.7-6.2-3.3-9.2-4.6c-2.5-1.1-5.1-1.9-7.8-2.5c-3.1-0.8-6.1-1.4-8.9-2c-0.1,0-0.1,0-0.2,0c-0.7-0.1-1.5-0.2-2.5-0.3
						c-1-0.1-1.9-0.3-2.9-0.5c1.1-0.5,2.2-0.9,3.5-1.2c2-0.4,4-0.7,6-0.7c2.1,0,3.8,0.1,5.1,0.3c4.2,0.6,8,1.4,11.1,2.5
						c2.2,0.8,4.5,1.6,6.9,2.6c1.9,0.8,4.1-0.3,4.6-2.3l6.8-26.6c0.4-1.7,1.5-10.2-1.4-11.5c0,0,0,0,0,0c-0.2-0.1-0.5-0.3-0.7-0.4
						c-4.4-1.6-9-2.7-13.9-3.5c-6-0.9-12-1.2-18.1-0.9c-6.6,0.3-12.7,1.4-18.5,3.4c-5.8,2-10.8,4.8-15.2,8.5
						c-4.3,3.7-7.8,8.2-10.3,13.5c-2.5,5.3-3.7,11.3-3.5,18c0,0.8,0.1,1.6,0.2,2.4c-0.2,1.7-0.2,3.5-0.2,5.4c0.1,4,0.9,7.4,2.4,10.5
						c1.5,3,3.4,5.7,5.6,8c2.3,2.3,4.8,4.3,7.5,5.9c2.7,1.6,5.5,3,8.2,4.2c2.7,1.2,5.2,2.1,7.6,2.7c2.3,0.6,4.1,1.2,5.5,1.5
						c0.1,0,0.3,0.1,0.4,0.1c2.1,0.8,4,1.7,5.5,2.5c0.2,0.1,0.4,0.2,0.6,0.4c-0.5,0.4-1,0.7-1.6,0.9c-2.5,1.1-5.5,1.7-9,1.9
						c-2.4,0.1-4.9-0.1-7.4-0.7c-2.5-0.6-4.9-1.3-7.2-2c-2.3-0.8-4.5-1.6-6.5-2.5c-0.6-0.3-1.3-0.6-1.8-0.8c-1.8-0.8-3.9,0.1-4.6,2
						l-8.6,24.2l-0.1,0.3c-2.5,7.8,0.2,11.5,1.9,12.2c2,0.9,4.1,1.7,6.4,2.5c3.3,1.2,6.7,2.2,10.1,3.1c3.5,0.9,7,1.5,10.6,2
						c3.6,0.4,7,0.6,10.4,0.5c7.3-0.3,14.2-1.4,20.5-3.4c6.4-2,11.8-4.8,16.4-8.4c4.6-3.6,8.1-8,10.6-13.3
						c2.5-5.3,3.6-11.3,3.3-18.2c0-0.7-0.1-1.3-0.1-1.9C254.5,352.1,254.5,350.1,254.4,348.1z"/>
					<path class="st4" d="M453.5,366.5c-0.1-0.1-0.2-0.3-0.3-0.4l-23.8-25.3c-1.4-1.4-3.7-1.2-4.8,0.5
						c-10.5,16.6-36.3,12.3-39.1-4.7c2.6-17,25.5-21.9,36.4-10.9c1.2,1.3,3.3,1.1,4.4-0.3l21.4-26.3c0.9-1.1,2.3-7.4,0.3-9.8
						c0,0,0,0,0,0c-0.1-0.2-0.2-0.3-0.3-0.5c-5.2-6-10.5-10.6-15.8-13.8c-5.8-3.6-11.4-6-16.8-7.3c-5.4-1.3-23.4-3.1-39.7,5.4
						c-16.9,8.8-33.8,30.4-32.6,62.9c-0.2,4.5,0,9.2,0.6,14.1c0.9,7.1,2.7,14.1,6.2,20.8c3.5,6.8,8.8,12.9,16.1,18.5
						c5,3.9,10.5,6.6,16.4,8.1c5.9,1.5,12,2.2,18.1,2c6.1-0.2,12.1-1.2,18-2.7c5.9-1.6,11.3-3.6,16.2-6c4.9-2.4,9.2-5.1,12.7-8
						c2.7-2.2,4.8-4.3,6.3-6.5C454.3,375,455.6,369.2,453.5,366.5L453.5,366.5z"/>
					<path class="st4" d="M503,272.3c-0.2-1.6-1.7-2.8-3.3-2.6l-36.3,4.3c-1.5,0.2-2.6,1.4-2.7,3l-1.4,110.2c0,0.2,0,0.5,0.1,0.7
						l-0.1,5.7c0,1.8,1.6,3.2,3.4,3l32.1-3.7c1.5-0.2,2.6-1.4,2.7-2.8l5.6-110.9C503.1,277.3,503.2,273.8,503,272.3L503,272.3z"/>
					<path class="st4" d="M692.1,291L692.1,291c-0.2-0.3-0.5-0.5-0.8-0.7L661,269.5c-1.4-0.9-3.2-0.6-4.2,0.8l-23.5,34
						c-1.2,1.8-3.9,1.7-5-0.1l-21.4-33.6c-1-1.5-3-1.9-4.4-0.8L585,283.5l0.6-5.9c0.2-1.9,0.6-6.5-0.3-8c0,0,0,0,0,0c0,0,0,0,0-0.1
						l0,0c-0.5-1-1.7-1.7-2.9-1.6l-71.8,6.1c-1.5,0.1-2.7,1.4-2.8,2.9l-0.8,29.5c0,0.4,0,0.7,0.2,1l-0.2,5.3
						c-0.1,1.8,1.5,3.3,3.3,3.1l12.3-1.2c1.5-0.1,2.8,0.8,3.2,2.1l-1.8,70.3c0,0.3,0,0.7,0.1,1l-0.1,5.4c0,1.8,1.6,3.3,3.4,3.1
						l35-4.3c1.5-0.2,2.6-1.5,2.6-3v-6.4v-69.7c0-1.5,1.1-2.8,2.7-3l12.3-1.4c0.4-0.1,0.8-0.2,1.2-0.4l28.8,40.3
						c0.4,0.5,0.6,1.1,0.6,1.8v32.6v6.4c0,1.5,1.1,2.8,2.6,3l32.9,4.4c1.8,0.2,3.4-1.1,3.4-3l0.4-37.2c0-0.7,0.2-1.3,0.6-1.8
						L692,301C693.1,299.6,694.6,293.8,692.1,291z"/>
				</g>
				<g>
					<linearGradient id="SVGID_1_" gradientUnits="userSpaceOnUse" x1="178.5785" y1="391.0203" x2="178.5785" y2="267.8593">
						<stop  offset="0" style="stop-color:#FF7745"/>
						<stop  offset="1" style="stop-color:#FFAC21"/>
					</linearGradient>
					<path class="st5" d="M113.4,369.8l-17.7,20c-1.2,1.3-3.2,1.5-4.6,0.5l-27.3-20.1c-2.2-1.6-5.4-0.1-5.4,2.7l-0.3,14.4
						c0,2-1.8,3.5-3.8,3.3L26,387.7c-1.7-0.2-3-1.6-3.1-3.3l-2.2-106.8c0-1.8,1.3-3.3,3-3.5c17.2-2,33.8-3.7,49.8-5.3
						c9.1-1,16.6-0.3,22.6,2c6,2.3,10.6,5.7,13.7,10.1c3.1,4.4,4.9,9.5,5.4,15.3c0.4,5.8-0.4,11.8-2.5,17.9
						c-2.1,6.1-5.5,12.1-10.1,17.9c-3.6,4.5-7.9,8.6-12.8,12.2c-1.9,1.4-1.9,4.3,0.1,5.6l22.6,14.8
						C114.5,365.9,114.8,368.3,113.4,369.8z M56.1,309.1l-1,16.1c-0.2,2.5,2.3,4.3,4.6,3.4c1.5-0.6,2.9-1.2,4.1-1.9
						c2.6-1.4,4.7-3,6.4-4.6c1.7-1.6,3.1-3.2,4-4.7c0.8-1.3,1.3-2.4,1.6-3.2c0.1-0.2,0.1-0.4,0.1-0.6c0-0.3,0.1-0.7,0.1-1.3
						c0.1-1,0-2.1-0.4-3.5c-0.3-1.3-1.2-2.5-2.5-3.4c-1.3-0.9-3.3-1.3-6-1.3c-2.3,0-5.2,0.7-8.9,2C57.1,306.5,56.2,307.7,56.1,309.1
						z M162.1,272.7l-5.6,110.1c-0.1,1.7-1.4,3-3,3.2l-31.3,3.6c-2,0.2-3.8-1.4-3.8-3.4l1.4-109.4c0-1.7,1.3-3.1,3-3.3l35.5-4.2
						C160.4,268.9,162.2,270.6,162.1,272.7z M227.5,315c3,1.4,6,2.9,9.2,4.6c3.1,1.7,6,3.9,8.5,6.4c2.6,2.5,4.7,5.5,6.4,9
						c1.7,3.5,2.6,7.7,2.8,12.5c0.3,6.8-0.8,12.9-3.3,18.2c-2.5,5.3-6.1,9.7-10.6,13.3c-4.6,3.6-10.1,6.4-16.4,8.4
						c-6.4,2-13.2,3.1-20.5,3.4c-3.4,0.1-6.8-0.1-10.4-0.5c-3.6-0.4-7.1-1.1-10.6-2c-3.5-0.9-6.8-1.9-10.1-3.1
						c-2.2-0.8-4.3-1.7-6.4-2.5c-1.6-0.7-2.5-2.6-1.9-4.3l8.7-24.6c0.7-1.9,2.8-2.8,4.6-2c0.6,0.3,1.2,0.5,1.8,0.8
						c2,0.9,4.2,1.8,6.5,2.5c2.3,0.8,4.7,1.4,7.2,2c2.5,0.6,5,0.8,7.4,0.7c3.6-0.2,6.6-0.8,9-1.9c2.5-1.1,3.6-2.8,3.5-5.4
						c-0.1-1.6-0.9-2.9-2.5-3.8c-1.5-0.8-3.4-1.7-5.5-2.5c-0.1,0-0.3-0.1-0.4-0.1c-1.4-0.4-3.3-0.9-5.5-1.5
						c-2.4-0.7-4.9-1.6-7.6-2.7c-2.7-1.2-5.4-2.6-8.2-4.2c-2.7-1.6-5.3-3.6-7.5-5.9c-2.3-2.3-4.1-5-5.6-8c-1.5-3-2.3-6.5-2.4-10.5
						c-0.2-6.7,1-12.8,3.5-18c2.5-5.3,5.9-9.7,10.3-13.5c4.3-3.7,9.4-6.6,15.2-8.5c5.8-2,12-3.1,18.5-3.4c6.1-0.3,12.1,0,18.1,0.9
						c4.9,0.7,9.5,1.9,13.9,3.5c1.7,0.6,2.6,2.4,2.1,4.1l-6.8,26.6c-0.5,2-2.7,3.1-4.6,2.3c-2.5-1-4.8-1.9-6.9-2.6
						c-3.2-1.1-6.9-2-11.1-2.5c-1.3-0.2-2.9-0.3-5.1-0.3c-2,0-4,0.2-6,0.7c-2,0.4-3.7,1.1-5.1,2.1c-1.4,1-2.2,2.3-2.3,4
						c0,0.8,0.4,1.4,1.1,1.8c0.7,0.4,1.6,0.8,2.6,1c1,0.2,2,0.4,3.1,0.6c1,0.1,1.8,0.3,2.5,0.3c0.1,0,0.1,0,0.2,0
						c2.8,0.6,5.7,1.2,8.9,2C222.4,313.1,225,313.9,227.5,315z M260.2,275.4l72.5-5.4c2.1-0.2,3.9,1.7,3.6,3.8l-3.6,29.6
						c-0.2,1.7-1.6,2.9-3.2,3l-30.2,1.3c-1.8,0.1-3.2,1.5-3.3,3.3l0,0c0,2,1.7,3.6,3.7,3.5l18.5-1.3c2.1-0.2,3.9,1.7,3.6,3.8
						l-2.2,18.4c-0.2,1.6-1.5,2.9-3.1,3l-18.3,1.4c-1.7,0.1-3.1,1.5-3.1,3.3l0,1c-0.1,2.1,1.7,3.7,3.7,3.5l33.7-3.2
						c2-0.2,3.8,1.4,3.7,3.5l-0.6,32.9c0,1.8-1.4,3.3-3.2,3.3l-70.6,3.8c-1.9,0.1-3.6-1.4-3.6-3.4l-1-105.9
						C257,277,258.4,275.5,260.2,275.4z"/>
				</g>
				<linearGradient id="SVGID_2_" gradientUnits="userSpaceOnUse" x1="398.4279" y1="392.4665" x2="398.4279" y2="265.909">
					<stop  offset="0" style="stop-color:#2293E9"/>
					<stop  offset="1" style="stop-color:#34E1FF"/>
				</linearGradient>
				<path class="st6" d="M447.8,292l-21.4,26.3c-1.1,1.4-3.2,1.5-4.4,0.3c-11.5-11.7-36.6-5.4-36.6,14.1c0,19.7,28.2,25.4,39.3,7.9
					c1.1-1.7,3.4-1.9,4.8-0.5l23.8,25.3c1,1,1.1,2.6,0.3,3.7c-1.5,2.1-3.6,4.3-6.3,6.5c-3.6,2.9-7.8,5.5-12.7,8
					c-4.9,2.4-10.3,4.4-16.2,6c-5.9,1.6-11.9,2.5-18,2.7c-6.1,0.2-12.1-0.4-18.1-2c-5.9-1.5-11.4-4.2-16.4-8.1
					c-7.2-5.6-12.6-11.8-16.1-18.5c-3.5-6.7-5.4-13.7-6.2-20.8c-4.4-36.8,13.7-61.1,32-70.6c16.3-8.5,34.3-6.7,39.7-5.4
					c5.4,1.3,10.9,3.7,16.8,7.3c5.3,3.2,10.5,7.8,15.8,13.8C448.7,289.2,448.7,290.9,447.8,292z"/>
				<linearGradient id="SVGID_3_" gradientUnits="userSpaceOnUse" x1="481.1431" y1="389.6635" x2="481.1431" y2="269.0834">
					<stop  offset="0" style="stop-color:#2293E9"/>
					<stop  offset="1" style="stop-color:#34E1FF"/>
				</linearGradient>
				<path class="st7" d="M503,272.3l-5.6,110.9c-0.1,1.5-1.2,2.7-2.7,2.8l-32.1,3.7c-1.8,0.2-3.4-1.2-3.4-3l1.4-110.2
					c0-1.5,1.2-2.8,2.7-3l36.3-4.3C501.5,268.9,503.1,270.4,503,272.3z"/>
				<linearGradient id="SVGID_4_" gradientUnits="userSpaceOnUse" x1="546.3697" y1="389.6263" x2="546.3697" y2="267.3917">
					<stop  offset="0" style="stop-color:#2293E9"/>
					<stop  offset="1" style="stop-color:#34E1FF"/>
				</linearGradient>
				<path class="st8" d="M579.9,301.8l-12.3,1.4c-1.5,0.2-2.7,1.5-2.7,3v76.1c0,1.5-1.1,2.8-2.6,3l-35,4.3c-1.8,0.2-3.4-1.2-3.4-3.1
					l2-75.7c0-1.8-1.5-3.3-3.3-3.1l-12.3,1.2c-1.8,0.2-3.4-1.3-3.3-3.1l0.8-29.5c0-1.5,1.2-2.8,2.8-2.9l71.8-6.1
					c1.9-0.2,3.5,1.4,3.3,3.3l-3.1,28.4C582.4,300.5,581.3,301.6,579.9,301.8z"/>
				<g>
					<path class="st1" d="M24.5,377.5l-1.7-73l-0.4-18.2l-0.1-4.6l-0.1-2.3c0-0.4,0-0.7,0-1.2c0-0.4,0.1-0.9,0.4-1.2
						c0.2-0.4,0.6-0.7,0.9-0.9c0.4-0.2,0.9-0.3,1.2-0.3l2.3-0.2l4.5-0.5l36.3-3.8c0.2,0,0.3,0.1,0.4,0.3c0,0.2-0.1,0.3-0.3,0.4l0,0
						c-6,1.1-12,2-18.1,2.8c-3,0.4-6,0.9-9,1.2c-3,0.4-6,0.8-9.1,1.1l-4.5,0.5l-2.3,0.3l-0.3,0c0,0-0.1,0-0.1,0c0,0-0.1,0-0.1,0
						c-0.1,0-0.1,0.1-0.2,0.2c0,0.1-0.1,0.2-0.1,0.2l0,1l0,2.3l0.1,4.6l0.3,18.2c0.1,6.1,0.3,12.2,0.3,18.2l0.2,18.2l0.1,9.1
						c0,3,0,6.1,0,9.1c0,6.1,0,12.2-0.1,18.3l0,0c0,0.2-0.1,0.3-0.3,0.3C24.7,377.8,24.5,377.7,24.5,377.5z"/>
				</g>
				<g>
					<path class="st1" d="M121.1,377.5l0.5-62.2l0.2-31.1l0-3.9l0-1l0-0.5c0-0.2,0-0.4,0.1-0.5c0.1-0.7,0.5-1.4,1.1-1.8
						c0.3-0.2,0.6-0.4,1-0.5c0.3-0.1,0.7-0.1,1-0.2l1.9-0.2l3.9-0.4l15.5-1.6c0.2,0,0.3,0.1,0.4,0.3c0,0.2-0.1,0.3-0.3,0.4l0,0
						c-5.1,1-10.2,1.8-15.4,2.5l-3.9,0.6l-1.9,0.3l-0.2,0c-0.1,0-0.2,0-0.2,0c-0.1,0-0.1,0-0.2,0.1c-0.1,0.1-0.3,0.1-0.4,0.2
						c-0.2,0.2-0.4,0.5-0.4,0.7c0,0.1,0,0.1,0,0.2l0,0.5l0,1c0,1.3,0,2.6,0,3.9l0,7.8l-0.1,7.8l-0.2,15.5
						c-0.1,5.2-0.1,10.4-0.2,15.5l-0.4,15.5l-0.2,7.8c-0.1,2.6-0.2,5.2-0.3,7.8c-0.2,5.2-0.4,10.4-0.6,15.5l0,0
						c0,0.2-0.2,0.3-0.3,0.3C121.2,377.8,121.1,377.6,121.1,377.5z"/>
				</g>
				<g>
					<path class="st1" d="M260.4,379.3l-0.7-62.9l-0.3-31.5l0-2l0-1l0-0.5c0-0.2,0-0.4,0-0.5c0.2-1.4,1.3-2.7,2.7-3.1
						c0.4-0.1,0.7-0.1,1-0.2l1-0.1l2-0.2l3.9-0.4l15.6-1.7c0.2,0,0.3,0.1,0.4,0.3c0,0.2-0.1,0.3-0.3,0.4l0,0
						c-5.2,1-10.3,1.8-15.5,2.6l-3.9,0.6l-1.9,0.3l-1,0.1c-0.1,0-0.4,0-0.5,0.1c-0.1,0-0.2,0-0.3,0.1c-0.7,0.2-1.2,0.9-1.3,1.6
						c0,0.1,0,0.2,0,0.3l0,0.5l0,1l0,2l0.1,7.9l0,7.9l0.1,15.7c0,5.2,0.1,10.5,0,15.7l-0.1,15.7l-0.1,7.9c0,2.6-0.1,5.2-0.1,7.9
						c-0.1,5.2-0.2,10.5-0.3,15.7l0,0c0,0.2-0.2,0.3-0.3,0.3C260.5,379.6,260.4,379.5,260.4,379.3z"/>
				</g>
				<g>
					<path class="st1" d="M462.1,377.3l0.5-62.2l0.2-31.1l0-3.9l0-1l0-0.5c0-0.2,0-0.4,0.1-0.5c0.1-0.7,0.5-1.4,1.1-1.8
						c0.3-0.2,0.6-0.4,1-0.5c0.3-0.1,0.7-0.1,1-0.2l1.9-0.2l3.9-0.4l15.5-1.6c0.2,0,0.3,0.1,0.4,0.3c0,0.2-0.1,0.3-0.3,0.4l0,0
						c-5.1,1-10.2,1.8-15.4,2.5l-3.9,0.6l-1.9,0.3l-0.2,0c-0.1,0-0.2,0-0.2,0c-0.1,0-0.1,0-0.2,0.1c-0.1,0.1-0.3,0.1-0.4,0.2
						c-0.2,0.2-0.4,0.5-0.4,0.7c0,0.1,0,0.1,0,0.2l0,0.5l0,1c0,1.3,0,2.6,0,3.9l0,7.8l-0.1,7.8l-0.2,15.5
						c-0.1,5.2-0.1,10.4-0.2,15.5l-0.4,15.5l-0.2,7.8c-0.1,2.6-0.2,5.2-0.3,7.8c-0.2,5.2-0.4,10.4-0.6,15.5l0,0
						c0,0.2-0.2,0.3-0.3,0.3C462.3,377.7,462.1,377.5,462.1,377.3z"/>
				</g>
				<g>
					<path class="st1" d="M509.6,305.2l0.3-28.9l0-0.3l0.3,0l24.6-2.3c0.2,0,0.3,0.1,0.4,0.3c0,0.2-0.1,0.3-0.2,0.3l0,0
						c-2,0.5-4.1,0.9-6.1,1.2c-2,0.3-4.1,0.7-6.1,1c-2,0.3-4.1,0.5-6.1,0.8l-6.2,0.6l1.5-1.7l-0.1,7.2c-0.1,2.4-0.1,4.8-0.3,7.2
						c-0.1,2.4-0.3,4.8-0.5,7.2l-0.3,3.6l-0.2,1.8l-0.2,1.8l0,0c0,0.2-0.2,0.3-0.4,0.3C509.7,305.5,509.6,305.3,509.6,305.2z"/>
				</g>
				<path class="st9" d="M584.7,279.2l-12.3,8.9c-1.9,1.4-2.3,4.1-0.9,6l6,8l5.1-0.5L584.7,279.2z"/>
				<linearGradient id="SVGID_5_" gradientUnits="userSpaceOnUse" x1="633.9127" y1="389.751" x2="633.9127" y2="268.4075">
					<stop  offset="0" style="stop-color:#2293E9"/>
					<stop  offset="1" style="stop-color:#34E1FF"/>
				</linearGradient>
				<path class="st10" d="M606.9,270l21.4,33.6c1.2,1.8,3.8,1.9,5,0.1l23.5-34c0.9-1.4,2.8-1.7,4.2-0.8l30.3,20.8
					c1.4,1,1.7,3,0.7,4.3l-41.5,53.7c-0.4,0.5-0.6,1.2-0.6,1.8l-0.4,37.2c0,1.8-1.6,3.2-3.4,3l-32.9-4.4c-1.5-0.2-2.6-1.5-2.6-3
					v-38.9c0-0.6-0.2-1.2-0.6-1.8l-34.2-47.8c-0.9-1.3-0.7-3.1,0.6-4.1l26.2-20.5C603.9,268.2,606,268.5,606.9,270z"/>
				<g>
					<path class="st1" d="M613.1,381.2l0.3-41.2l0.1,0.2l-27.4-36.7l-6.8-9.2c-0.1-0.2-0.3-0.4-0.4-0.7c-0.1-0.2-0.2-0.5-0.2-0.8
						c-0.1-0.5,0.1-1.1,0.3-1.6c0.1-0.2,0.3-0.4,0.5-0.6c0.2-0.2,0.4-0.3,0.6-0.5l1.1-0.9l4.6-3.5l18.2-13.9
						c0.1-0.1,0.3-0.1,0.5,0.1c0.1,0.1,0.1,0.3,0,0.4l0,0l-2.1,1.9l-2.2,1.9c-1.5,1.2-2.9,2.5-4.4,3.7l-8.9,7.3l-4.5,3.6l-1.1,0.9
						l-0.3,0.2c-0.1,0.1-0.2,0.2-0.2,0.2c0,0-0.1,0.1-0.1,0.1c0,0.1-0.1,0.2-0.1,0.4c0,0.1,0,0.1,0.1,0.2c0,0,0,0.1,0,0.1
						c0,0,0,0,0.1,0.1l0.1,0.1c2.3,3,4.6,6.1,6.9,9.2l13.6,18.4l6.8,9.2l6.7,9.3l0.3,0.4l0,0.4l-0.2,10.3c-0.1,3.4-0.1,6.9-0.3,10.3
						l-0.4,10.3c-0.1,3.4-0.3,6.9-0.4,10.3l0,0c0,0.2-0.2,0.3-0.3,0.3C613.2,381.5,613.1,381.4,613.1,381.2z"/>
				</g>
				<g>
					<path class="st1" d="M424.8,274c-5.5-1.3-11.1-2.1-16.8-2.1c-5.6,0-11.2,0.7-16.6,2.2c-5.4,1.5-10.5,3.7-15.2,6.6
						c-4.7,2.9-9,6.5-12.6,10.7c-3.6,4.2-6.6,8.9-8.9,13.9c-2.3,5-3.9,10.4-4.9,15.9c-1,5.5-1.4,11.1-1.2,16.8
						c0.2,5.6,0.9,11.3,1.9,16.9l-0.5,0.1c-1.6-5.5-2.8-11.1-3.4-16.9c-0.6-5.7-0.5-11.6,0.3-17.3c0.8-5.8,2.4-11.4,4.7-16.8
						c2.4-5.4,5.5-10.4,9.4-14.8c3.9-4.4,8.4-8.2,13.5-11.2c5-3,10.5-5.2,16.2-6.5c5.7-1.3,11.5-1.8,17.3-1.4
						c5.8,0.4,11.5,1.6,16.9,3.6L424.8,274z"/>
				</g>
				<g>
					<path class="st1" d="M234.2,272.1c-1.8-0.2-3.6-0.3-5.4-0.4c-1.8-0.1-3.6-0.1-5.4,0c-1.8,0.1-3.6,0.1-5.3,0.3
						c-1.8,0.2-3.5,0.4-5.3,0.6c-1.8,0.3-3.5,0.6-5.2,1c-0.9,0.2-1.7,0.4-2.6,0.6c-0.9,0.2-1.7,0.5-2.5,0.7c-3.3,1-6.6,2.3-9.7,3.9
						c-0.8,0.4-1.5,0.9-2.2,1.3c-0.8,0.4-1.4,1-2.2,1.4c-1.4,1-2.8,2-4,3.2c-0.2,0.1-0.3,0.3-0.5,0.4l-0.4,0.5l-0.9,0.9l-0.5,0.5
						l-0.4,0.5l-0.8,1c-0.6,0.6-1,1.4-1.5,2c-0.5,0.7-0.9,1.4-1.4,2.2c-0.2,0.4-0.5,0.7-0.7,1.1l-0.6,1.2l-0.6,1.2
						c-0.2,0.4-0.3,0.8-0.5,1.2l-0.5,1.2l-0.3,0.6l-0.2,0.6c-0.3,0.8-0.6,1.7-0.8,2.5c-1,3.4-1.5,6.9-2,10.5l0,0.1
						c0,0.3-0.3,0.4-0.5,0.4c-0.2,0-0.4-0.2-0.4-0.5c0.1-3.6,0.4-7.3,1.1-10.9c0.8-3.6,2.1-7,3.9-10.3c1.8-3.2,4.1-6.1,6.7-8.6
						c2.7-2.5,5.7-4.6,9-6.3c6.5-3.4,13.7-5.2,20.9-6c3.6-0.4,7.3-0.5,10.9-0.4c3.6,0.1,7.3,0.5,10.9,1.2c0.2,0.1,0.4,0.3,0.4,0.5
						C234.7,271.9,234.4,272.1,234.2,272.1L234.2,272.1z"/>
				</g>
			</g>
		</g>
	</g>
</g>
</svg>
